<svg width="8" height="14" viewBox="0 0 8 14" fill="none" xmlns="http://www.w3.org/2000/svg">
<path d="M6.72707 0.0895312C6.84685 -0.0261744 7.03775 -0.0228386 7.15346 0.0969377C7.26631 0.213802 7.26631 0.39905 7.15346 0.515886L0.733111 6.93683L7.15405 13.3572C7.27383 13.4729 7.27713 13.6638 7.16146 13.7836C7.04575 13.9033 6.85488 13.9066 6.73507 13.791C6.73256 13.7885 6.7301 13.7861 6.72767 13.7836L0.0938336 7.14972C-0.023879 7.03198 -0.023879 6.84111 0.0938336 6.72334L6.72707 0.0895312Z" fill="#F44336"/>
<path d="M6.94011 13.8709C6.99983 13.871 7.05823 13.8533 7.10792 13.8202C7.15761 13.7871 7.19634 13.74 7.2192 13.6848C7.24207 13.6296 7.24804 13.5689 7.23636 13.5103C7.22469 13.4518 7.19588 13.398 7.1536 13.3558L0.732663 6.93548L7.1536 0.515166C7.27151 0.397255 7.27151 0.206099 7.1536 0.0881888C7.03569 -0.0297218 6.84454 -0.0297218 6.72663 0.0881888L0.0927921 6.72202C-0.0249206 6.83976 -0.0249206 7.03064 0.0927921 7.14841L6.72663 13.7822C6.75463 13.8103 6.7879 13.8326 6.82453 13.8478C6.86117 13.863 6.90045 13.8709 6.94011 13.8709Z" fill="black"/>
</svg>
