<svg width="8" height="15" viewBox="0 0 8 15" fill="none" xmlns="http://www.w3.org/2000/svg">
<path d="M0.532542 0.773177C0.472825 0.773073 0.414422 0.790702 0.364736 0.823829C0.31505 0.856956 0.276319 0.90409 0.253452 0.959255C0.230585 1.01442 0.224613 1.07513 0.236292 1.1337C0.247971 1.19226 0.276775 1.24604 0.319053 1.28821L6.73999 7.70856L0.319053 14.1289C0.201143 14.2468 0.201143 14.4379 0.319053 14.5559C0.436964 14.6738 0.62812 14.6738 0.74603 14.5559L7.37986 7.92202C7.49758 7.80428 7.49758 7.6134 7.37986 7.49564L0.74603 0.861829C0.718029 0.833732 0.684757 0.811438 0.648122 0.796225C0.611487 0.781013 0.57221 0.77318 0.532542 0.773177Z" fill="black"/>
</svg>
