<svg width="18" height="18" viewBox="0 0 18 18" fill="none" xmlns="http://www.w3.org/2000/svg">
<path d="M16.0246 8.27707C16.1052 8.27707 16.1824 8.24509 16.2393 8.18816C16.2962 8.13123 16.3282 8.05402 16.3282 7.9735V7.10832H16.5893C16.8308 7.10832 17.0625 7.01237 17.2333 6.84158C17.404 6.67079 17.5 6.43915 17.5 6.19761V5.66029C17.5002 5.42443 17.4088 5.1977 17.2452 5.02784C17.0815 4.85798 16.8584 4.75822 16.6227 4.74957V3.29243C16.6257 3.22547 16.6066 3.15938 16.5681 3.10446C16.5297 3.04955 16.4741 3.0089 16.4102 2.98886L9.09107 0.660467C9.03179 0.641823 8.96821 0.641823 8.90893 0.660467L1.58982 3.001C1.52586 3.02104 1.47032 3.06169 1.43188 3.1166C1.39344 3.17152 1.37426 3.23761 1.37732 3.30457V4.74957C1.14162 4.75822 0.918465 4.85798 0.75483 5.02784C0.591194 5.1977 0.499842 5.42443 0.5 5.66029V6.20368C0.5 6.44522 0.59595 6.67686 0.766742 6.84765C0.937534 7.01845 1.16918 7.1144 1.41071 7.1144H1.67179V7.97957C1.67179 8.06009 1.70377 8.1373 1.7607 8.19423C1.81763 8.25116 1.89485 8.28315 1.97536 8.28315H2.54911V13.8203H1.97536C1.89485 13.8203 1.81763 13.8523 1.7607 13.9092C1.70377 13.9661 1.67179 14.0433 1.67179 14.1239V14.989H1.41071C1.16918 14.989 0.937534 15.085 0.766742 15.2558C0.59595 15.4266 0.5 15.6582 0.5 15.8998V16.4431C0.5 16.6847 0.59595 16.9163 0.766742 17.0871C0.937534 17.2579 1.16918 17.3539 1.41071 17.3539H16.5893C16.8308 17.3539 17.0625 17.2579 17.2333 17.0871C17.404 16.9163 17.5 16.6847 17.5 16.4431V15.8998C17.5 15.6582 17.404 15.4266 17.2333 15.2558C17.0625 15.085 16.8308 14.989 16.5893 14.989H16.3282V14.1239C16.3282 14.0433 16.2962 13.9661 16.2393 13.9092C16.1824 13.8523 16.1052 13.8203 16.0246 13.8203H15.4509V8.27707H16.0246ZM1.98446 3.51404L9 1.26761L16.0155 3.51404V4.74957H1.98446V3.51404ZM1.41071 6.50118C1.3302 6.50118 1.25299 6.4692 1.19606 6.41227C1.13913 6.35534 1.10714 6.27812 1.10714 6.19761V5.66029C1.10714 5.57978 1.13913 5.50256 1.19606 5.44563C1.25299 5.3887 1.3302 5.35672 1.41071 5.35672H16.5893C16.6698 5.35672 16.747 5.3887 16.8039 5.44563C16.8609 5.50256 16.8929 5.57978 16.8929 5.66029V6.20368C16.8929 6.28419 16.8609 6.36141 16.8039 6.41834C16.747 6.47527 16.6698 6.50725 16.5893 6.50725L1.41071 6.50118ZM10.7577 13.8203H10.1809V8.27707H10.7577C10.8382 8.27707 10.9154 8.24509 10.9723 8.18816C11.0293 8.13123 11.0613 8.05402 11.0613 7.9735V7.10832H12.2087V7.9735C12.2087 8.05402 12.2407 8.13123 12.2977 8.18816C12.3546 8.24509 12.4318 8.27707 12.5123 8.27707H13.0861V13.8203H12.5123C12.4318 13.8203 12.3546 13.8523 12.2977 13.9092C12.2407 13.9661 12.2087 14.0433 12.2087 14.1239V14.989H11.0613V14.1239C11.0613 14.0433 11.0293 13.9661 10.9723 13.9092C10.9154 13.8523 10.8382 13.8203 10.7577 13.8203ZM5.48768 13.8203H4.91393V8.27707H5.48768C5.56819 8.27707 5.64541 8.24509 5.70234 8.18816C5.75927 8.13123 5.79125 8.05402 5.79125 7.9735V7.10832H6.93875V7.9735C6.93875 8.05402 6.97073 8.13123 7.02766 8.18816C7.08459 8.24509 7.16181 8.27707 7.24232 8.27707H7.81911V13.8203H7.24232C7.16181 13.8203 7.08459 13.8523 7.02766 13.9092C6.97073 13.9661 6.93875 14.0433 6.93875 14.1239V14.989H5.79125V14.1239C5.79125 14.0433 5.75927 13.9661 5.70234 13.9092C5.64541 13.8523 5.56819 13.8203 5.48768 13.8203ZM7.54589 7.66993V7.10832H10.4541V7.66993H7.54589ZM9.57375 8.27707V13.8203H8.42625V8.27707H9.57375ZM7.54589 14.4274H10.4541V14.989H7.54589V14.4274ZM2.27893 7.66993V7.10832H5.18411V7.66993H2.27893ZM4.30679 8.27707V13.8203H3.15625V8.27707H4.30679ZM2.27893 14.4274H5.18411V14.989H2.27893V14.4274ZM16.5893 15.5962C16.6698 15.5962 16.747 15.6282 16.8039 15.6851C16.8609 15.742 16.8929 15.8192 16.8929 15.8998V16.4431C16.8929 16.5237 16.8609 16.6009 16.8039 16.6578C16.747 16.7147 16.6698 16.7467 16.5893 16.7467H1.41071C1.3302 16.7467 1.25299 16.7147 1.19606 16.6578C1.13913 16.6009 1.10714 16.5237 1.10714 16.4431V15.8998C1.10714 15.8192 1.13913 15.742 1.19606 15.6851C1.25299 15.6282 1.3302 15.5962 1.41071 15.5962H16.5893ZM15.7211 14.4274V14.989H12.8159V14.4274H15.7211ZM13.6932 13.8203V8.27707H14.8438V13.8203H13.6932ZM12.8159 7.66993V7.10832H15.7211V7.66993H12.8159Z" fill="black"/>
<path d="M9.00138 2.03516C8.81106 2.03516 8.625 2.0916 8.46675 2.19734C8.30849 2.30308 8.18515 2.45337 8.11232 2.62921C8.03948 2.80505 8.02042 2.99855 8.05755 3.18522C8.09469 3.37189 8.18634 3.54336 8.32092 3.67794C8.4555 3.81252 8.62697 3.90418 8.81364 3.94131C9.00032 3.97844 9.19381 3.95938 9.36965 3.88655C9.54549 3.81371 9.69578 3.69037 9.80152 3.53211C9.90727 3.37386 9.96371 3.18781 9.96371 2.99748C9.96371 2.74225 9.86232 2.49748 9.68185 2.31701C9.50138 2.13654 9.25661 2.03516 9.00138 2.03516ZM9.00138 3.35266C8.93114 3.35266 8.86247 3.33183 8.80406 3.2928C8.74565 3.25377 8.70012 3.1983 8.67324 3.1334C8.64636 3.0685 8.63933 2.99708 8.65303 2.92819C8.66674 2.85929 8.70056 2.796 8.75024 2.74633C8.79991 2.69666 8.86319 2.66283 8.93209 2.64912C9.00099 2.63542 9.0724 2.64245 9.1373 2.66934C9.20221 2.69622 9.25768 2.74174 9.2967 2.80015C9.33573 2.85856 9.35656 2.92723 9.35656 2.99748C9.35656 3.09168 9.31914 3.18202 9.25253 3.24863C9.18592 3.31524 9.09558 3.35266 9.00138 3.35266Z" fill="black"/>
</svg>
