<svg width="23" height="43" viewBox="0 0 23 43" fill="none" xmlns="http://www.w3.org/2000/svg">
<path d="M21.1174 0.0155754C21.2992 0.0152588 21.477 0.0689354 21.6283 0.1698C21.7796 0.270664 21.8975 0.414177 21.9671 0.582142C22.0368 0.750107 22.0549 0.934967 22.0194 1.11328C21.9838 1.29159 21.8961 1.45533 21.7674 1.58374L2.21707 21.1323L21.7674 40.6807C22.1264 41.0397 22.1264 41.6217 21.7674 41.9807C21.4084 42.3398 20.8264 42.3398 20.4673 41.9807L0.268803 21.7822C-0.0896053 21.4237 -0.0896053 20.8425 0.268803 20.484L20.4673 0.2855C20.5526 0.199951 20.6539 0.132072 20.7654 0.0857506C20.877 0.0394325 20.9966 0.015583 21.1174 0.0155754Z" fill="black"/>
</svg>
