<svg width="23" height="43" viewBox="0 0 23 43" fill="none" xmlns="http://www.w3.org/2000/svg">
<path d="M1.88264 0.515575C1.70081 0.515259 1.52299 0.568935 1.3717 0.6698C1.22042 0.770664 1.10249 0.914177 1.03287 1.08214C0.963246 1.25011 0.945061 1.43497 0.980621 1.61328C1.01618 1.79159 1.10388 1.95533 1.23261 2.08374L20.7829 21.6323L1.23261 41.1807C0.8736 41.5397 0.8736 42.1217 1.23261 42.4807C1.59162 42.8398 2.17365 42.8398 2.53266 42.4807L22.7312 22.2822C23.0896 21.9237 23.0896 21.3425 22.7312 20.984L2.53266 0.7855C2.4474 0.699951 2.3461 0.632072 2.23455 0.585751C2.12301 0.539433 2.00342 0.515583 1.88264 0.515575Z" fill="black"/>
</svg>
