<svg width="16" height="17" viewBox="0 0 16 17" fill="none" xmlns="http://www.w3.org/2000/svg">
<path d="M12.6518 10.6641C12.3237 10.3226 11.9281 10.1399 11.5087 10.1399C11.0928 10.1399 10.6937 10.3192 10.3521 10.6607L9.28348 11.726C9.19555 11.6787 9.10763 11.6347 9.02308 11.5907C8.90133 11.5299 8.78635 11.4724 8.68828 11.4115C7.68726 10.7757 6.77755 9.94717 5.90504 8.87513C5.48232 8.34081 5.19824 7.89102 4.99195 7.43448C5.26926 7.18084 5.52628 6.91706 5.77653 6.66342C5.87123 6.56873 5.96592 6.47066 6.06061 6.37597C6.77079 5.66579 6.77079 4.74593 6.06061 4.03575L5.13737 3.11251C5.03253 3.00768 4.92432 2.89946 4.82286 2.79124C4.61995 2.58157 4.4069 2.36513 4.18708 2.16222C3.85904 1.83757 3.46675 1.6651 3.05417 1.6651C2.64159 1.6651 2.24253 1.83757 1.90435 2.16222L1.89759 2.16899L0.74777 3.32895C0.314898 3.76182 0.0680248 4.28939 0.0139157 4.9015C-0.067248 5.88899 0.223588 6.80884 0.446788 7.41081C0.994643 8.88866 1.81304 10.2583 3.03388 11.726C4.51512 13.4947 6.29733 14.8914 8.33319 15.8755C9.11101 16.2441 10.1492 16.6804 11.3092 16.7548C11.3802 16.7582 11.4546 16.7615 11.5222 16.7615C12.3034 16.7615 12.9595 16.4808 13.4736 15.9228C13.4769 15.9161 13.4837 15.9127 13.4871 15.9059C13.6629 15.6929 13.8658 15.5001 14.0789 15.2938C14.2243 15.1552 14.3731 15.0098 14.5185 14.8576C14.8533 14.5092 15.0292 14.1034 15.0292 13.6875C15.0292 13.2681 14.85 12.8657 14.5084 12.5275L12.6518 10.6641ZM13.8625 14.2252C13.8591 14.2252 13.8591 14.2286 13.8625 14.2252C13.7306 14.3672 13.5953 14.4957 13.4499 14.6378C13.2301 14.8474 13.0069 15.0672 12.7972 15.3141C12.4556 15.6794 12.0532 15.8518 11.5256 15.8518C11.4749 15.8518 11.4208 15.8518 11.3701 15.8484C10.3657 15.7842 9.43228 15.3919 8.73224 15.0571C6.81813 14.1305 5.13737 12.815 3.74068 11.1477C2.58748 9.75779 1.81643 8.4727 1.30577 7.09291C0.991261 6.25084 0.876279 5.59477 0.927007 4.9759C0.960825 4.58022 1.11301 4.25219 1.3937 3.9715L2.5469 2.8183C2.71261 2.66273 2.88846 2.57819 3.06093 2.57819C3.27399 2.57819 3.44646 2.7067 3.55468 2.81491L3.56483 2.82506C3.77112 3.01782 3.96726 3.21735 4.17355 3.43041C4.27839 3.53862 4.38661 3.64684 4.49483 3.75844L5.41806 4.68168C5.77653 5.04015 5.77653 5.37157 5.41806 5.73004C5.31999 5.82811 5.2253 5.92619 5.12722 6.02088C4.84315 6.31171 4.57261 6.58226 4.27839 6.84604C4.27163 6.85281 4.26486 6.85619 4.26148 6.86295C3.97064 7.15379 4.02475 7.43786 4.08563 7.63062L4.09577 7.66106C4.33588 8.24273 4.67406 8.79059 5.1881 9.44328L5.19148 9.44666C6.12486 10.5965 7.10897 11.4927 8.19454 12.1792C8.33319 12.2671 8.47523 12.3381 8.6105 12.4058C8.73224 12.4666 8.84723 12.5241 8.9453 12.585C8.95883 12.5918 8.97235 12.6019 8.98588 12.6087C9.10086 12.6662 9.20908 12.6932 9.32068 12.6932C9.60137 12.6932 9.77723 12.5174 9.83472 12.4599L10.9913 11.3033C11.1063 11.1883 11.2889 11.0496 11.502 11.0496C11.7116 11.0496 11.8841 11.1815 11.9889 11.2965L11.9957 11.3033L13.8591 13.1667C14.2074 13.5116 14.2074 13.8667 13.8625 14.2252ZM8.6477 4.54979C9.53374 4.69859 10.3386 5.11793 10.9812 5.76048C11.6237 6.40302 12.0397 7.2079 12.1918 8.09393C12.229 8.31713 12.4218 8.4727 12.6416 8.4727C12.6687 8.4727 12.6924 8.46931 12.7194 8.46593C12.9697 8.42535 13.1354 8.18862 13.0948 7.93837C12.9122 6.86633 12.4049 5.88899 11.6305 5.11455C10.856 4.34011 9.87868 3.83284 8.80664 3.65022C8.55639 3.60964 8.32304 3.77535 8.27908 4.02222C8.23512 4.2691 8.39744 4.50921 8.6477 4.54979ZM15.993 7.80648C15.692 6.04117 14.8601 4.43481 13.5818 3.15648C12.3034 1.87815 10.6971 1.04622 8.93177 0.745242C8.6849 0.701278 8.45155 0.870369 8.40759 1.11724C8.36701 1.3675 8.53272 1.60084 8.78297 1.64481C10.3589 1.91197 11.7962 2.65935 12.9392 3.79902C14.0823 4.94208 14.8263 6.37935 15.0934 7.95528C15.1306 8.17848 15.3234 8.33404 15.5432 8.33404C15.5703 8.33404 15.594 8.33066 15.621 8.32728C15.8679 8.29008 16.037 8.05335 15.993 7.80648Z" fill="black"/>
</svg>
