<svg width="29" height="29" viewBox="0 0 29 29" fill="none" xmlns="http://www.w3.org/2000/svg">
<path d="M14.2493 28.248C6.51768 28.248 0.25 21.9804 0.25 14.2488C0.25 6.51721 6.51768 0.249268 14.2493 0.249268C21.9808 0.249268 28.2488 6.51721 28.2488 14.2488C28.2401 21.9768 21.9776 28.2394 14.2493 28.248ZM14.2493 1.64938C7.29077 1.64938 1.64985 7.29024 1.64985 14.2488C1.64985 21.2073 7.29077 26.8482 14.2493 26.8482C21.2078 26.8482 26.8487 21.2073 26.8487 14.2488C26.8407 7.29365 21.2044 1.65732 14.2493 1.64938Z" fill="black"/>
<path d="M12.6103 19.6746C12.3191 19.9292 11.877 19.8994 11.6224 19.6084C11.3681 19.3172 11.3979 18.8751 11.6888 18.6205L16.6863 14.248L11.6886 9.8751C11.3973 9.62055 11.3679 9.17839 11.6222 8.88749C11.8767 8.59626 12.3189 8.56653 12.6101 8.82108L18.2097 13.7209C18.2849 13.7867 18.3451 13.8677 18.3864 13.9586C18.4276 14.0495 18.449 14.1482 18.449 14.248C18.449 14.3478 18.4276 14.4465 18.3864 14.5374C18.3451 14.6283 18.2849 14.7093 18.2097 14.775L12.6103 19.6746Z" fill="black"/>
</svg>
