<svg width="22" height="22" viewBox="0 0 22 22" fill="none" xmlns="http://www.w3.org/2000/svg">
<path d="M21.8731 4.49402C21.811 4.40494 21.7292 4.33139 21.634 4.27911C21.5388 4.22682 21.4329 4.19721 21.3244 4.19257L7.67755 3.60433C7.286 3.58719 6.9588 3.88949 6.94206 4.27922C6.92542 4.6688 7.22722 4.99797 7.6169 5.01471L20.3398 5.56317L17.8382 13.3683H6.70584L4.6946 2.41731C4.67291 2.29925 4.62146 2.18868 4.54512 2.09604C4.46878 2.00341 4.37008 1.93177 4.25835 1.8879L0.964293 0.593806C0.601246 0.451669 0.191576 0.629992 0.0489958 0.992596C-0.0933378 1.3554 0.0849361 1.76531 0.447786 1.90789L3.37673 3.05853L5.42346 14.2018C5.45333 14.3641 5.53916 14.5109 5.66602 14.6165C5.79288 14.7222 5.95275 14.78 6.11784 14.78H6.45736L5.68208 16.9335C5.65004 17.0223 5.63988 17.1175 5.65246 17.2111C5.66504 17.3046 5.7 17.3938 5.75435 17.4709C5.80861 17.5482 5.88065 17.6112 5.96438 17.6547C6.04812 17.6982 6.14109 17.7209 6.23546 17.721H6.77924C6.44229 18.096 6.23546 18.5897 6.23546 19.1327C6.23546 20.3004 7.18561 21.2503 8.35308 21.2503C9.52055 21.2503 10.4707 20.3004 10.4707 19.1327C10.4707 18.5898 10.2639 18.096 9.92698 17.721H14.5439C14.2068 18.096 14.0001 18.5897 14.0001 19.1327C14.0001 20.3004 14.95 21.2503 16.1177 21.2503C17.2854 21.2503 18.2353 20.3004 18.2353 19.1327C18.2353 18.5898 18.0285 18.096 17.6917 17.721H18.353C18.6779 17.721 18.9412 17.4576 18.9412 17.1328C18.9412 16.8078 18.6779 16.5445 18.353 16.5445H7.07243L7.70764 14.7799H18.3529C18.5024 14.7799 18.6481 14.7324 18.7689 14.6443C18.8897 14.5561 18.9794 14.4319 19.025 14.2895L21.9662 5.11303C21.9994 5.00966 22.0083 4.9 21.9922 4.79262C21.976 4.68524 21.9353 4.58305 21.8731 4.49402ZM8.35313 20.0741C7.83407 20.0741 7.41194 19.652 7.41194 19.133C7.41194 18.6139 7.83407 18.1918 8.35313 18.1918C8.8722 18.1918 9.29428 18.6139 9.29428 19.133C9.29428 19.652 8.8722 20.0741 8.35313 20.0741ZM16.1177 20.0741C15.5986 20.0741 15.1765 19.652 15.1765 19.133C15.1765 18.6139 15.5986 18.1918 16.1177 18.1918C16.6367 18.1918 17.0588 18.6139 17.0588 19.133C17.0588 19.652 16.6367 20.0741 16.1177 20.0741Z" fill="white"/>
</svg>
