<svg width="29" height="29" viewBox="0 0 29 29" fill="none" xmlns="http://www.w3.org/2000/svg">
<path d="M14.2507 28.248C21.9823 28.248 28.25 21.9804 28.25 14.2488C28.25 6.51721 21.9823 0.249267 14.2507 0.249267C6.51917 0.249267 0.25122 6.51721 0.25122 14.2488C0.259948 21.9768 6.52245 28.2394 14.2507 28.248ZM14.2507 1.64938C21.2092 1.64938 26.8502 7.29024 26.8502 14.2488C26.8502 21.2073 21.2092 26.8482 14.2507 26.8482C7.29219 26.8482 1.65133 21.2073 1.65133 14.2488C1.65927 7.29365 7.2956 1.65732 14.2507 1.64938Z" fill="black"/>
<path d="M15.8897 19.6746C16.1809 19.9292 16.623 19.8994 16.8776 19.6084C17.1319 19.3172 17.1021 18.8751 16.8112 18.6205L11.8137 14.248L16.8114 9.8751C17.1027 9.62056 17.1321 9.17839 16.8778 8.88749C16.6233 8.59626 16.1811 8.56653 15.8899 8.82108L10.2903 13.7209C10.2151 13.7867 10.1549 13.8677 10.1136 13.9586C10.0724 14.0495 10.051 14.1482 10.051 14.248C10.051 14.3478 10.0724 14.4465 10.1136 14.5374C10.1549 14.6283 10.2151 14.7093 10.2903 14.775L15.8897 19.6746Z" fill="black"/>
</svg>
