<svg width="21" height="20" viewBox="0 0 21 20" fill="none" xmlns="http://www.w3.org/2000/svg">
<g clip-path="url(#clip0_1056_310)">
<path fill-rule="evenodd" clip-rule="evenodd" d="M18.7151 10.2013H19.5922C19.665 10.2013 19.7348 10.2288 19.7863 10.2777C19.8377 10.3266 19.8667 10.3929 19.8667 10.4621V19.3892C19.8667 19.4584 19.8377 19.5247 19.7863 19.5736C19.7348 19.6225 19.665 19.65 19.5922 19.65H1.41513C1.34233 19.65 1.27251 19.6225 1.22103 19.5736C1.16955 19.5247 1.14063 19.4584 1.14062 19.3892V10.4621C1.14062 10.3929 1.16955 10.3266 1.22103 10.2777C1.27251 10.2288 1.34233 10.2013 1.41513 10.2013H2.78713C2.70366 10.0546 2.66008 9.89039 2.66035 9.72363V9.07875H2.3829C2.23141 9.07875 2.10839 8.96188 2.10839 8.81797C2.10839 8.67401 2.23141 8.55718 2.3829 8.55718H2.66035V8.52235C2.66035 8.45318 2.68927 8.38685 2.74075 8.33795C2.79223 8.28904 2.86206 8.26156 2.93486 8.26156H5.78306C5.85586 8.26156 5.92568 8.28904 5.97716 8.33795C6.02864 8.38685 6.05757 8.45318 6.05757 8.52235V8.55718H6.33502C6.48651 8.55718 6.60953 8.67401 6.60953 8.81797C6.60953 8.96188 6.48651 9.07875 6.33502 9.07875H6.05757V9.73451C6.05758 9.8971 6.0161 10.0573 5.93666 10.2013H18.1661V7.93227C18.1661 7.76775 18.0255 7.63423 17.8523 7.63423C17.6792 7.63423 17.5386 7.76775 17.5386 7.93227V8.35262C17.5386 8.49653 17.4156 8.6134 17.2641 8.6134C17.1126 8.6134 16.9896 8.49653 16.9896 8.35262V7.93227C16.9896 7.47992 17.3762 7.11266 17.8523 7.11266C18.3285 7.11266 18.7151 7.47992 18.7151 7.93227V10.2013ZM7.19964 10.7228H1.68964V12.999H7.19964V10.7228ZM1.68964 13.5206V19.1284H7.19964V13.5206H5.72549C5.61325 13.9616 5.19506 14.2892 4.69631 14.2892H4.02161C3.5229 14.2892 3.1047 13.9616 2.99243 13.5206H1.68964ZM7.74866 19.1284H13.2586V15.1864H7.74866V19.1284ZM13.8076 19.1284H19.3176V10.7228H13.8076V19.1284ZM3.20937 8.78313V9.72363C3.20937 9.96352 3.3931 10.163 3.63462 10.2013H5.13462C5.24214 10.1731 5.33694 10.1121 5.40448 10.0278C5.47203 9.94351 5.50859 9.84047 5.50855 9.73451V8.78313H3.20937ZM13.2586 10.7228H7.74866V14.6649H13.2586V10.7228ZM5.14082 13.5206H3.5771C3.62142 13.5955 3.68596 13.6579 3.76409 13.7014C3.84221 13.7448 3.9311 13.7676 4.02161 13.7676H4.69631C4.88713 13.7676 5.05345 13.668 5.14082 13.5206ZM9.66321 11.5066C9.51172 11.5066 9.3887 11.3898 9.3887 11.2458C9.3887 11.1019 9.51172 10.985 9.66321 10.985H11.3441C11.4956 10.985 11.6186 11.1019 11.6186 11.2458C11.6186 11.3898 11.4956 11.5066 11.3441 11.5066H9.66321ZM9.66321 15.9777C9.51172 15.9777 9.3887 15.8609 9.3887 15.7169C9.3887 15.573 9.51172 15.4562 9.66321 15.4562H11.3441C11.4956 15.4562 11.6186 15.573 11.6186 15.7169C11.6186 15.8609 11.4956 15.9777 11.3441 15.9777H9.66321ZM6.13894 11.5815C6.35537 11.5815 6.5311 11.7485 6.5311 11.9541C6.5311 12.1597 6.35537 12.3266 6.13894 12.3266C5.92251 12.3266 5.74678 12.1597 5.74678 11.9541C5.74678 11.7485 5.92251 11.5815 6.13894 11.5815ZM2.77506 11.5815C2.99149 11.5815 3.16721 11.7485 3.16721 11.9541C3.16721 12.1597 2.99149 12.3266 2.77506 12.3266C2.55862 12.3266 2.3829 12.1597 2.3829 11.9541C2.3829 11.7485 2.55862 11.5815 2.77506 11.5815ZM4.45702 11.5815C4.67345 11.5815 4.84917 11.7485 4.84917 11.9541C4.84917 12.1597 4.67345 12.3266 4.45702 12.3266C4.24055 12.3266 4.06486 12.1597 4.06486 11.9541C4.06486 11.7485 4.24055 11.5815 4.45702 11.5815ZM14.6873 15.7241C14.6873 15.868 14.5643 15.9848 14.4128 15.9848C14.2613 15.9848 14.1383 15.868 14.1383 15.7241V14.1272C14.1383 13.9833 14.2613 13.8665 14.4128 13.8665C14.5643 13.8665 14.6873 13.9833 14.6873 14.1272V15.7241ZM19.8667 1.50688V2.4086C19.8667 2.47776 19.8377 2.54409 19.7863 2.593C19.7348 2.6419 19.665 2.66938 19.5922 2.66938H1.41513C1.34233 2.66938 1.27251 2.6419 1.22103 2.593C1.16955 2.54409 1.14063 2.47776 1.14062 2.4086V1.50688C1.14062 1.43771 1.16955 1.37138 1.22103 1.32248C1.27251 1.27357 1.34233 1.24609 1.41513 1.24609H19.5922C19.665 1.24609 19.7348 1.27357 19.7863 1.32248C19.8377 1.37138 19.8667 1.43771 19.8667 1.50688ZM19.3176 1.76766H1.68964V2.14781H19.3176V1.76766Z" fill="black"/>
</g>
<defs>
<clipPath id="clip0_1056_310">
<rect width="20" height="19" fill="white" transform="translate(0.5 0.949219)"/>
</clipPath>
</defs>
</svg>
