<svg width="7" height="7" viewBox="0 0 7 7" fill="none" xmlns="http://www.w3.org/2000/svg">
<path fill-rule="evenodd" clip-rule="evenodd" d="M0.125414 5.76168C0.0451127 5.84198 0 5.9509 0 6.06446C0 6.17802 0.0451127 6.28693 0.125414 6.36724C0.205715 6.44754 0.314627 6.49265 0.42819 6.49265C0.541753 6.49265 0.650665 6.44754 0.730966 6.36724L3.12108 3.97627L5.51162 6.36681C5.59233 6.44476 5.70044 6.4879 5.81264 6.48692C5.92485 6.48595 6.03219 6.44094 6.11153 6.36159C6.19088 6.28225 6.23589 6.17491 6.23686 6.06271C6.23783 5.9505 6.1947 5.8424 6.11674 5.76168L3.7262 3.37114L6.11674 0.980601C6.19699 0.9003 6.24205 0.791411 6.24201 0.677888C6.24197 0.564365 6.19683 0.455507 6.11653 0.375263C6.03623 0.295018 5.92734 0.24996 5.81382 0.25C5.70029 0.25004 5.59144 0.295175 5.51119 0.375477L3.12108 2.76602L0.730538 0.375477C0.649826 0.297522 0.541724 0.254387 0.429516 0.255362C0.317309 0.256337 0.209973 0.301344 0.130627 0.38069C0.0512812 0.460035 0.00627397 0.567371 0.00529892 0.679579C0.00432386 0.791787 0.047459 0.899888 0.125414 0.980601L2.51596 3.37114L0.125414 5.76168Z" fill="#545959"/>
</svg>
