<svg width="8" height="7" viewBox="0 0 8 7" fill="none" xmlns="http://www.w3.org/2000/svg">
<path d="M3.60809 3.50051L0.881984 0.774354C0.704592 0.597026 0.704592 0.310303 0.881984 0.132996C1.05931 -0.044332 1.34604 -0.044332 1.52334 0.132996L4.24952 2.85913L6.97558 0.132996C7.153 -0.044332 7.43961 -0.044332 7.61694 0.132996C7.79435 0.310324 7.79435 0.597026 7.61694 0.774354L4.89089 3.50051L7.61692 6.22664C7.79433 6.40397 7.79433 6.69069 7.61692 6.868C7.57486 6.91018 7.52487 6.94363 7.46984 6.96644C7.41481 6.98924 7.35581 7.00095 7.29624 7.00089C7.18015 7.00089 7.06401 6.95645 6.97556 6.868L4.24952 4.14186L1.52334 6.868C1.48127 6.91017 1.43129 6.94362 1.37626 6.96643C1.32123 6.98923 1.26223 7.00094 1.20266 7.00089C1.08657 7.00089 0.970436 6.95645 0.881984 6.868C0.704592 6.69067 0.704592 6.40397 0.881984 6.22664L3.60809 3.50051Z" fill="white"/>
</svg>
