<svg width="21" height="21" viewBox="0 0 21 21" fill="none" xmlns="http://www.w3.org/2000/svg">
<path d="M19.2457 2.53944H17.5461V1.85963C17.5461 1.49903 17.4029 1.15321 17.1479 0.898226C16.8929 0.643246 16.5471 0.5 16.1865 0.5C15.8259 0.5 15.4801 0.643246 15.2251 0.898226C14.9701 1.15321 14.8269 1.49903 14.8269 1.85963V2.53944H12.1076V1.85963C12.1076 1.49903 11.9644 1.15321 11.7094 0.898226C11.4544 0.643246 11.1086 0.5 10.748 0.5C10.3874 0.5 10.0416 0.643246 9.78659 0.898226C9.53161 1.15321 9.38837 1.49903 9.38837 1.85963V2.53944H6.66911V1.85963C6.66911 1.49903 6.52586 1.15321 6.27088 0.898226C6.0159 0.643246 5.67008 0.5 5.30948 0.5C4.94888 0.5 4.60306 0.643246 4.34808 0.898226C4.0931 1.15321 3.94985 1.49903 3.94985 1.85963V2.53944H2.25032C1.79957 2.53944 1.36729 2.7185 1.04856 3.03723C0.729839 3.35595 0.550781 3.78823 0.550781 4.23898V17.8353C0.550781 18.286 0.729839 18.7183 1.04856 19.037C1.36729 19.3557 1.79957 19.5348 2.25032 19.5348H11.7677C11.8579 19.5348 11.9443 19.499 12.0081 19.4352C12.0718 19.3715 12.1076 19.285 12.1076 19.1949C12.1076 19.1047 12.0718 19.0183 12.0081 18.9545C11.9443 18.8908 11.8579 18.855 11.7677 18.855H2.25032C1.98012 18.8542 1.72122 18.7465 1.53016 18.5554C1.3391 18.3644 1.2314 18.1055 1.2306 17.8353V7.29814H20.2654V13.0766C20.2654 13.1667 20.3012 13.2532 20.365 13.3169C20.4287 13.3807 20.5152 13.4165 20.6053 13.4165C20.6954 13.4165 20.7819 13.3807 20.8457 13.3169C20.9094 13.2532 20.9452 13.1667 20.9452 13.0766V4.23898C20.9452 3.78823 20.7661 3.35595 20.4474 3.03723C20.1287 2.7185 19.6964 2.53944 19.2457 2.53944ZM15.5067 1.85963C15.5067 1.67933 15.5783 1.50642 15.7058 1.37893C15.8333 1.25144 16.0062 1.17981 16.1865 1.17981C16.3668 1.17981 16.5397 1.25144 16.6672 1.37893C16.7947 1.50642 16.8663 1.67933 16.8663 1.85963V3.89907C16.8663 4.07937 16.7947 4.25228 16.6672 4.37977C16.5397 4.50726 16.3668 4.57889 16.1865 4.57889C16.0062 4.57889 15.8333 4.50726 15.7058 4.37977C15.5783 4.25228 15.5067 4.07937 15.5067 3.89907V1.85963ZM10.0682 1.85963C10.0682 1.67933 10.1398 1.50642 10.2673 1.37893C10.3948 1.25144 10.5677 1.17981 10.748 1.17981C10.9283 1.17981 11.1012 1.25144 11.2287 1.37893C11.3562 1.50642 11.4278 1.67933 11.4278 1.85963V3.89907C11.4278 4.07937 11.3562 4.25228 11.2287 4.37977C11.1012 4.50726 10.9283 4.57889 10.748 4.57889C10.5677 4.57889 10.3948 4.50726 10.2673 4.37977C10.1398 4.25228 10.0682 4.07937 10.0682 3.89907V1.85963ZM4.62967 1.85963C4.62967 1.67933 4.70129 1.50642 4.82878 1.37893C4.95627 1.25144 5.12918 1.17981 5.30948 1.17981C5.48978 1.17981 5.66269 1.25144 5.79018 1.37893C5.91767 1.50642 5.9893 1.67933 5.9893 1.85963V3.89907C5.9893 4.07937 5.91767 4.25228 5.79018 4.37977C5.66269 4.50726 5.48978 4.57889 5.30948 4.57889C5.12918 4.57889 4.95627 4.50726 4.82878 4.37977C4.70129 4.25228 4.62967 4.07937 4.62967 3.89907V1.85963ZM20.2654 6.61833H1.2306V4.23898C1.2314 3.96878 1.3391 3.70988 1.53016 3.51882C1.72122 3.32776 1.98012 3.22006 2.25032 3.21926H3.94985V3.89907C3.94985 4.25967 4.0931 4.60549 4.34808 4.86047C4.60306 5.11545 4.94888 5.2587 5.30948 5.2587C5.67008 5.2587 6.0159 5.11545 6.27088 4.86047C6.52586 4.60549 6.66911 4.25967 6.66911 3.89907V3.21926H9.38837V3.89907C9.38837 4.25967 9.53161 4.60549 9.78659 4.86047C10.0416 5.11545 10.3874 5.2587 10.748 5.2587C11.1086 5.2587 11.4544 5.11545 11.7094 4.86047C11.9644 4.60549 12.1076 4.25967 12.1076 3.89907V3.21926H14.8269V3.89907C14.8269 4.25967 14.9701 4.60549 15.2251 4.86047C15.4801 5.11545 15.8259 5.2587 16.1865 5.2587C16.5471 5.2587 16.8929 5.11545 17.1479 4.86047C17.4029 4.60549 17.5461 4.25967 17.5461 3.89907V3.21926H19.2457C19.5159 3.22006 19.7748 3.32776 19.9658 3.51882C20.1569 3.70988 20.2646 3.96878 20.2654 4.23898V6.61833Z" fill="black"/>
<path d="M10.0677 9.67591C10.0677 9.49561 9.99605 9.3227 9.86856 9.19521C9.74107 9.06772 9.56816 8.99609 9.38786 8.99609H8.02823C7.84793 8.99609 7.67502 9.06772 7.54753 9.19521C7.42004 9.3227 7.34842 9.49561 7.34842 9.67591V10.6956C7.34842 10.8759 7.42004 11.0488 7.54753 11.1763C7.67502 11.3038 7.84793 11.3754 8.02823 11.3754H9.38786C9.56816 11.3754 9.74107 11.3038 9.86856 11.1763C9.99605 11.0488 10.0677 10.8759 10.0677 10.6956V9.67591ZM8.02823 10.6956V9.67591H9.38786V10.6956H8.02823ZM5.98879 9.67591C5.98879 9.49561 5.91716 9.3227 5.78967 9.19521C5.66218 9.06772 5.48927 8.99609 5.30897 8.99609H3.94935C3.76905 8.99609 3.59613 9.06772 3.46864 9.19521C3.34115 9.3227 3.26953 9.49561 3.26953 9.67591V10.6956C3.26953 10.8759 3.34115 11.0488 3.46864 11.1763C3.59613 11.3038 3.76905 11.3754 3.94935 11.3754H5.30897C5.48927 11.3754 5.66218 11.3038 5.78967 11.1763C5.91716 11.0488 5.98879 10.8759 5.98879 10.6956V9.67591ZM3.94935 10.6956V9.67591H5.30897V10.6956H3.94935ZM17.5456 11.3754C17.7259 11.3754 17.8988 11.3038 18.0263 11.1763C18.1538 11.0488 18.2254 10.8759 18.2254 10.6956V9.67591C18.2254 9.49561 18.1538 9.3227 18.0263 9.19521C17.8988 9.06772 17.7259 8.99609 17.5456 8.99609H16.186C16.0057 8.99609 15.8328 9.06772 15.7053 9.19521C15.5778 9.3227 15.5062 9.49561 15.5062 9.67591V10.6956C15.5062 10.8759 15.5778 11.0488 15.7053 11.1763C15.8328 11.3038 16.0057 11.3754 16.186 11.3754H17.5456ZM16.186 9.67591H17.5456V10.6956H16.186V9.67591ZM10.0677 12.7351C10.0677 12.5548 9.99605 12.3819 9.86856 12.2544C9.74107 12.1269 9.56816 12.0553 9.38786 12.0553H8.02823C7.84793 12.0553 7.67502 12.1269 7.54753 12.2544C7.42004 12.3819 7.34842 12.5548 7.34842 12.7351V13.7548C7.34842 13.9351 7.42004 14.108 7.54753 14.2355C7.67502 14.363 7.84793 14.4346 8.02823 14.4346H9.38786C9.56816 14.4346 9.74107 14.363 9.86856 14.2355C9.99605 14.108 10.0677 13.9351 10.0677 13.7548V12.7351ZM8.02823 13.7548V12.7351H9.38786V13.7548H8.02823ZM5.98879 12.7351C5.98879 12.5548 5.91716 12.3819 5.78967 12.2544C5.66218 12.1269 5.48927 12.0553 5.30897 12.0553H3.94935C3.76905 12.0553 3.59613 12.1269 3.46864 12.2544C3.34115 12.3819 3.26953 12.5548 3.26953 12.7351V13.7548C3.26953 13.9351 3.34115 14.108 3.46864 14.2355C3.59613 14.363 3.76905 14.4346 3.94935 14.4346H5.30897C5.48927 14.4346 5.66218 14.363 5.78967 14.2355C5.91716 14.108 5.98879 13.9351 5.98879 13.7548V12.7351ZM3.94935 13.7548V12.7351H5.30897V13.7548H3.94935ZM9.38786 15.1144H8.02823C7.84793 15.1144 7.67502 15.186 7.54753 15.3135C7.42004 15.441 7.34842 15.6139 7.34842 15.7942V16.814C7.34842 16.9943 7.42004 17.1672 7.54753 17.2947C7.67502 17.4221 7.84793 17.4938 8.02823 17.4938H9.38786C9.56816 17.4938 9.74107 17.4221 9.86856 17.2947C9.99605 17.1672 10.0677 16.9943 10.0677 16.814V15.7942C10.0677 15.6139 9.99605 15.441 9.86856 15.3135C9.74107 15.186 9.56816 15.1144 9.38786 15.1144ZM8.02823 16.814V15.7942H9.38786V16.814H8.02823ZM12.1071 11.3754H13.4667C13.647 11.3754 13.82 11.3038 13.9474 11.1763C14.0749 11.0488 14.1466 10.8759 14.1466 10.6956V9.67591C14.1466 9.49561 14.0749 9.3227 13.9474 9.19521C13.82 9.06772 13.647 8.99609 13.4667 8.99609H12.1071C11.9268 8.99609 11.7539 9.06772 11.6264 9.19521C11.4989 9.3227 11.4273 9.49561 11.4273 9.67591V10.6956C11.4273 10.8759 11.4989 11.0488 11.6264 11.1763C11.7539 11.3038 11.9268 11.3754 12.1071 11.3754ZM12.1071 9.67591H13.4667V10.6956H12.1071V9.67591ZM11.4273 13.7548C11.4273 13.9351 11.4989 14.108 11.6264 14.2355C11.7539 14.363 11.9268 14.4346 12.1071 14.4346C12.1973 14.4346 12.2837 14.3988 12.3475 14.3351C12.4112 14.2713 12.447 14.1848 12.447 14.0947C12.447 14.0046 12.4112 13.9181 12.3475 13.8543C12.2837 13.7906 12.1973 13.7548 12.1071 13.7548V12.7351H13.4667C13.5569 12.7351 13.6433 12.6993 13.7071 12.6355C13.7708 12.5718 13.8067 12.4853 13.8067 12.3952C13.8067 12.305 13.7708 12.2186 13.7071 12.1548C13.6433 12.0911 13.5569 12.0553 13.4667 12.0553H12.1071C11.9268 12.0553 11.7539 12.1269 11.6264 12.2544C11.4989 12.3819 11.4273 12.5548 11.4273 12.7351V13.7548ZM5.30897 15.1144H3.94935C3.76905 15.1144 3.59613 15.186 3.46864 15.3135C3.34115 15.441 3.26953 15.6139 3.26953 15.7942V16.814C3.26953 16.9943 3.34115 17.1672 3.46864 17.2947C3.59613 17.4221 3.76905 17.4938 3.94935 17.4938H5.30897C5.48927 17.4938 5.66218 17.4221 5.78967 17.2947C5.91716 17.1672 5.98879 16.9943 5.98879 16.814V15.7942C5.98879 15.6139 5.91716 15.441 5.78967 15.3135C5.66218 15.186 5.48927 15.1144 5.30897 15.1144ZM3.94935 16.814V15.7942H5.30897V16.814H3.94935Z" fill="black"/>
<path d="M16.5282 12.0586C15.6542 12.0586 14.7999 12.3178 14.0732 12.8033C13.3466 13.2888 12.7802 13.979 12.4457 14.7864C12.1113 15.5938 12.0238 16.4823 12.1943 17.3394C12.3648 18.1966 12.7856 18.984 13.4036 19.6019C14.0216 20.2199 14.8089 20.6408 15.6661 20.8113C16.5233 20.9818 17.4117 20.8943 18.2192 20.5598C19.0266 20.2254 19.7167 19.659 20.2023 18.9323C20.6878 18.2057 20.947 17.3513 20.947 16.4774C20.9456 15.3059 20.4796 14.1827 19.6512 13.3543C18.8228 12.5259 17.6997 12.0599 16.5282 12.0586ZM16.5282 20.2164C15.7887 20.2164 15.0658 19.9971 14.4509 19.5862C13.836 19.1754 13.3568 18.5914 13.0738 17.9082C12.7908 17.225 12.7168 16.4732 12.861 15.7479C13.0053 15.0227 13.3614 14.3564 13.8843 13.8335C14.4072 13.3106 15.0734 12.9545 15.7987 12.8103C16.524 12.666 17.2758 12.74 17.959 13.023C18.6422 13.306 19.2262 13.7852 19.637 14.4001C20.0479 15.015 20.2671 15.7379 20.2671 16.4774C20.266 17.4687 19.8717 18.419 19.1707 19.12C18.4698 19.8209 17.5194 20.2152 16.5282 20.2164Z" fill="black"/>
<path d="M18.4878 15.0485L15.844 17.6923L14.6425 16.4904C14.5783 16.4285 14.4925 16.3942 14.4034 16.395C14.3142 16.3958 14.229 16.4315 14.166 16.4946C14.1029 16.5576 14.0672 16.6428 14.0664 16.732C14.0656 16.8211 14.0999 16.9069 14.1618 16.9711L15.6037 18.4133C15.6675 18.477 15.7539 18.5128 15.844 18.5128C15.9342 18.5128 16.0206 18.477 16.0843 18.4133L18.9684 15.5292C19.0304 15.4651 19.0646 15.3792 19.0639 15.2901C19.0631 15.201 19.0273 15.1157 18.9643 15.0527C18.9013 14.9897 18.816 14.9539 18.7269 14.9531C18.6378 14.9524 18.5519 14.9866 18.4878 15.0485Z" fill="black"/>
</svg>
