<svg width="15" height="8" viewBox="0 0 15 8" fill="none" xmlns="http://www.w3.org/2000/svg">
<path d="M7.12503 7.81803C7.04145 7.81812 6.95868 7.80169 6.88147 7.76969C6.80426 7.7377 6.73414 7.69076 6.67512 7.63158L0.311494 1.26795C0.0628353 1.01929 0.0628353 0.616634 0.311494 0.368135C0.560153 0.119635 0.962811 0.119476 1.21131 0.368135L7.12503 6.28185L13.0387 0.368135C13.2874 0.119476 13.6901 0.119476 13.9386 0.368135C14.1871 0.616793 14.1872 1.01945 13.9386 1.26795L7.57494 7.63158C7.51592 7.69076 7.4458 7.7377 7.36859 7.76969C7.29138 7.80169 7.20861 7.81812 7.12503 7.81803Z" fill="white"/>
</svg>
