<svg width="16" height="16" viewBox="0 0 16 16" fill="none" xmlns="http://www.w3.org/2000/svg">
<path d="M3.23149 12.3389H3.30926L5.3807 12.1481C5.67056 12.1198 5.93921 11.9925 6.14423 11.7875L13.9634 3.96834C14.331 3.60071 14.536 3.1129 14.536 2.59681C14.536 2.08071 14.331 1.5929 13.9634 1.22527L13.4614 0.723317C12.7262 -0.0119389 11.4466 -0.0119389 10.7113 0.723317L9.71447 1.72015L2.89921 8.53541C2.69419 8.74043 2.56693 9.00908 2.54572 9.29894L2.35484 11.3704C2.33363 11.632 2.42553 11.8865 2.60935 12.0774C2.77902 12.247 2.99819 12.3389 3.23149 12.3389ZM12.0899 1.21113C12.3161 1.21113 12.5424 1.29597 12.712 1.47271L13.214 1.97467C13.2966 2.05586 13.3622 2.15269 13.407 2.25951C13.4518 2.36632 13.4748 2.48098 13.4748 2.59681C13.4748 2.71263 13.4518 2.82729 13.407 2.9341C13.3622 3.04092 13.2966 3.13775 13.214 3.21894L12.5919 3.84108L10.8456 2.09485L11.4678 1.47271C11.6374 1.30304 11.8637 1.21113 12.0899 1.21113ZM3.59912 9.39792C3.59912 9.3555 3.62033 9.32015 3.6486 9.29187L10.0892 2.84425L11.8354 4.59048L5.39484 11.031C5.39484 11.031 5.32414 11.0805 5.28879 11.0805L3.42944 11.2502L3.59912 9.39085V9.39792ZM15.95 14.5942C15.95 14.8841 15.7096 15.1244 15.4198 15.1244H1.28023C0.990372 15.1244 0.75 14.8841 0.75 14.5942C0.75 14.3043 0.990372 14.064 1.28023 14.064H15.4198C15.7096 14.064 15.95 14.3043 15.95 14.5942Z" fill="black"/>
</svg>
