<svg width="19" height="19" viewBox="0 0 19 19" fill="none" xmlns="http://www.w3.org/2000/svg">
<path fill-rule="evenodd" clip-rule="evenodd" d="M17.8593 4.49025C16.0775 6.27206 11.8954 10.4534 10.8754 11.47C10.657 11.6881 10.3971 11.8602 10.111 11.9762C9.29304 12.3156 7.29751 13.0984 6.71084 13.1378C6.5379 13.1495 6.36447 13.124 6.2022 13.063C6.03993 13.0021 5.89257 12.9072 5.77 12.7846C5.64744 12.6621 5.55251 12.5147 5.49159 12.3524C5.43068 12.1902 5.40517 12.0167 5.4168 11.8438C5.45619 11.2571 6.23898 9.26326 6.57255 8.44862C6.68904 8.15948 6.86253 7.89715 7.08295 7.67757L14.0644 0.695305C14.4027 0.357624 14.8611 0.167969 15.3391 0.167969C15.8171 0.167969 16.2756 0.357624 16.6139 0.695305L17.8593 1.94073C18.197 2.27903 18.3867 2.7375 18.3867 3.21549C18.3867 3.69348 18.197 4.15195 17.8593 4.49025ZM6.67647 11.8782C7.24974 11.8061 8.92511 11.1071 9.62912 10.8146C9.76293 10.762 9.88446 10.6824 9.98615 10.5808L9.98699 10.5799C12.3163 8.25522 14.644 5.92891 16.9701 3.60102C17.0208 3.55042 17.061 3.49032 17.0884 3.42417C17.1158 3.35802 17.13 3.28711 17.13 3.21549C17.13 3.14387 17.1158 3.07296 17.0884 3.00681C17.061 2.94065 17.0208 2.88056 16.9701 2.82996L15.7247 1.58454C15.6741 1.53385 15.614 1.49364 15.5478 1.46621C15.4817 1.43878 15.4108 1.42466 15.3391 1.42466C15.2675 1.42466 15.1966 1.43878 15.1305 1.46621C15.0643 1.49364 15.0042 1.53385 14.9536 1.58454L7.97135 8.5668C7.87082 8.66679 7.79181 8.78629 7.73919 8.91796L7.73752 8.92131C7.44837 9.627 6.74855 11.3041 6.67647 11.8782Z" fill="black"/>
<path fill-rule="evenodd" clip-rule="evenodd" d="M16.2019 5.26175C16.2603 5.32014 16.3066 5.38946 16.3382 5.46574C16.3698 5.54203 16.3861 5.6238 16.3861 5.70637C16.3861 5.78894 16.3698 5.87071 16.3382 5.94699C16.3066 6.02328 16.2603 6.0926 16.2019 6.15098C16.1435 6.20937 16.0742 6.25569 15.9979 6.28729C15.9216 6.31889 15.8399 6.33515 15.7573 6.33515C15.6747 6.33515 15.5929 6.31889 15.5167 6.28729C15.4404 6.25569 15.3711 6.20937 15.3127 6.15098L12.407 3.24527C12.289 3.12735 12.2228 2.96742 12.2228 2.80066C12.2228 2.63389 12.289 2.47396 12.407 2.35604C12.5249 2.23812 12.6848 2.17188 12.8516 2.17188C13.0183 2.17188 13.1783 2.23812 13.2962 2.35604L16.2019 5.26175ZM11.0718 10.3918C11.1302 10.4501 11.1765 10.5194 11.208 10.5956C11.2396 10.6718 11.2558 10.7535 11.2558 10.836C11.2558 10.9185 11.2396 11.0002 11.208 11.0764C11.1765 11.1526 11.1302 11.2219 11.0718 11.2802C11.0135 11.3385 10.9443 11.3848 10.868 11.4164C10.7918 11.4479 10.7101 11.4642 10.6277 11.4642C10.5452 11.4642 10.4635 11.4479 10.3873 11.4164C10.311 11.3848 10.2418 11.3385 10.1835 11.2802L7.27774 8.37448C7.21941 8.31615 7.17314 8.2469 7.14157 8.17068C7.11 8.09446 7.09375 8.01278 7.09375 7.93028C7.09375 7.84779 7.11 7.7661 7.14157 7.68989C7.17314 7.61367 7.21941 7.54442 7.27774 7.48609C7.33608 7.42775 7.40533 7.38148 7.48154 7.34991C7.55776 7.31834 7.63944 7.30209 7.72194 7.30209C7.80443 7.30209 7.88612 7.31834 7.96234 7.34991C8.03855 7.38148 8.1078 7.42775 8.16613 7.48609L11.0718 10.3918Z" fill="black"/>
<path fill-rule="evenodd" clip-rule="evenodd" d="M6.46299 1.82812C6.6297 1.82812 6.78958 1.89435 6.90746 2.01223C7.02534 2.13011 7.09157 2.28999 7.09157 2.4567C7.09157 2.62341 7.02534 2.7833 6.90746 2.90118C6.78958 3.01906 6.6297 3.08528 6.46299 3.08528H3.52962C3.02949 3.08528 2.54984 3.28396 2.1962 3.6376C1.84255 3.99125 1.64388 4.47089 1.64388 4.97102V15.0283C1.64388 15.5284 1.84255 16.0081 2.1962 16.3617C2.54984 16.7154 3.02949 16.914 3.52962 16.914H14.425C14.9251 16.914 15.4048 16.7154 15.7584 16.3617C16.1121 16.0081 16.3107 15.5284 16.3107 15.0283V12.0949C16.3107 11.9282 16.377 11.7683 16.4948 11.6504C16.6127 11.5326 16.7726 11.4663 16.9393 11.4663C17.106 11.4663 17.2659 11.5326 17.3838 11.6504C17.5017 11.7683 17.5679 11.9282 17.5679 12.0949V15.0283C17.5674 15.8617 17.2362 16.6609 16.6469 17.2502C16.0576 17.8395 15.2584 18.1707 14.425 18.1712H3.52962C2.6962 18.1707 1.89705 17.8395 1.30774 17.2502C0.718431 16.6609 0.387163 15.8617 0.386719 15.0283V4.97102C0.386719 4.13747 0.717844 3.33807 1.30725 2.74866C1.89666 2.15925 2.69607 1.82813 3.52962 1.82812H6.46299Z" fill="black"/>
</svg>
