<svg width="19" height="14" viewBox="0 0 19 14" fill="none" xmlns="http://www.w3.org/2000/svg">
<path d="M1.86792 13.0722H17.0143C17.5066 13.0716 17.9786 12.8758 18.3267 12.5276C18.6748 12.1795 18.8706 11.7075 18.8711 11.2151V1.86091C18.8706 1.36859 18.6748 0.896584 18.3267 0.548445C17.9786 0.200305 17.5066 0.00446987 17.0143 0.00390625H1.86792C1.3756 0.00446987 0.903612 0.200305 0.555506 0.548445C0.207399 0.896584 0.01161 1.36859 0.0110931 1.86091V11.2151C0.01161 11.7075 0.207399 12.1795 0.555506 12.5276C0.903612 12.8758 1.3756 13.0716 1.86792 13.0722ZM17.0143 0.713636C17.3184 0.713965 17.61 0.83495 17.8251 1.05004C18.0401 1.26513 18.1611 1.55675 18.1614 1.86091V11.2151C18.1611 11.5193 18.0401 11.8109 17.8251 12.026C17.61 12.2411 17.3184 12.3621 17.0143 12.3624H1.86792C1.56376 12.3621 1.27216 12.2411 1.0571 12.026C0.842045 11.8109 0.721104 11.5193 0.720823 11.2151V1.86091C0.721104 1.55675 0.842045 1.26513 1.0571 1.05004C1.27216 0.83495 1.56376 0.713965 1.86792 0.713636H17.0143Z" fill="black"/>
<path d="M9.4394 8.62353C9.5259 8.62358 9.60945 8.59203 9.67432 8.53482L18.2266 0.985422L17.7569 0.453125L9.4394 7.79599L1.12155 0.454012L0.651886 0.98631L9.20413 8.5357C9.26917 8.59276 9.35287 8.62401 9.4394 8.62353Z" fill="black"/>
<path d="M18.4219 11.9515L12.6766 5.40518L12.1427 5.8736L17.888 12.4198L18.4219 11.9515ZM6.72252 5.86686L6.1888 5.39844L0.443359 11.9445L0.977076 12.4129L6.72252 5.86686Z" fill="black"/>
</svg>
