<svg width="20" height="14" viewBox="0 0 20 14" fill="none" xmlns="http://www.w3.org/2000/svg">
<path d="M1.23083 0.234375H18.7702C19.3215 0.234375 19.7725 0.685373 19.7725 1.23661V12.2614C19.7725 12.8126 19.3215 13.2637 18.7702 13.2637H1.23079C0.67959 13.2637 0.228516 12.8127 0.228516 12.2614V1.23661C0.228554 0.685373 0.679552 0.234375 1.23083 0.234375ZM1.60693 0.986014L9.42396 6.84926C9.56451 6.95622 9.78026 7.02313 10.0005 7.02214C10.2208 7.02313 10.4365 6.95622 10.5771 6.84926L18.3941 0.986014H1.60693ZM5.78254 7.23613L1.52296 12.498C1.51868 12.5033 1.51345 12.5073 1.50891 12.512H18.4921C18.4876 12.507 18.4823 12.5033 18.4781 12.498L14.2185 7.23613C14.1874 7.19775 14.1642 7.15363 14.1502 7.10628C14.1362 7.05894 14.1317 7.00929 14.1369 6.9602C14.1421 6.9111 14.1569 6.8635 14.1805 6.82013C14.2041 6.77675 14.236 6.73845 14.2744 6.70742C14.4357 6.57691 14.6723 6.60164 14.8028 6.76303L19.0208 11.9735V1.45583L11.0279 7.45054C10.7274 7.6743 10.3619 7.77279 10.0006 7.77378C9.63978 7.77302 9.27395 7.67453 8.97331 7.45054L0.980385 1.45583V11.9734L5.19824 6.76303C5.32879 6.60168 5.56557 6.57687 5.72669 6.70742C5.88831 6.83792 5.91312 7.07478 5.78254 7.23613Z" fill="black"/>
</svg>
