<svg width="14" height="14" viewBox="0 0 14 14" fill="none" xmlns="http://www.w3.org/2000/svg">
<circle cx="7" cy="7" r="6.5" stroke="#C4C4C4"/>
<path d="M7.5381 5.412V11H6.4656V5.412H7.5381ZM7.7416 3.685C7.7416 3.784 7.72143 3.87933 7.6811 3.971C7.64076 4.059 7.58576 4.13783 7.5161 4.2075C7.4501 4.2735 7.37126 4.32667 7.2796 4.367C7.18793 4.40367 7.0926 4.422 6.9936 4.422C6.8946 4.422 6.8011 4.40367 6.7131 4.367C6.6251 4.32667 6.54626 4.2735 6.4766 4.2075C6.4106 4.13783 6.35743 4.059 6.3171 3.971C6.28043 3.87933 6.2621 3.784 6.2621 3.685C6.2621 3.58233 6.28043 3.487 6.3171 3.399C6.35743 3.30733 6.4106 3.2285 6.4766 3.1625C6.54626 3.09283 6.6251 3.03967 6.7131 3.003C6.8011 2.96267 6.8946 2.9425 6.9936 2.9425C7.0926 2.9425 7.18793 2.96267 7.2796 3.003C7.37126 3.03967 7.4501 3.09283 7.5161 3.1625C7.58576 3.2285 7.64076 3.30733 7.6811 3.399C7.72143 3.487 7.7416 3.58233 7.7416 3.685Z" fill="#C4C4C4"/>
</svg>
