<svg width="23" height="23" viewBox="0 0 23 23" fill="none" xmlns="http://www.w3.org/2000/svg">
<path d="M22.7793 11.5625C22.7793 17.1778 18.6651 21.8321 13.2871 22.6758V14.8145H15.9084L16.4072 11.5625H13.2871V9.45225C13.2871 8.56235 13.723 7.69531 15.1205 7.69531H16.5391V4.92676C16.5391 4.92676 15.2515 4.70703 14.0206 4.70703C11.4511 4.70703 9.77148 6.26445 9.77148 9.08398V11.5625H6.91504V14.8145H9.77148V22.6758C4.39346 21.8321 0.279297 17.1778 0.279297 11.5625C0.279297 5.34951 5.31631 0.3125 11.5293 0.3125C17.7423 0.3125 22.7793 5.34951 22.7793 11.5625Z" fill="#1877F2"/>
<path d="M15.9075 14.8145L16.4062 11.5625H13.2861V9.4522C13.2861 8.56253 13.722 7.69531 15.1195 7.69531H16.5381V4.92676C16.5381 4.92676 15.2507 4.70703 14.0198 4.70703C11.4501 4.70703 9.77051 6.26445 9.77051 9.08398V11.5625H6.91406V14.8145H9.77051V22.6758C10.3433 22.7657 10.9303 22.8125 11.5283 22.8125C12.1263 22.8125 12.7133 22.7657 13.2861 22.6758V14.8145H15.9075Z" fill="white"/>
</svg>
