<svg width="11" height="11" viewBox="0 0 11 11" fill="none" xmlns="http://www.w3.org/2000/svg">
<path d="M0.709153 2.55182H5.55885C5.70501 3.21712 6.29915 3.71659 7.00771 3.71659C7.71628 3.71659 8.31041 3.21714 8.45658 2.55182H10.265C10.4409 2.55182 10.5835 2.40919 10.5835 2.23329C10.5835 2.05738 10.4409 1.91476 10.265 1.91476H8.45642C8.30998 1.24979 7.71502 0.75 7.00771 0.75C6.30002 0.75 5.70535 1.24971 5.55897 1.91476H0.709153C0.533246 1.91476 0.390625 2.05738 0.390625 2.23329C0.390625 2.40919 0.533246 2.55182 0.709153 2.55182ZM6.1615 2.23412L6.16152 2.2307C6.16291 1.76551 6.5425 1.38708 7.00771 1.38708C7.47227 1.38708 7.85187 1.76499 7.85388 2.22996L7.85394 2.23464C7.85321 2.70063 7.47388 3.07956 7.00771 3.07956C6.54174 3.07956 6.16254 2.70101 6.16148 2.2353L6.1615 2.23412ZM10.265 9.15094H8.45642C8.30996 8.486 7.71502 7.98619 7.00771 7.98619C6.30002 7.98619 5.70535 8.48592 5.55897 9.15094H0.709153C0.533246 9.15094 0.390625 9.29355 0.390625 9.46947C0.390625 9.6454 0.533246 9.788 0.709153 9.788H5.55885C5.70501 10.4533 6.29915 10.9528 7.00771 10.9528C7.71628 10.9528 8.31041 10.4533 8.45658 9.788H10.265C10.4409 9.788 10.5835 9.6454 10.5835 9.46947C10.5835 9.29355 10.4409 9.15094 10.265 9.15094ZM7.00771 10.3157C6.54174 10.3157 6.16254 9.93717 6.16148 9.47146L6.1615 9.47031L6.16152 9.46689C6.16291 9.00169 6.5425 8.62324 7.00771 8.62324C7.47227 8.62324 7.85187 9.00116 7.85388 9.46611L7.85394 9.47079C7.85327 9.93683 7.47392 10.3157 7.00771 10.3157ZM10.265 5.53286H5.41531C5.26914 4.86756 4.67501 4.3681 3.96644 4.3681C3.25788 4.3681 2.66374 4.86756 2.51758 5.53286H0.709153C0.533246 5.53286 0.390625 5.67548 0.390625 5.85139C0.390625 6.02732 0.533246 6.16992 0.709153 6.16992H2.51774C2.6642 6.83487 3.25913 7.33468 3.96644 7.33468C4.67413 7.33468 5.26881 6.83495 5.41519 6.16992H10.265C10.4409 6.16992 10.5835 6.02732 10.5835 5.85139C10.5835 5.67548 10.4409 5.53286 10.265 5.53286ZM4.81265 5.85055L4.81263 5.85398C4.81124 6.31917 4.43165 6.6976 3.96644 6.6976C3.50189 6.6976 3.12228 6.31969 3.12027 5.85473L3.12021 5.85008C3.12091 5.38403 3.50026 5.00516 3.96644 5.00516C4.43241 5.00516 4.81162 5.38369 4.81267 5.84942L4.81265 5.85055Z" fill="#3F3D3D"/>
</svg>
