<svg width="14" height="14" viewBox="0 0 14 14" fill="none" xmlns="http://www.w3.org/2000/svg">
<path d="M12.8346 0.125H1.5013C1.31344 0.125 1.13327 0.199628 1.00043 0.332466C0.867596 0.465304 0.792969 0.645472 0.792969 0.833333V2.41079L0.798635 2.56875C0.833916 3.04172 1.02641 3.48929 1.34547 3.84021L4.33464 7.12758V12.875C4.33461 12.9872 4.36125 13.0979 4.41237 13.1978C4.46349 13.2977 4.53763 13.3841 4.62866 13.4497C4.7197 13.5153 4.82503 13.5584 4.93598 13.5754C5.04693 13.5923 5.16032 13.5827 5.2668 13.5472L9.5168 12.1305L9.5933 12.1001C9.71529 12.043 9.81846 11.9523 9.89073 11.8386C9.96299 11.7249 10.0013 11.593 10.0013 11.4583V6.79325L12.9203 3.87492C13.1179 3.67747 13.2745 3.44303 13.3813 3.18499C13.4882 2.92696 13.5431 2.6504 13.543 2.37112V0.833333C13.543 0.645472 13.4683 0.465304 13.3355 0.332466C13.2027 0.199628 13.0225 0.125 12.8346 0.125Z" fill="#B1B1B1"/>
</svg>
