<svg width="22" height="23" viewBox="0 0 22 23" fill="none" xmlns="http://www.w3.org/2000/svg">
<path d="M5.15625 11.8125C5.15625 10.7226 5.45656 9.70148 5.97828 8.8272V5.11865H2.26974C0.797844 7.03025 0 9.35997 0 11.8125C0 14.2651 0.797844 16.5948 2.26974 18.5064H5.97828V14.7979C5.45656 13.9236 5.15625 12.9025 5.15625 11.8125Z" fill="#FBBD00"/>
<path d="M11 17.6562L8.42188 20.2343L11 22.8125C13.4526 22.8125 15.7823 22.0146 17.6939 20.5427V16.8381H13.9893C13.1074 17.3618 12.082 17.6562 11 17.6562Z" fill="#0F9D58"/>
<path d="M5.97808 14.7979L2.26953 18.5064C2.56321 18.888 2.88124 19.2502 3.22163 19.5907C5.29926 21.6683 8.06159 22.8125 10.9998 22.8125V17.6563C8.86751 17.6563 6.99867 16.5081 5.97808 14.7979Z" fill="#31AA52"/>
<path d="M22 11.8125C22.0001 11.1442 21.9398 10.4772 21.8199 9.81973L21.7232 9.29126H11V14.4475H16.2186C15.7193 15.4411 14.9456 16.2708 13.9892 16.8382L17.6938 20.5428C18.0754 20.2491 18.4376 19.9311 18.7782 19.5907C20.8558 17.513 22 14.7507 22 11.8125Z" fill="#3C79E6"/>
<path d="M15.1322 7.68032L15.5879 8.13605L19.2339 4.49007L18.7782 4.03434C16.7006 1.95671 13.9382 0.8125 11 0.8125L8.42188 3.39062L11 5.96875C12.5609 5.96875 14.0284 6.57659 15.1322 7.68032Z" fill="#CF2D48"/>
<path d="M10.9998 5.96875V0.8125C8.06163 0.8125 5.2993 1.95671 3.22163 4.0343C2.88122 4.37483 2.56319 4.73702 2.26953 5.11861L5.97808 8.82716C6.99872 7.11687 8.86756 5.96875 10.9998 5.96875Z" fill="#EB4132"/>
</svg>
