<svg width="97" height="14" viewBox="0 0 97 14" fill="none" xmlns="http://www.w3.org/2000/svg">
<path d="M14.2607 5.13808C14.2153 4.99748 14.1296 4.87334 14.0142 4.78114C13.8987 4.68894 13.7587 4.63275 13.6115 4.61958L9.51639 4.24771L7.89708 0.457502C7.77764 0.179742 7.50572 0 7.2036 0C6.90149 0 6.62954 0.17977 6.51016 0.458195L4.89082 4.24774L0.795026 4.61958C0.648044 4.63305 0.508246 4.68935 0.392965 4.78152C0.277683 4.87369 0.191987 4.99767 0.146503 5.13808C0.0530849 5.4254 0.139353 5.74052 0.36701 5.93916L3.46247 8.65386L2.54969 12.6746C2.4829 12.9703 2.59763 13.2759 2.84294 13.4532C2.97476 13.5485 3.12904 13.597 3.28459 13.597C3.41872 13.597 3.55173 13.5608 3.67117 13.4893L7.2036 11.3781L10.7348 13.4893C10.9931 13.6448 11.3189 13.6306 11.5636 13.4532C11.6835 13.3665 11.7751 13.2464 11.8273 13.108C11.8794 12.9696 11.8897 12.8189 11.8569 12.6746L10.9441 8.65386L14.0396 5.93971C14.1509 5.84246 14.2312 5.71464 14.2706 5.57212C14.3099 5.4296 14.3064 5.27867 14.2607 5.13808Z" fill="#FFC107"/>
<path d="M34.7607 5.13808C34.7153 4.99748 34.6296 4.87334 34.5142 4.78114C34.3987 4.68894 34.2587 4.63275 34.1115 4.61958L30.0164 4.24771L28.3971 0.457502C28.2776 0.179742 28.0057 0 27.7036 0C27.4015 0 27.1295 0.17977 27.0102 0.458195L25.3908 4.24774L21.295 4.61958C21.148 4.63305 21.0082 4.68935 20.893 4.78152C20.7777 4.87369 20.692 4.99767 20.6465 5.13808C20.5531 5.4254 20.6394 5.74052 20.867 5.93916L23.9625 8.65386L23.0497 12.6746C22.9829 12.9703 23.0976 13.2759 23.3429 13.4532C23.4748 13.5485 23.629 13.597 23.7846 13.597C23.9187 13.597 24.0517 13.5608 24.1712 13.4893L27.7036 11.3781L31.2348 13.4893C31.4931 13.6448 31.8189 13.6306 32.0636 13.4532C32.1835 13.3665 32.2751 13.2464 32.3273 13.108C32.3794 12.9696 32.3897 12.8189 32.3569 12.6746L31.4441 8.65386L34.5396 5.93971C34.6509 5.84246 34.7312 5.71464 34.7706 5.57212C34.8099 5.4296 34.8064 5.27867 34.7607 5.13808Z" fill="#FFC107"/>
<path d="M55.2607 5.13808C55.2153 4.99748 55.1296 4.87334 55.0142 4.78114C54.8987 4.68894 54.7587 4.63275 54.6115 4.61958L50.5164 4.24771L48.8971 0.457502C48.7776 0.179742 48.5057 0 48.2036 0C47.9015 0 47.6295 0.17977 47.5102 0.458195L45.8908 4.24774L41.795 4.61958C41.648 4.63305 41.5082 4.68935 41.393 4.78152C41.2777 4.87369 41.192 4.99767 41.1465 5.13808C41.0531 5.4254 41.1394 5.74052 41.367 5.93916L44.4625 8.65386L43.5497 12.6746C43.4829 12.9703 43.5976 13.2759 43.8429 13.4532C43.9748 13.5485 44.129 13.597 44.2846 13.597C44.4187 13.597 44.5517 13.5608 44.6712 13.4893L48.2036 11.3781L51.7348 13.4893C51.9931 13.6448 52.3189 13.6306 52.5636 13.4532C52.6835 13.3665 52.7751 13.2464 52.8273 13.108C52.8794 12.9696 52.8897 12.8189 52.8569 12.6746L51.9441 8.65386L55.0396 5.93971C55.1509 5.84246 55.2312 5.71464 55.2706 5.57212C55.3099 5.4296 55.3064 5.27867 55.2607 5.13808Z" fill="#FFC107"/>
<path d="M75.7529 5.13808C75.7075 4.99748 75.6218 4.87334 75.5063 4.78114C75.3909 4.68894 75.2509 4.63275 75.1037 4.61958L71.0086 4.24771L69.3893 0.457502C69.2698 0.179742 68.9979 0 68.6958 0C68.3937 0 68.1217 0.17977 68.0023 0.458195L66.383 4.24774L62.2872 4.61958C62.1402 4.63305 62.0004 4.68935 61.8852 4.78152C61.7699 4.87369 61.6842 4.99767 61.6387 5.13808C61.5453 5.4254 61.6315 5.74052 61.8592 5.93916L64.9547 8.65386L64.0419 12.6746C63.9751 12.9703 64.0898 13.2759 64.3351 13.4532C64.467 13.5485 64.6212 13.597 64.7768 13.597C64.9109 13.597 65.0439 13.5608 65.1634 13.4893L68.6958 11.3781L72.2269 13.4893C72.4853 13.6448 72.8111 13.6306 73.0558 13.4532C73.1756 13.3665 73.2673 13.2464 73.3195 13.108C73.3716 12.9696 73.3819 12.8189 73.3491 12.6746L72.4363 8.65386L75.5317 5.93971C75.6431 5.84246 75.7234 5.71464 75.7627 5.57212C75.8021 5.4296 75.7986 5.27867 75.7529 5.13808Z" fill="#FFC107"/>
<path d="M96.2529 5.13808C96.2075 4.99748 96.1218 4.87334 96.0063 4.78114C95.8909 4.68894 95.7509 4.63275 95.6037 4.61958L91.5086 4.24771L89.8893 0.457502C89.7698 0.179742 89.4979 0 89.1958 0C88.8937 0 88.6217 0.17977 88.5023 0.458195L86.883 4.24774L82.7872 4.61958C82.6402 4.63305 82.5004 4.68935 82.3852 4.78152C82.2699 4.87369 82.1842 4.99767 82.1387 5.13808C82.0453 5.4254 82.1315 5.74052 82.3592 5.93916L85.4547 8.65386L84.5419 12.6746C84.4751 12.9703 84.5898 13.2759 84.8351 13.4532C84.967 13.5485 85.1212 13.597 85.2768 13.597C85.4109 13.597 85.5439 13.5608 85.6634 13.4893L89.1958 11.3781L92.7269 13.4893C92.9853 13.6448 93.3111 13.6306 93.5558 13.4532C93.6756 13.3665 93.7673 13.2464 93.8195 13.108C93.8716 12.9696 93.8819 12.8189 93.8491 12.6746L92.9363 8.65386L96.0317 5.93971C96.1431 5.84246 96.2234 5.71464 96.2627 5.57212C96.3021 5.4296 96.2986 5.27867 96.2529 5.13808Z" fill="#FFC107"/>
<mask id="mask0_1056_275" style="mask-type:alpha" maskUnits="userSpaceOnUse" x="82" y="0" width="15" height="14">
<path d="M96.2529 5.13808C96.2075 4.99748 96.1218 4.87334 96.0063 4.78114C95.8909 4.68894 95.7509 4.63275 95.6037 4.61958L91.5086 4.24771L89.8893 0.457502C89.7698 0.179742 89.4979 0 89.1958 0C88.8937 0 88.6217 0.17977 88.5023 0.458195L86.883 4.24774L82.7872 4.61958C82.6402 4.63305 82.5004 4.68935 82.3852 4.78152C82.2699 4.87369 82.1842 4.99767 82.1387 5.13808C82.0453 5.4254 82.1315 5.74052 82.3592 5.93916L85.4547 8.65386L84.5419 12.6746C84.4751 12.9703 84.5898 13.2759 84.8351 13.4532C84.967 13.5485 85.1212 13.597 85.2768 13.597C85.4109 13.597 85.5439 13.5608 85.6634 13.4893L89.1958 11.3781L92.7269 13.4893C92.9853 13.6448 93.3111 13.6306 93.5558 13.4532C93.6756 13.3665 93.7673 13.2464 93.8195 13.108C93.8716 12.9696 93.8819 12.8189 93.8491 12.6746L92.9363 8.65386L96.0317 5.93971C96.1431 5.84246 96.2234 5.71464 96.2627 5.57212C96.3021 5.4296 96.2986 5.27867 96.2529 5.13808Z" fill="#FFC107"/>
</mask>
<g mask="url(#mask0_1056_275)">
<rect x="89.1992" y="-0.769531" width="7.92886" height="15.3254" fill="#979696"/>
</g>
</svg>
