<svg width="19" height="18" viewBox="0 0 19 18" fill="none" xmlns="http://www.w3.org/2000/svg">
<path fill-rule="evenodd" clip-rule="evenodd" d="M17.789 4.31837C16.0072 6.10019 11.825 10.2815 10.8051 11.2981C10.5867 11.5162 10.3268 11.6884 10.0407 11.8043C9.22273 12.1438 7.2272 12.9266 6.64052 12.966C6.46758 12.9776 6.29416 12.9521 6.13189 12.8912C5.96962 12.8302 5.82225 12.7353 5.69969 12.6127C5.57713 12.4902 5.4822 12.3428 5.42128 12.1806C5.36036 12.0183 5.33486 11.8449 5.34649 11.6719C5.38588 11.0852 6.16867 9.09139 6.50224 8.27675C6.61873 7.9876 6.79222 7.72527 7.01264 7.50569L13.9941 0.52343C14.3324 0.185749 14.7908 -0.00390625 15.2688 -0.00390625C15.7468 -0.00390625 16.2053 0.185749 16.5436 0.52343L17.789 1.76886C18.1267 2.10716 18.3163 2.56562 18.3163 3.04361C18.3163 3.52161 18.1267 3.98007 17.789 4.31837ZM6.60616 11.7063C7.17942 11.6342 8.8548 10.9352 9.55881 10.6427C9.69261 10.5901 9.81415 10.5105 9.91584 10.4089L9.91668 10.4081C12.246 8.08334 14.5737 5.75704 16.8998 3.42914C16.9505 3.37854 16.9907 3.31845 17.0181 3.2523C17.0455 3.18614 17.0597 3.11523 17.0597 3.04361C17.0597 2.972 17.0455 2.90109 17.0181 2.83493C16.9907 2.76878 16.9505 2.70868 16.8998 2.65809L15.6544 1.41266C15.6038 1.36198 15.5437 1.32177 15.4775 1.29434C15.4114 1.2669 15.3404 1.25278 15.2688 1.25278C15.1972 1.25278 15.1263 1.2669 15.0601 1.29434C14.994 1.32177 14.9339 1.36198 14.8833 1.41266L7.90103 8.39492C7.8005 8.49491 7.7215 8.61442 7.66888 8.74609L7.6672 8.74944C7.37806 9.45512 6.67824 11.1322 6.60616 11.7063Z" fill="white"/>
<path fill-rule="evenodd" clip-rule="evenodd" d="M16.1316 5.08988C16.19 5.14827 16.2363 5.21758 16.2679 5.29387C16.2995 5.37016 16.3157 5.45192 16.3157 5.53449C16.3157 5.61707 16.2995 5.69883 16.2679 5.77512C16.2363 5.85141 16.19 5.92072 16.1316 5.97911C16.0732 6.0375 16.0039 6.08381 15.9276 6.11541C15.8513 6.14701 15.7695 6.16327 15.687 6.16327C15.6044 6.16327 15.5226 6.14701 15.4463 6.11541C15.3701 6.08381 15.3007 6.0375 15.2424 5.97911L12.3366 3.0734C12.2187 2.95548 12.1525 2.79554 12.1525 2.62878C12.1525 2.46202 12.2187 2.30208 12.3366 2.18417C12.4546 2.06625 12.6145 2 12.7813 2C12.948 2 13.1079 2.06625 13.2259 2.18417L16.1316 5.08988ZM11.0015 10.2199C11.0599 10.2783 11.1061 10.3475 11.1377 10.4237C11.1693 10.4999 11.1855 10.5816 11.1855 10.6641C11.1855 10.7466 11.1693 10.8283 11.1377 10.9045C11.1061 10.9807 11.0599 11.05 11.0015 11.1083C10.9432 11.1666 10.874 11.2129 10.7977 11.2445C10.7215 11.2761 10.6398 11.2923 10.5573 11.2923C10.4748 11.2923 10.3932 11.2761 10.3169 11.2445C10.2407 11.2129 10.1715 11.1666 10.1131 11.1083L7.20743 8.2026C7.1491 8.14427 7.10283 8.07502 7.07126 7.99881C7.03969 7.92259 7.02344 7.8409 7.02344 7.75841C7.02344 7.67591 7.03969 7.59423 7.07126 7.51801C7.10283 7.4418 7.1491 7.37254 7.20743 7.31421C7.26576 7.25588 7.33501 7.20961 7.41123 7.17804C7.48744 7.14647 7.56913 7.13022 7.65163 7.13022C7.73412 7.13022 7.81581 7.14647 7.89202 7.17804C7.96824 7.20961 8.03749 7.25588 8.09582 7.31421L11.0015 10.2199Z" fill="white"/>
<path fill-rule="evenodd" clip-rule="evenodd" d="M6.39267 1.65625C6.55938 1.65625 6.71926 1.72248 6.83715 1.84036C6.95503 1.95824 7.02125 2.11812 7.02125 2.28483C7.02125 2.45154 6.95503 2.61142 6.83715 2.7293C6.71926 2.84718 6.55938 2.91341 6.39267 2.91341H3.4593C2.95917 2.91341 2.47953 3.11208 2.12589 3.46573C1.77224 3.81937 1.57357 4.29902 1.57357 4.79915V14.8564C1.57357 15.3565 1.77224 15.8362 2.12589 16.1898C2.47953 16.5435 2.95917 16.7422 3.4593 16.7422H14.3547C14.8548 16.7422 15.3345 16.5435 15.6881 16.1898C16.0417 15.8362 16.2404 15.3565 16.2404 14.8564V11.923C16.2404 11.7563 16.3066 11.5965 16.4245 11.4786C16.5424 11.3607 16.7023 11.2945 16.869 11.2945C17.0357 11.2945 17.1956 11.3607 17.3135 11.4786C17.4314 11.5965 17.4976 11.7563 17.4976 11.923V14.8564C17.4971 15.6898 17.1659 16.489 16.5766 17.0783C15.9872 17.6676 15.1881 17.9989 14.3547 17.9993H3.4593C2.62589 17.9989 1.82674 17.6676 1.23743 17.0783C0.648119 16.489 0.31685 15.6898 0.316406 14.8564V4.79915C0.316406 3.9656 0.647532 3.16619 1.23694 2.57678C1.82635 1.98738 2.62576 1.65625 3.4593 1.65625H6.39267Z" fill="white"/>
</svg>
