<svg width="17" height="18" viewBox="0 0 17 18" fill="none" xmlns="http://www.w3.org/2000/svg">
<path d="M16.6228 7.67927L15.4667 6.3366C15.2457 6.08167 15.0672 5.60579 15.0672 5.26587V3.82123C15.0672 2.92046 14.3276 2.18114 13.4266 2.18114H11.9815C11.65 2.18114 11.1654 2.00269 10.9104 1.78174L9.56734 0.626031C8.98081 0.124656 8.02025 0.124656 7.42521 0.626031L6.09063 1.79024C5.83561 2.00269 5.35108 2.18114 5.01956 2.18114H3.54897C2.64791 2.18114 1.90837 2.92046 1.90837 3.82123V5.27437C1.90837 5.60579 1.72986 6.08167 1.51734 6.3366L0.369773 7.68777C-0.123258 8.27412 -0.123258 9.22588 0.369773 9.81223L1.51734 11.1634C1.72986 11.4183 1.90837 11.8942 1.90837 12.2256V13.6788C1.90837 14.5795 2.64791 15.3189 3.54897 15.3189H5.01956C5.35108 15.3189 5.83561 15.4973 6.09063 15.7183L7.43371 16.874C8.02025 17.3753 8.98081 17.3753 9.57584 16.874L10.9189 15.7183C11.1739 15.4973 11.65 15.3189 11.99 15.3189H13.4351C14.3361 15.3189 15.0757 14.5795 15.0757 13.6788V12.2341C15.0757 11.9027 15.2542 11.4183 15.4752 11.1634L16.6313 9.82073C17.1243 9.23438 17.1243 8.26562 16.6228 7.67927ZM12.0325 7.1439L7.92674 11.2484C7.8072 11.3677 7.64516 11.4348 7.47621 11.4348C7.30727 11.4348 7.14523 11.3677 7.02569 11.2484L4.96856 9.19189C4.72204 8.94545 4.72204 8.53755 4.96856 8.29111C5.21507 8.04468 5.6231 8.04468 5.86961 8.29111L7.47621 9.89721L11.1314 6.24313C11.378 5.99669 11.786 5.99669 12.0325 6.24313C12.279 6.48957 12.279 6.89746 12.0325 7.1439Z" fill="white"/>
</svg>
