<svg width="19" height="19" viewBox="0 0 19 19" fill="none" xmlns="http://www.w3.org/2000/svg">
<path d="M6.12843 10.9618H4.88631C4.21435 10.9618 3.66456 11.5116 3.66456 12.1835V17.3149C3.66456 17.9936 4.21435 18.5366 4.88631 18.5366H6.12843V10.9618ZM15.2712 13.1881L14.1445 17.247C14.0433 17.6176 13.823 17.9446 13.5175 18.1776C13.2121 18.4107 12.8386 18.5368 12.4544 18.5366H7.14656V10.9618L9.38645 7.79198C9.55993 7.54817 9.81385 7.37335 10.1035 7.29832C10.3932 7.22329 10.7001 7.25284 10.9701 7.38177C11.2401 7.5107 11.456 7.73076 11.5798 8.0032C11.7035 8.27564 11.7272 8.58301 11.6467 8.8712L11.0562 10.9618H13.5811C14.7418 10.9618 15.5835 12.0681 15.2712 13.1881ZM2.76996 3.14863L3.2797 4.18102C3.30337 4.229 3.33834 4.27051 3.38162 4.30196C3.4249 4.33342 3.47518 4.35387 3.52813 4.36157L4.66775 4.52718C4.72851 4.53616 4.78556 4.56192 4.83247 4.60157C4.87938 4.64122 4.91428 4.69317 4.93326 4.75159C4.95224 4.81 4.95453 4.87255 4.93988 4.9322C4.92523 4.99184 4.89422 5.04621 4.85034 5.08919L4.02565 5.89283C3.98739 5.93017 3.95876 5.97623 3.94221 6.02707C3.92566 6.0779 3.92168 6.13199 3.93063 6.1847L4.12543 7.31957C4.13577 7.38021 4.12895 7.44252 4.10574 7.49949C4.08254 7.55645 4.04386 7.60579 3.99409 7.64194C3.94432 7.67808 3.88544 7.69959 3.82409 7.70404C3.76274 7.70848 3.70137 7.69569 3.64691 7.66709L2.62742 7.13156C2.58007 7.10682 2.52744 7.09389 2.47402 7.09389C2.4206 7.09389 2.36797 7.10682 2.32062 7.13156L1.30114 7.66709C1.24668 7.69569 1.18531 7.70848 1.12396 7.70404C1.06261 7.69959 1.00372 7.67808 0.953953 7.64194C0.904183 7.60579 0.86551 7.55645 0.842302 7.49949C0.819094 7.44252 0.812275 7.38021 0.822616 7.31957L1.01742 6.1847C1.02648 6.13199 1.02256 6.07787 1.006 6.02701C0.989447 5.97616 0.960749 5.9301 0.922392 5.89283L0.0990648 5.08919C0.0551842 5.04621 0.0241726 4.99184 0.00952209 4.9322C-0.00512839 4.87255 -0.00283588 4.81 0.0161415 4.75159C0.0351188 4.69317 0.0700272 4.64122 0.116936 4.60157C0.163844 4.56192 0.22089 4.53616 0.281649 4.52718L1.42128 4.36157C1.47418 4.35376 1.52442 4.33326 1.56768 4.30182C1.61094 4.27038 1.64594 4.22893 1.6697 4.18102L2.17944 3.14863C2.20662 3.09352 2.24867 3.04711 2.30085 3.01466C2.35303 2.98221 2.41325 2.96501 2.4747 2.96501C2.53615 2.96501 2.59637 2.98221 2.64855 3.01466C2.70073 3.04711 2.74279 3.09352 2.76996 3.14863ZM9.79709 0.433619L10.3068 1.466C10.3305 1.51399 10.3655 1.5555 10.4088 1.58695C10.452 1.6184 10.5023 1.63886 10.5553 1.64655L11.6949 1.81217C11.7556 1.82115 11.8127 1.84691 11.8596 1.88656C11.9065 1.9262 11.9414 1.97816 11.9604 2.03657C11.9794 2.09499 11.9817 2.15754 11.967 2.21718C11.9524 2.27683 11.9214 2.3312 11.8775 2.37417L11.0528 3.17782C11.0145 3.21516 10.9859 3.26122 10.9693 3.31205C10.9528 3.36289 10.9488 3.41698 10.9578 3.46968L11.1526 4.60456C11.1629 4.66519 11.1561 4.72751 11.1329 4.78448C11.1097 4.84144 11.071 4.89078 11.0212 4.92692C10.9715 4.96307 10.9126 4.98458 10.8512 4.98902C10.7899 4.99347 10.7285 4.98067 10.674 4.95208L9.65456 4.41654C9.60721 4.3918 9.55458 4.37888 9.50116 4.37888C9.44773 4.37888 9.39511 4.3918 9.34776 4.41654L8.32827 4.95208C8.27381 4.98067 8.21244 4.99347 8.15109 4.98902C8.08974 4.98458 8.03086 4.96307 7.98109 4.92692C7.93132 4.89078 7.89264 4.84144 7.86944 4.78448C7.84623 4.72751 7.83941 4.66519 7.84975 4.60456L8.04455 3.46968C8.05361 3.41697 8.0497 3.36285 8.03314 3.312C8.01658 3.26114 7.98788 3.21509 7.94953 3.17782L7.1262 2.37417C7.08232 2.3312 7.05131 2.27683 7.03666 2.21718C7.02201 2.15754 7.0243 2.09499 7.04327 2.03657C7.06225 1.97816 7.09716 1.9262 7.14407 1.88656C7.19098 1.84691 7.24802 1.82115 7.30878 1.81217L8.44841 1.64655C8.50136 1.63886 8.55163 1.6184 8.59491 1.58695C8.63819 1.5555 8.67317 1.51399 8.69683 1.466L9.20658 0.433619C9.23375 0.378506 9.27581 0.332099 9.32799 0.299649C9.38017 0.267198 9.44039 0.25 9.50183 0.25C9.56328 0.25 9.6235 0.267198 9.67568 0.299649C9.72786 0.332099 9.76992 0.378506 9.79709 0.433619ZM16.8242 3.14863L17.334 4.18102C17.3576 4.229 17.3926 4.27051 17.4359 4.30196C17.4792 4.33342 17.5294 4.35387 17.5824 4.36157L18.722 4.52718C18.7828 4.53616 18.8398 4.56192 18.8867 4.60157C18.9336 4.64122 18.9686 4.69317 18.9875 4.75159C19.0065 4.81 19.0088 4.87255 18.9941 4.9322C18.9795 4.99184 18.9485 5.04621 18.9046 5.08919L18.0799 5.89283C18.0417 5.93017 18.013 5.97623 17.9965 6.02707C17.9799 6.0779 17.976 6.13199 17.9849 6.1847L18.1797 7.31957C18.19 7.38021 18.1832 7.44252 18.16 7.49949C18.1368 7.55645 18.0981 7.60579 18.0484 7.64194C17.9986 7.67808 17.9397 7.69959 17.8784 7.70404C17.817 7.70848 17.7556 7.69569 17.7012 7.66709L16.6817 7.13156C16.6343 7.10682 16.5817 7.09389 16.5283 7.09389C16.4749 7.09389 16.4222 7.10682 16.3749 7.13156L15.3554 7.66709C15.3009 7.69569 15.2396 7.70848 15.1782 7.70404C15.1169 7.69959 15.058 7.67808 15.0082 7.64194C14.9585 7.60579 14.9198 7.55645 14.8966 7.49949C14.8734 7.44252 14.8665 7.38021 14.8769 7.31957L15.0717 6.1847C15.0807 6.13199 15.0768 6.07787 15.0603 6.02701C15.0437 5.97616 15.015 5.9301 14.9767 5.89283L14.152 5.08919C14.1081 5.04621 14.0771 4.99184 14.0624 4.9322C14.0478 4.87255 14.0501 4.81 14.0691 4.75159C14.088 4.69317 14.1229 4.64122 14.1698 4.60157C14.2168 4.56192 14.2738 4.53616 14.3346 4.52718L15.4742 4.36157C15.5271 4.35387 15.5774 4.33342 15.6207 4.30196C15.664 4.27051 15.6989 4.229 15.7226 4.18102L16.2324 3.14863C16.2596 3.09337 16.3017 3.04683 16.354 3.01429C16.4063 2.98174 16.4667 2.96449 16.5283 2.96449C16.5899 2.96449 16.6503 2.98174 16.7026 3.01429C16.7549 3.04683 16.797 3.09337 16.8242 3.14863Z" fill="white"/>
</svg>
