<svg width="14" height="15" viewBox="0 0 14 15" fill="none" xmlns="http://www.w3.org/2000/svg">
<path d="M7 4.15667C5.97926 4.17741 5.13556 4.53148 4.46889 5.21889C3.78148 5.88556 3.42741 6.72926 3.40667 7.75C3.42741 8.77074 3.78148 9.61444 4.46889 10.2811C5.13556 10.9685 5.97926 11.3226 7 11.3433C8.02074 11.3226 8.86444 10.9685 9.53111 10.2811C10.2185 9.61444 10.5726 8.77074 10.5933 7.75C10.5726 6.72926 10.2185 5.88556 9.53111 5.21889C8.86444 4.53148 8.02074 4.17741 7 4.15667ZM7 10.0944C6.33333 10.0737 5.78148 9.84407 5.34444 9.40556C4.90593 8.96852 4.6763 8.41667 4.65556 7.75C4.6763 7.08333 4.90593 6.53148 5.34444 6.09444C5.78148 5.65593 6.33333 5.4263 7 5.40556C7.66667 5.4263 8.21852 5.65593 8.65556 6.09444C9.09407 6.53148 9.3237 7.08333 9.34444 7.75C9.3237 8.41667 9.09407 8.96852 8.65556 9.40556C8.21852 9.84407 7.66667 10.0737 7 10.0944ZM11.5933 4.00111C11.5311 4.52111 11.2504 4.80185 10.7511 4.84333C10.2296 4.80185 9.94815 4.52111 9.90667 4.00111C9.90667 3.77148 9.98963 3.57296 10.1556 3.40556C10.3022 3.26037 10.5007 3.18778 10.7511 3.18778C10.9793 3.18778 11.177 3.26037 11.3444 3.40556C11.4896 3.57296 11.5726 3.77148 11.5933 4.00111ZM13.9689 4.84333V4.87444C13.9689 3.72926 13.5837 2.75 12.8133 1.93667C12 1.1663 11.0311 0.781111 9.90667 0.781111C9.49037 0.76037 8.8963 0.75 8.12444 0.75C7.37482 0.75 6.62519 0.75 5.87556 0.75C5.1037 0.75 4.52 0.76037 4.12444 0.781111C3 0.781111 2.02074 1.1663 1.18667 1.93667C0.416296 2.75 0.0414815 3.71889 0.0622222 4.84333C0.0207407 5.25963 0 5.8537 0 6.62556C0 7.37519 0 8.12482 0 8.87444C0 9.62556 0.0207407 10.2093 0.0622222 10.6256C0.0414815 11.7707 0.416296 12.75 1.18667 13.5633C2 14.3337 2.97926 14.7085 4.12444 14.6878C4.52 14.7085 5.1037 14.7293 5.87556 14.75C6.62519 14.75 7.37482 14.75 8.12444 14.75C8.8963 14.7293 9.49037 14.7085 9.90667 14.6878C11.0311 14.7085 12 14.3337 12.8133 13.5633C13.5837 12.75 13.9689 11.7707 13.9689 10.6256C13.9896 10.2093 14 9.62556 14 8.87444C14 8.12482 14 7.37519 14 6.62556C14 5.8537 13.9896 5.25963 13.9689 4.84333ZM12.4689 11.8744C12.1978 12.4996 11.7496 12.9478 11.1244 13.2189C10.7081 13.3641 10.1459 13.447 9.43778 13.4678C8.72963 13.49 8.0837 13.5011 7.5 13.5011C7.31185 13.5011 7.14519 13.5011 7 13.5011C6.85481 13.5011 6.68815 13.5011 6.5 13.5011C5.9163 13.5011 5.27037 13.49 4.56222 13.4678C3.87482 13.447 3.31259 13.3641 2.87556 13.2189C2.25037 12.9478 1.80222 12.4996 1.53111 11.8744C1.38593 11.4374 1.30296 10.8752 1.28222 10.1878C1.26148 9.47963 1.25111 8.8337 1.25111 8.25C1.25111 8.06185 1.25111 7.89519 1.25111 7.75C1.25111 7.60481 1.25111 7.43815 1.25111 7.25C1.25111 6.6663 1.26148 6.02037 1.28222 5.31222C1.30296 4.60407 1.38593 4.04185 1.53111 3.62556C1.80222 3.00037 2.25037 2.55222 2.87556 2.28111C3.31259 2.13593 3.87482 2.05296 4.56222 2.03222C5.27037 1.98926 5.9163 1.97889 6.5 2.00111C6.68815 2.00111 6.85481 2.00111 7 2.00111C7.14519 2.00111 7.31185 2.00111 7.5 2.00111C8.0837 2.00111 8.72963 2.01148 9.43778 2.03222C10.1459 2.05296 10.7081 2.13593 11.1244 2.28111C11.7496 2.55222 12.1978 3.00037 12.4689 3.62556C12.6141 4.04185 12.697 4.60407 12.7178 5.31222C12.7607 6.02037 12.7719 6.6663 12.7511 7.25C12.7511 7.43815 12.7511 7.60481 12.7511 7.75C12.7511 7.89519 12.7511 8.06185 12.7511 8.25C12.7719 8.8337 12.7607 9.47963 12.7178 10.1878C12.697 10.8959 12.6141 11.4581 12.4689 11.8744Z" fill="#000"/>
</svg>
