<svg width="7" height="12" viewBox="0 0 7 12" fill="none" xmlns="http://www.w3.org/2000/svg">
<path d="M5.83892 0.173099C6.13009 -0.0815144 6.57225 -0.0517214 6.8268 0.239246C7.08108 0.530411 7.05135 0.972571 6.76039 1.22712L1.76288 5.59971L6.76065 9.97255C7.05188 10.2271 7.08134 10.6693 6.82706 10.9602C6.57251 11.2514 6.13035 11.2811 5.83912 11.0266L0.239471 6.12672C0.164331 6.061 0.104111 5.97997 0.0628518 5.88907C0.0215926 5.79817 0.000247808 5.6995 0.000247808 5.59967C0.000247808 5.49985 0.0215926 5.40118 0.0628518 5.31028C0.104111 5.21938 0.164331 5.13835 0.239471 5.07263L5.83892 0.173099Z" fill="#555555"/>
</svg>
