<svg width="7" height="12" viewBox="0 0 7 12" fill="none" xmlns="http://www.w3.org/2000/svg">
<path d="M1.16108 11.0266C0.869911 11.2812 0.427751 11.2514 0.173203 10.9605C-0.0810816 10.6693 -0.0513543 10.2271 0.239613 9.97259L5.23712 5.6L0.239351 1.22715C-0.0518792 0.972606 -0.081344 0.530444 0.172941 0.239542C0.427488 -0.051688 0.869649 -0.0814142 1.16088 0.173133L6.76053 5.07299C6.83567 5.13871 6.89589 5.21974 6.93715 5.31064C6.97841 5.40154 6.99975 5.50021 6.99975 5.60004C6.99975 5.69986 6.97841 5.79853 6.93715 5.88943C6.89589 5.98033 6.83567 6.06136 6.76053 6.12708L1.16108 11.0266Z" fill="#555555"/>
</svg>
