<svg width="22" height="23" viewBox="0 0 22 23" fill="none" xmlns="http://www.w3.org/2000/svg">
<path d="M11.5148 5.64393C12.9366 5.64393 14.0892 4.49133 14.0892 3.06952C14.0892 1.64772 12.9366 0.495117 11.5148 0.495117C10.093 0.495117 8.94043 1.64772 8.94043 3.06952C8.94043 4.49133 10.093 5.64393 11.5148 5.64393Z" fill="black"/>
<path d="M11.5152 22.5055C12.3682 22.5055 13.0597 21.814 13.0597 20.961C13.0597 20.108 12.3682 19.4165 11.5152 19.4165C10.6622 19.4165 9.9707 20.108 9.9707 20.961C9.9707 21.814 10.6622 22.5055 11.5152 22.5055Z" fill="black"/>
<path d="M5.1892 8.00634C6.46892 8.00634 7.50634 6.96892 7.50634 5.6892C7.50634 4.40949 6.46892 3.37207 5.1892 3.37207C3.90949 3.37207 2.87207 4.40949 2.87207 5.6892C2.87207 6.96892 3.90949 8.00634 5.1892 8.00634Z" fill="black"/>
<path d="M17.8409 19.6271C18.5518 19.6271 19.1281 19.0508 19.1281 18.3399C19.1281 17.629 18.5518 17.0527 17.8409 17.0527C17.13 17.0527 16.5537 17.629 16.5537 18.3399C16.5537 19.0508 17.13 19.6271 17.8409 19.6271Z" fill="black"/>
<path d="M2.56879 14.0746C3.70596 14.0746 4.62781 13.1527 4.62781 12.0156C4.62781 10.8784 3.70596 9.95654 2.56879 9.95654C1.43162 9.95654 0.509766 10.8784 0.509766 12.0156C0.509766 13.1527 1.43162 14.0746 2.56879 14.0746Z" fill="black"/>
<path d="M20.4607 13.044C21.0291 13.044 21.4898 12.5833 21.4898 12.0149C21.4898 11.4466 21.0291 10.9858 20.4607 10.9858C19.8924 10.9858 19.4316 11.4466 19.4316 12.0149C19.4316 12.5833 19.8924 13.044 20.4607 13.044Z" fill="black"/>
<path d="M3.91494 17.0675C3.74749 17.2347 3.61465 17.4333 3.52401 17.6518C3.43337 17.8704 3.38672 18.1047 3.38672 18.3413C3.38672 18.578 3.43337 18.8123 3.52401 19.0308C3.61465 19.2494 3.74749 19.448 3.91494 19.6152C4.08213 19.7826 4.28069 19.9155 4.49927 20.0061C4.71785 20.0967 4.95215 20.1434 5.18878 20.1434C5.4254 20.1434 5.65971 20.0967 5.87829 20.0061C6.09686 19.9155 6.29543 19.7826 6.46262 19.6152C6.63007 19.448 6.76291 19.2494 6.85355 19.0308C6.94419 18.8123 6.99084 18.578 6.99084 18.3413C6.99084 18.1047 6.94419 17.8704 6.85355 17.6518C6.76291 17.4333 6.63007 17.2347 6.46262 17.0675C6.29594 16.8991 6.09754 16.7655 5.87889 16.6743C5.66024 16.5831 5.42569 16.5361 5.18878 16.5361C4.95187 16.5361 4.71731 16.5831 4.49867 16.6743C4.28002 16.7655 4.08162 16.8991 3.91494 17.0675Z" fill="black"/>
<path d="M17.8402 6.46063C18.2664 6.46063 18.612 6.11508 18.612 5.68881C18.612 5.26255 18.2664 4.91699 17.8402 4.91699C17.4139 4.91699 17.0684 5.26255 17.0684 5.68881C17.0684 6.11508 17.4139 6.46063 17.8402 6.46063Z" fill="black"/>
</svg>
