<svg width="16" height="13" viewBox="0 0 16 13" fill="none" xmlns="http://www.w3.org/2000/svg">
<path d="M0 2.75C0.0207407 2.18704 0.218519 1.71815 0.593333 1.34333C0.968148 0.968519 1.43704 0.770741 2 0.75H14C14.563 0.770741 15.0319 0.968519 15.4067 1.34333C15.7815 1.71815 15.9793 2.18704 16 2.75V10.75C15.9793 11.313 15.7815 11.7819 15.4067 12.1567C15.0319 12.5315 14.563 12.7293 14 12.75H2C1.43704 12.7293 0.968148 12.5315 0.593333 12.1567C0.218519 11.7819 0.0207407 11.313 0 10.75V2.75ZM1.5 2.75V3.43667L6.90667 7.87444C7.24 8.12482 7.60444 8.25 8 8.25C8.39556 8.25 8.77037 8.12482 9.12444 7.87444L14.5 3.43667V2.71889C14.4793 2.42704 14.3126 2.26037 14 2.21889H2C1.68741 2.26037 1.52074 2.42704 1.5 2.71889V2.75ZM1.5 5.37444V10.75C1.52074 11.0626 1.68741 11.2293 2 11.25H14C14.3126 11.2293 14.4793 11.0626 14.5 10.75V5.37444L10.0622 9.03222C9.43704 9.51074 8.74963 9.75 8 9.75C7.25037 9.75 6.55259 9.51074 5.90667 9.03222L1.5 5.37444Z" fill="#000"/>
</svg>
