<svg width="15" height="21" viewBox="0 0 15 21" fill="none" xmlns="http://www.w3.org/2000/svg">
<path d="M7.50281 0.402344C3.36998 0.402344 0.0078125 3.76451 0.0078125 7.89734C0.0078125 9.25791 0.617994 10.7212 0.643565 10.7829C0.840639 11.2507 1.2295 11.9773 1.5099 12.4032L6.64882 20.1896C6.85912 20.5088 7.17039 20.6917 7.50281 20.6917C7.83524 20.6917 8.1465 20.5088 8.3568 20.19L13.4962 12.4032C13.777 11.9773 14.1654 11.2507 14.3625 10.7829C14.3881 10.7216 14.9978 9.25835 14.9978 7.89734C14.9978 3.76451 11.6356 0.402344 7.50281 0.402344ZM13.5495 10.4408C13.3736 10.8601 13.0116 11.5359 12.7599 11.9177L7.62053 19.7046C7.51913 19.8585 7.48694 19.8585 7.38554 19.7046L2.24617 11.9177C1.99443 11.5359 1.63246 10.8596 1.45655 10.4404C1.44906 10.4223 0.889577 9.07538 0.889577 7.89734C0.889577 4.25081 3.85627 1.28411 7.50281 1.28411C11.1494 1.28411 14.116 4.25081 14.116 7.89734C14.116 9.07714 13.5552 10.4276 13.5495 10.4408Z" fill="black"/>
<path d="M7.49919 3.92578C5.31109 3.92578 3.53125 5.70606 3.53125 7.89372C3.53125 10.0814 5.31109 11.8617 7.49919 11.8617C9.68729 11.8617 11.4671 10.0814 11.4671 7.89372C11.4671 5.70606 9.68729 3.92578 7.49919 3.92578ZM7.49919 10.9799C5.79783 10.9799 4.41301 9.59553 4.41301 7.89372C4.41301 6.19192 5.79783 4.80755 7.49919 4.80755C9.20056 4.80755 10.5854 6.19192 10.5854 7.89372C10.5854 9.59553 9.20056 10.9799 7.49919 10.9799Z" fill="black"/>
</svg>
