<svg width="47" height="47" viewBox="0 0 47 47" fill="none" xmlns="http://www.w3.org/2000/svg">
<path d="M36.0127 46.3535H27.0848C26.9055 46.3535 26.7441 46.2459 26.6724 46.0846C26.6007 45.9233 26.6276 45.735 26.7441 45.6006L30.8854 40.9484L31.5577 41.54L28.0798 45.4571H36.0037C37.6172 45.4571 39.1142 44.6504 40.0016 43.2969L42.1618 40.0072C42.6728 39.2273 42.9507 38.313 42.9507 37.3808V29.3492C42.9507 28.6769 43.0672 28.0226 43.3002 27.3951L45.4426 21.5507C45.6398 21.0219 45.7384 20.4661 45.7384 19.9014V10.7404C45.7384 9.48551 45.2543 8.30229 44.3849 7.39695L39.9119 2.80749C39.0156 1.88422 37.7606 1.35536 36.4788 1.35536L14.9568 1.36433C12.9399 1.36433 11.1293 2.64615 10.448 4.54647L10.0267 5.72968C9.61437 6.86808 8.87038 7.83617 7.86644 8.51742L6.96109 9.12696C5.65238 10.0233 4.86357 11.5024 4.86357 13.0889V23.4062C4.86357 24.948 4.22714 26.445 3.11563 27.5117C2.17444 28.417 1.63661 29.6719 1.63661 30.9717V36.5113C1.63661 37.9007 2.23718 39.2273 3.29491 40.1327L8.09949 44.2918C8.96898 45.0448 10.0805 45.4571 11.2279 45.4571H25.292V46.3535H11.2279C9.86536 46.3535 8.54768 45.8605 7.50788 44.9731L2.71227 40.8229C1.45734 39.7382 0.740234 38.1696 0.740234 36.5203V30.9806C0.740234 29.4389 1.37666 27.9419 2.48817 26.8752C3.42937 25.9699 3.96719 24.715 3.96719 23.4152V13.0889C3.96719 11.2066 4.89943 9.44965 6.45912 8.38296L7.36446 7.77343C8.20706 7.19974 8.84349 6.38404 9.18411 5.42492L9.60541 4.2417C10.4121 1.98283 12.5635 0.467948 14.9568 0.467948L36.4788 0.458984C38.0027 0.458984 39.4906 1.08645 40.5573 2.18003L45.0213 6.77845C46.0611 7.84514 46.6348 9.25245 46.6348 10.7404V19.9104C46.6348 20.5827 46.5182 21.237 46.2852 21.8645L44.1518 27.7089C43.9546 28.2377 43.856 28.7935 43.856 29.3582V37.3897C43.856 38.5012 43.5333 39.5859 42.9238 40.5091L40.7635 43.7988C39.7058 45.3944 37.9309 46.3535 36.0127 46.3535Z" fill="black"/>
<path d="M30.635 46.3513V45.4549C32.2485 45.4549 33.7454 44.6482 34.6329 43.2946L36.7931 40.0049C37.3041 39.2251 37.5819 38.3108 37.5819 37.3785V29.347C37.5819 28.6747 37.6985 28.0204 37.9315 27.3929L40.0739 21.5485C40.2711 21.0197 40.3697 20.4639 40.3697 19.8992V10.7382C40.3697 9.48327 39.8856 8.30006 39.0161 7.39471L34.7404 3.00246L35.3858 2.375L39.6615 6.76725C40.7013 7.83394 41.275 9.24125 41.275 10.7292V19.9081C41.275 20.5804 41.1585 21.2348 40.9254 21.8622L38.7741 27.7066C38.5769 28.2355 38.4783 28.7912 38.4783 29.356V37.3875C38.4783 38.499 38.1556 39.5836 37.5461 40.5069L35.3858 43.7966C34.3281 45.3922 32.5533 46.3513 30.635 46.3513ZM5.48266 42.6313L4.81934 42.0307L10.8609 35.281C10.9326 35.2003 11.0312 35.1466 11.1388 35.1376L15.6476 34.5998L17.3686 30.3958C17.3865 30.3599 17.4045 30.3241 17.4314 30.2882L20.6583 26.2007L21.3575 26.7565L18.1754 30.7902L16.3826 35.1824C16.3199 35.3348 16.1854 35.4424 16.0241 35.4603L11.4256 36.0071L5.48266 42.6313Z" fill="black"/>
<path d="M12.7612 35.5721L11.9006 35.3211L13.5948 29.4409C13.6665 29.2078 13.9085 29.0644 14.1416 29.1361L17.8884 30.1401L17.6554 31.0095L14.3298 30.1221L12.7612 35.5721ZM24.2438 29.5574C24.2258 29.5574 24.1989 29.5574 24.181 29.5484L19.4212 28.8313L19.5557 27.9439L24.0824 28.6252L27.0584 25.5506L31.119 17.9941L31.9078 18.4154L27.8203 26.0257C27.8024 26.0615 27.7755 26.0974 27.7486 26.1243L24.5664 29.414C24.4858 29.5126 24.3692 29.5574 24.2438 29.5574Z" fill="black"/>
<path d="M31.0733 45.9602L30.1859 45.8436L31.0554 39.0043L29.9349 33.8591C29.917 33.7784 29.9259 33.6888 29.9528 33.617L32.1848 27.3603L30.6072 15.2861L31.4946 15.1696L33.0901 27.3514C33.0991 27.4231 33.0901 27.4948 33.0722 27.5575L30.8402 33.7963L31.9517 38.8967C31.9607 38.9505 31.9607 38.9953 31.9607 39.0491L31.0733 45.9602ZM4.78253 23.5507L4.06543 23.0129L8.09913 17.6795C8.1798 17.5719 8.31426 17.5002 8.45768 17.5002H10.9675L12.6348 11.2345C12.6617 11.1359 12.7244 11.0463 12.8141 10.9835L16.3817 8.47366C16.4892 8.40195 16.6147 8.37505 16.7402 8.40195L20.8098 9.35211L22.6294 6.86914L23.3555 7.398L21.3566 10.114C21.249 10.2574 21.0697 10.3292 20.8904 10.2843L16.7223 9.31625L13.4505 11.611L11.7384 18.047C11.6846 18.2442 11.5054 18.3786 11.3082 18.3786H8.68177L4.78253 23.5507Z" fill="black"/>
<path d="M4.58557 17.4725L4.25391 16.6389L9.21984 14.6937L11.9 5.00391L12.7605 5.24593L10.0266 15.1509C9.99072 15.2854 9.89212 15.3929 9.75766 15.4467L4.58557 17.4725ZM18.9007 16.1369L18.2284 15.5453L20.4694 13.0175L19.071 9.67403L19.8957 9.32445L21.4106 12.9279C21.4733 13.0892 21.4464 13.2685 21.3299 13.403L18.9007 16.1369Z" fill="black"/>
</svg>
