<svg width="18" height="18" viewBox="0 0 18 18" fill="none" xmlns="http://www.w3.org/2000/svg">
<g clip-path="url(#clip0_1331_1826)">
<path d="M12.7591 17.4987C10.1458 17.4987 8.01953 15.3724 8.01953 12.7591C8.01953 10.1458 10.1458 8.01953 12.7591 8.01953C15.3724 8.01953 17.4987 10.1458 17.4987 12.7591C17.4987 15.3724 15.3724 17.4987 12.7591 17.4987ZM12.7591 8.7487C10.5476 8.7487 8.7487 10.5476 8.7487 12.7591C8.7487 14.9707 10.5476 16.7695 12.7591 16.7695C14.9707 16.7695 16.7695 14.9707 16.7695 12.7591C16.7695 10.5476 14.9707 8.7487 12.7591 8.7487Z" fill="black"/>
<path d="M12.7591 15.3138C12.6624 15.3138 12.5697 15.2754 12.5013 15.207C12.4329 15.1386 12.3945 15.0459 12.3945 14.9492V12.0326C12.3945 11.9359 12.4329 11.8431 12.5013 11.7748C12.5697 11.7064 12.6624 11.668 12.7591 11.668C12.8558 11.668 12.9485 11.7064 13.0169 11.7748C13.0853 11.8431 13.1237 11.9359 13.1237 12.0326V14.9492C13.1237 15.0459 13.0853 15.1386 13.0169 15.207C12.9485 15.2754 12.8558 15.3138 12.7591 15.3138Z" fill="black"/>
<path d="M12.7591 10.9362C12.9605 10.9362 13.1237 10.773 13.1237 10.5716C13.1237 10.3703 12.9605 10.207 12.7591 10.207C12.5578 10.207 12.3945 10.3703 12.3945 10.5716C12.3945 10.773 12.5578 10.9362 12.7591 10.9362Z" fill="black"/>
<path d="M4.73958 12.3958H1.09375C0.490729 12.3958 0 11.9051 0 11.3021V1.09375C0 0.490729 0.490729 0 1.09375 0H16.4062C17.0093 0 17.5 0.490729 17.5 1.09375V4.73958C17.5 5.3426 17.0093 5.83333 16.4062 5.83333H5.83333V11.3021C5.83333 11.9051 5.3426 12.3958 4.73958 12.3958ZM1.09375 0.729167C0.997056 0.729167 0.904323 0.767578 0.835951 0.835951C0.767578 0.904323 0.729167 0.997056 0.729167 1.09375V11.3021C0.729167 11.3988 0.767578 11.4915 0.835951 11.5599C0.904323 11.6283 0.997056 11.6667 1.09375 11.6667H4.73958C4.83628 11.6667 4.92901 11.6283 4.99738 11.5599C5.06576 11.4915 5.10417 11.3988 5.10417 11.3021V5.46875C5.10417 5.37206 5.14258 5.27932 5.21095 5.21095C5.27932 5.14258 5.37206 5.10417 5.46875 5.10417H16.4062C16.5029 5.10417 16.5957 5.06576 16.664 4.99738C16.7324 4.92901 16.7708 4.83628 16.7708 4.73958V1.09375C16.7708 0.997056 16.7324 0.904323 16.664 0.835951C16.5957 0.767578 16.5029 0.729167 16.4062 0.729167H1.09375Z" fill="black"/>
<path d="M5.46724 5.83333C5.37051 5.83335 5.27771 5.79507 5.20911 5.72688L0.46953 0.987292C0.403119 0.91853 0.366371 0.826436 0.367201 0.730843C0.368032 0.635251 0.406375 0.543809 0.473972 0.476212C0.541568 0.408615 0.63301 0.370272 0.728603 0.369442C0.824195 0.368611 0.91629 0.405359 0.985051 0.471771L5.72464 5.21135C5.77546 5.26234 5.81005 5.32723 5.82406 5.39785C5.83806 5.46846 5.83084 5.54164 5.80331 5.60816C5.77578 5.67468 5.72918 5.73156 5.66937 5.77163C5.60956 5.81171 5.53923 5.83317 5.46724 5.83333ZM10.5714 2.1875C10.4747 2.1875 10.382 2.14909 10.3136 2.08072C10.2452 2.01234 10.2068 1.91961 10.2068 1.82292V0.364583C10.2068 0.26789 10.2452 0.175157 10.3136 0.106784C10.382 0.0384114 10.4747 0 10.5714 0C10.6681 0 10.7608 0.0384114 10.8292 0.106784C10.8976 0.175157 10.936 0.26789 10.936 0.364583V1.82292C10.936 1.91961 10.8976 2.01234 10.8292 2.08072C10.7608 2.14909 10.6681 2.1875 10.5714 2.1875ZM6.19641 2.1875C6.09971 2.1875 6.00698 2.14909 5.93861 2.08072C5.87023 2.01234 5.83182 1.91961 5.83182 1.82292V0.364583C5.83182 0.26789 5.87023 0.175157 5.93861 0.106784C6.00698 0.0384114 6.09971 0 6.19641 0C6.2931 0 6.38583 0.0384114 6.45421 0.106784C6.52258 0.175157 6.56099 0.26789 6.56099 0.364583V1.82292C6.56099 1.91961 6.52258 2.01234 6.45421 2.08072C6.38583 2.14909 6.2931 2.1875 6.19641 2.1875ZM12.7589 5.83333C12.6622 5.83333 12.5695 5.79492 12.5011 5.72655C12.4327 5.65818 12.3943 5.56544 12.3943 5.46875V4.01042C12.3943 3.91372 12.4327 3.82099 12.5011 3.75262C12.5695 3.68424 12.6622 3.64583 12.7589 3.64583C12.8556 3.64583 12.9483 3.68424 13.0167 3.75262C13.0851 3.82099 13.1235 3.91372 13.1235 4.01042V5.46875C13.1235 5.56544 13.0851 5.65818 13.0167 5.72655C12.9483 5.79492 12.8556 5.83333 12.7589 5.83333ZM8.38391 5.83333C8.28721 5.83333 8.19448 5.79492 8.12611 5.72655C8.05773 5.65818 8.01932 5.56544 8.01932 5.46875V4.01042C8.01932 3.91372 8.05773 3.82099 8.12611 3.75262C8.19448 3.68424 8.28721 3.64583 8.38391 3.64583C8.4806 3.64583 8.57333 3.68424 8.64171 3.75262C8.71008 3.82099 8.74849 3.91372 8.74849 4.01042V5.46875C8.74849 5.56544 8.71008 5.65818 8.64171 5.72655C8.57333 5.79492 8.4806 5.83333 8.38391 5.83333Z" fill="black"/>
</g>
<defs>
<clipPath id="clip0_1331_1826">
<rect width="17.5" height="17.5" fill="white"/>
</clipPath>
</defs>
</svg>
