<svg width="53" height="63" viewBox="0 0 53 63" fill="none" xmlns="http://www.w3.org/2000/svg">
<path d="M19.6453 62.9925C19.4833 62.9926 19.3242 62.9499 19.1839 62.8689L6.43164 55.5064C6.29137 55.4254 6.17488 55.3089 6.0939 55.1686C6.01291 55.0284 5.97027 54.8693 5.97027 54.7073V50.084C5.97027 49.5744 6.38329 49.1612 6.89301 49.1612C7.40273 49.1612 7.81575 49.5744 7.81575 50.084V54.1746L12.1438 56.6733V44.7582L7.81575 42.2594V46.3931C7.81575 46.9027 7.40273 47.3159 6.89301 47.3159C6.38329 47.3159 5.97027 46.9027 5.97027 46.3931V37.3268C5.97025 37.0821 6.06744 36.8474 6.24044 36.6743L15.3017 27.6131C15.3873 27.5274 15.4891 27.4594 15.601 27.4131C15.713 27.3667 15.833 27.3428 15.9542 27.3428C16.0753 27.3428 16.1953 27.3667 16.3073 27.4131C16.4192 27.4594 16.521 27.5274 16.6067 27.6131L25.6679 36.6743C25.8409 36.8474 25.9381 37.0821 25.938 37.3268V50.863L27.7835 49.7974V45.1744C27.7835 44.6648 28.1965 44.2516 28.7063 44.2516C29.216 44.2516 29.629 44.6648 29.629 45.1744V49.7974L34.4636 52.5887V28.5979L29.629 25.8319V41.4834C29.629 41.993 29.216 42.4061 28.7063 42.4061C28.1965 42.4061 27.7835 41.993 27.7835 41.4834V21.0839L20.6253 16.9885L16.8767 19.1527V24.5743C16.8767 25.0839 16.4637 25.4971 15.954 25.4971C15.4442 25.4971 15.0312 25.0839 15.0312 24.5743V19.1527L11.5065 17.1176V28.8373C11.5065 29.3469 11.0935 29.76 10.5837 29.76C10.074 29.76 9.66099 29.3469 9.66099 28.8373V10.9622C9.66098 10.7175 9.75816 10.4828 9.93117 10.3097L19.9707 0.270289C20.0564 0.184598 20.1581 0.116623 20.2701 0.0702462C20.3821 0.0238697 20.502 0 20.6232 0C20.7444 0 20.8644 0.0238697 20.9764 0.0702462C21.0883 0.116623 21.19 0.184598 21.2757 0.270289L32.7785 11.7732C32.9515 11.9462 33.0487 12.1809 33.0487 12.4256C33.0487 12.6703 32.9515 12.905 32.7785 13.0781C32.6054 13.2511 32.3707 13.3483 32.126 13.3483C31.8813 13.3483 31.6466 13.2511 31.4735 13.0781L21.546 3.15048V15.3892L28.5528 19.398L37.8981 10.0527C37.9838 9.96702 38.0855 9.89904 38.1975 9.85267C38.3095 9.80629 38.4295 9.78242 38.5506 9.78242C38.6718 9.78242 38.7918 9.80629 38.9038 9.85267C39.0157 9.89904 39.1175 9.96702 39.2031 10.0527L47.624 18.4735C47.797 18.6466 47.8942 18.8813 47.8941 19.126V34.1872C47.8941 34.3314 47.8604 34.4735 47.7956 34.6022L44.2032 41.7377V49.6294C44.2032 49.7913 44.1605 49.9505 44.0795 50.0907C43.9986 50.231 43.8821 50.3475 43.7418 50.4285L35.8476 54.9861C35.7073 55.0671 35.5482 55.1097 35.3862 55.1097C35.2242 55.1097 35.0651 55.0671 34.9248 54.9861L28.7061 51.3958L25.9379 52.9941V58.9695C25.9379 59.1315 25.8953 59.2906 25.8143 59.4309C25.7333 59.5711 25.6168 59.6876 25.4765 59.7686L20.1063 62.8691C19.9661 62.95 19.8071 62.9926 19.6453 62.9925ZM13.9893 57.7388L19.6453 61.0043L24.0928 58.4365V52.4787C24.0926 52.4676 24.0926 52.4565 24.0928 52.4453V38.9249L13.9893 44.7582V57.7388ZM36.3093 28.5954V52.5886L42.3581 49.0964V41.5183C42.3581 41.3743 42.3918 41.2322 42.4566 41.1034L46.049 33.9679V27.3682L42.2419 25.1702L36.3093 28.5954ZM7.81575 40.1283L13.0665 43.1598L23.5127 37.1287L15.9542 29.5702L7.81575 37.7087V40.1283ZM29.6293 23.7056L35.3845 26.9983L41.319 23.572V14.7781L38.5508 12.0099L29.6291 20.9316V23.7056H29.6293ZM43.1647 23.572L46.049 25.2372V19.508L43.1647 16.6236V23.572ZM11.5067 14.9868L15.9542 17.5546L19.7007 15.3916V3.15048L11.5066 11.3444L11.5067 14.9868ZM41.0116 59.2558C40.4689 59.2558 40.0273 58.8142 40.0273 58.2715C40.0273 57.7288 40.4689 57.2873 41.0116 57.2873C41.5543 57.2873 41.9958 57.7288 41.9958 58.2715C41.9958 58.8142 41.5543 59.2558 41.0116 59.2558ZM45.1263 57.6877C43.5999 57.6877 42.3581 56.446 42.3581 54.9195C42.3581 53.3931 43.5999 52.1513 45.1263 52.1513C46.6526 52.1513 47.8945 53.3931 47.8945 54.9195C47.8945 56.446 46.6526 57.6877 45.1263 57.6877ZM45.1263 53.9968C44.6174 53.9968 44.2035 54.4108 44.2035 54.9195C44.2035 55.4284 44.6174 55.8423 45.1263 55.8423C45.6351 55.8423 46.049 55.4284 46.049 54.9195C46.049 54.4108 45.6351 53.9968 45.1263 53.9968ZM5.29359 34.5639C4.75089 34.5639 4.30933 34.1224 4.30933 33.5797C4.30933 33.037 4.75089 32.5954 5.29359 32.5954C5.83628 32.5954 6.27785 33.037 6.27785 33.5797C6.27785 34.1224 5.83628 34.5639 5.29359 34.5639ZM3.10829 31.175C2.86356 31.175 2.62886 31.0778 2.45581 30.9048C2.28276 30.7317 2.18555 30.497 2.18555 30.2523V28.4068H0.922742C0.413019 28.4068 0 27.9937 0 27.4841C0 26.9745 0.413019 26.5613 0.922742 26.5613H2.18555V24.7158C2.18555 24.2062 2.59857 23.7931 3.10829 23.7931C3.61801 23.7931 4.03103 24.2062 4.03103 24.7158V26.5613H5.29371C5.80343 26.5613 6.21645 26.9745 6.21645 27.4841C6.21645 27.9937 5.80343 28.4068 5.29371 28.4068H4.03103V30.2523C4.03103 30.497 3.93381 30.7317 3.76077 30.9048C3.58772 31.0778 3.35301 31.175 3.10829 31.175ZM5.04752 20.7251C3.52118 20.7251 2.2793 19.4834 2.2793 17.9569C2.2793 16.4305 3.52118 15.1887 5.04752 15.1887C6.57386 15.1887 7.81575 16.4305 7.81575 17.9569C7.81575 19.4834 6.57399 20.7251 5.04752 20.7251ZM5.04752 17.0342C4.53866 17.0342 4.12478 17.4481 4.12478 17.9569C4.12478 18.4658 4.53866 18.8797 5.04752 18.8797C5.55639 18.8797 5.97027 18.4658 5.97027 17.9569C5.97027 17.4481 5.55639 17.0342 5.04752 17.0342ZM51.7903 16.5038C51.2476 16.5038 50.8061 16.0622 50.8061 15.5195C50.8061 14.9768 51.2476 14.5353 51.7903 14.5353C52.333 14.5353 52.7746 14.9768 52.7746 15.5195C52.7746 16.0622 52.333 16.5038 51.7903 16.5038ZM46.9718 14.8265C46.0462 14.8265 45.7566 13.7753 45.6174 13.2701C45.4641 12.7139 45.3262 12.0076 45.1928 11.3246C45.0814 10.7537 44.9202 9.92882 44.8044 9.57448C44.5456 9.47077 44.016 9.32571 43.6455 9.22409C42.1361 8.81045 40.9439 8.48368 40.9439 7.43729C40.9439 6.3909 42.1361 6.06413 43.6455 5.65062C44.0159 5.54911 44.5454 5.40394 44.8044 5.30022C44.9202 4.94601 45.0814 4.12095 45.1928 3.55008C45.3262 2.86713 45.4641 2.1608 45.6174 1.60457C45.7566 1.0994 46.0461 0.0482161 46.9718 0.0482161C47.8975 0.0482161 48.187 1.0994 48.3261 1.60457C48.4794 2.1608 48.6173 2.86713 48.7507 3.55008C48.8622 4.12095 49.0233 4.94589 49.1391 5.30022C49.398 5.40394 49.9276 5.54899 50.2981 5.65062C51.8076 6.06425 52.9996 6.3909 52.9996 7.43729C52.9996 8.48368 51.8074 8.81045 50.2981 9.22409C49.9275 9.32559 49.3981 9.47077 49.1391 9.57448C49.0233 9.92869 48.8622 10.7537 48.7507 11.3246C48.6173 12.0076 48.4794 12.7139 48.3261 13.2701C48.187 13.7753 47.8975 14.8265 46.9718 14.8265ZM44.1081 7.43729L44.1333 7.4443C45.2198 7.74204 45.8031 7.9138 46.1542 8.26468C46.5089 8.61951 46.6604 9.22089 46.9719 10.8055C47.2833 9.22089 47.4349 8.61939 47.7894 8.26481C48.1406 7.91367 48.7239 7.74192 49.8105 7.44418L49.8357 7.43729L49.8106 7.4304C48.7239 7.13266 48.1406 6.96091 47.7894 6.6099C47.4349 6.2552 47.2834 5.65381 46.9719 4.06904C46.6605 5.65369 46.5089 6.2552 46.1543 6.60978C45.8032 6.96091 45.2198 7.13266 44.1332 7.43028L44.1081 7.43729ZM44.9197 9.6285C44.9198 9.6285 44.9198 9.6285 44.9197 9.6285V9.6285Z" fill="black"/>
</svg>
