<svg width="61" height="42" viewBox="0 0 61 42" fill="none" xmlns="http://www.w3.org/2000/svg">
<path d="M57.3607 4.12357H34.5057C34.4805 3.07002 34.0442 2.06812 33.2901 1.33192C32.5361 0.595719 31.524 0.183594 30.4701 0.183594C29.4163 0.183594 28.4042 0.595719 27.6502 1.33192C26.8961 2.06812 26.4598 3.07002 26.4346 4.12357H3.57967C2.81046 4.12361 2.06805 4.40614 1.49343 4.9175C0.918813 5.42887 0.552 6.13346 0.462656 6.89746C0.373312 7.66146 0.567659 8.43167 1.00879 9.06182C1.44992 9.69197 2.10711 10.1382 2.85556 10.3157L2.93014 23.2777C2.96147 26.5866 4.15484 29.7792 6.30163 32.2973C8.44841 34.8154 11.412 36.4988 14.6742 37.0533C14.4039 37.4708 14.2512 37.9535 14.2322 38.4506C14.2133 38.9477 14.3288 39.4406 14.5667 39.8775C14.8045 40.3144 15.1558 40.679 15.5835 40.9329C16.0112 41.1868 16.4996 41.3206 16.997 41.3202H43.9439C44.4402 41.3206 44.9274 41.1875 45.3544 40.9346C45.7815 40.6818 46.1326 40.3188 46.3709 39.8835C46.6093 39.4482 46.726 38.9568 46.709 38.4608C46.6919 37.9648 46.5417 37.4826 46.274 37.0647C49.5713 36.5215 52.5688 34.8255 54.7324 32.2787C56.8961 29.7319 58.0854 26.4997 58.0885 23.1579L58.0861 10.3153C58.8345 10.1377 59.4916 9.69137 59.9326 9.06115C60.3736 8.43093 60.5678 7.66069 60.4783 6.89672C60.3888 6.13275 60.0218 5.42825 59.4471 4.91702C58.8724 4.40579 58.1299 4.12343 57.3607 4.12357ZM30.4701 1.6475C31.1354 1.64756 31.7748 1.90561 32.2538 2.36738C32.7328 2.82915 33.0141 3.45868 33.0386 4.12357H27.9017C27.9262 3.45871 28.2075 2.82922 28.6864 2.36746C29.1654 1.90569 29.8048 1.64762 30.4701 1.6475ZM8.1385 32.1252C6.96196 30.968 6.0256 29.5898 5.38318 28.0698C4.74076 26.5497 4.40493 24.9178 4.39498 23.2675L4.38375 21.3919C5.61151 21.4816 6.81273 21.7938 7.92878 22.3133C11.0527 23.7473 13.533 26.7105 15.184 30.8281C15.8218 32.4321 16.6263 34.4505 18.6321 35.7874H17.0528C13.7134 35.7965 10.507 34.4793 8.1385 32.1252ZM43.9439 39.8554H16.9965C16.6513 39.8554 16.3201 39.7182 16.076 39.4741C15.8319 39.23 15.6947 38.8989 15.6947 38.5536C15.6947 38.2084 15.8319 37.8773 16.076 37.6331C16.3201 37.389 16.6513 37.2519 16.9965 37.2519H43.9439C44.2892 37.2519 44.6203 37.389 44.8644 37.6331C45.1085 37.8773 45.2457 38.2084 45.2457 38.5536C45.2457 38.8989 45.1085 39.23 44.8644 39.4741C44.6203 39.7182 44.2892 39.8554 43.9439 39.8554ZM49.513 34.516C47.7844 35.3561 45.8869 35.7908 43.965 35.787H22.6424C18.4065 34.9627 17.4704 32.6132 16.5445 30.2845C14.2889 24.6594 10.8732 22.0312 8.45515 20.9432C7.16965 20.3552 5.78675 20.0093 4.37581 19.9228L4.32113 10.4014H16.4228C16.7392 12.1691 17.966 17.0676 22.1682 20.2342C25.5188 22.759 29.9374 23.5586 35.303 22.6109C40.2475 21.7375 43.975 22.4486 46.3826 24.7241C48.365 26.5977 49.1041 29.2385 49.3749 31.1241C49.5344 32.2473 49.5807 33.3836 49.513 34.516ZM52.9176 32.0869C52.3346 32.6693 51.6966 33.194 51.0126 33.6536C51.0335 31.3419 50.6263 26.7254 47.3952 23.6655C44.6325 21.0492 40.4784 20.2088 35.0476 21.1681C30.1057 22.0409 26.0726 21.3359 23.0611 19.0724C19.4866 16.3859 18.2801 12.1597 17.9191 10.4009H24.1555C23.5347 13.1177 23.9545 15.5278 25.3533 17.1147C27.2567 19.2738 30.7908 19.9147 35.8563 19.0199C48.3819 16.8072 54.4353 21.3811 56.6118 23.6952C56.4861 26.859 55.1662 29.8576 52.918 32.0872L52.9176 32.0869ZM50.9823 18.4116C46.6489 16.8203 41.4746 16.5397 35.6015 17.5769C31.1372 18.3656 27.973 17.8706 26.4522 16.1455C24.9338 14.4236 25.2958 11.8352 25.6643 10.4009H56.6212L56.6234 21.677C55.3444 20.5637 53.5115 19.3404 50.9823 18.4116ZM57.3607 8.93605H3.57967C3.13575 8.93605 2.71001 8.75971 2.3961 8.4458C2.0822 8.1319 1.90585 7.70616 1.90585 7.26223C1.90585 6.81831 2.0822 6.39256 2.3961 6.07866C2.71001 5.76476 3.13575 5.58841 3.57967 5.58841H57.3607C57.8047 5.58841 58.2304 5.76476 58.5443 6.07866C58.8582 6.39256 59.0346 6.81831 59.0346 7.26223C59.0346 7.70616 58.8582 8.1319 58.5443 8.4458C58.2304 8.75971 57.8047 8.93605 57.3607 8.93605Z" fill="black"/>
</svg>
