<svg width="61" height="48" viewBox="0 0 61 48" fill="none" xmlns="http://www.w3.org/2000/svg">
<path d="M60.062 36.1148L56.8558 14.774C56.8331 14.6237 56.772 14.4819 56.6782 14.3623C56.5844 14.2428 56.4613 14.1495 56.3208 14.0917L48.6485 10.9374L38.3047 0.712902C38.2121 0.621349 38.1004 0.551512 37.9776 0.508444C37.8547 0.465376 37.7238 0.450154 37.5944 0.463881L16.7024 2.6705C16.5597 2.68558 16.4228 2.73537 16.3038 2.81553C16.1848 2.89569 16.0872 3.00377 16.0196 3.13034L12.7735 9.20529C12.6653 9.41071 12.6429 9.65058 12.7109 9.87252C12.779 10.0945 12.9322 10.2805 13.1369 10.3899C13.3417 10.4993 13.5814 10.5233 13.8038 10.4566C14.0261 10.3898 14.2131 10.2379 14.3237 10.0338L16.5123 5.93801L19.323 16.6765L17.9082 23.9537L9.80293 18.4965L12.4031 13.6301C12.4588 13.5282 12.4939 13.4163 12.5061 13.3008C12.5183 13.1853 12.5076 13.0685 12.4744 12.9571C12.4412 12.8458 12.3863 12.7422 12.3128 12.6522C12.2394 12.5622 12.1488 12.4877 12.0463 12.433C11.9439 12.3782 11.8316 12.3443 11.7159 12.3332C11.6003 12.3222 11.4836 12.3341 11.3726 12.3684C11.2617 12.4027 11.1586 12.4587 11.0693 12.533C10.9801 12.6074 10.9065 12.6987 10.8528 12.8017L8.00834 18.1253L0.550824 21.9409C0.386468 22.025 0.252768 22.1587 0.168692 22.3231C0.0846165 22.4874 0.0544348 22.6741 0.0824293 22.8566L2.25507 37.0174C2.27559 37.1514 2.32685 37.2788 2.40481 37.3897C2.48278 37.5005 2.58534 37.5919 2.70448 37.6565L21.5 47.8599C21.6287 47.9298 21.7728 47.9664 21.9193 47.9665H32.7402C32.8546 47.9665 32.9676 47.9442 33.0735 47.9008L47.9163 41.8177C48.1311 41.7287 48.3018 41.5582 48.3912 41.3436C48.4806 41.129 48.4812 40.8877 48.3931 40.6725C48.305 40.4574 48.1352 40.286 47.9209 40.1957C47.7066 40.1055 47.4653 40.1039 47.2499 40.1911L34.1029 45.5793L39.8979 25.9918L55.3164 16.3598L58.2212 35.6939L51.035 38.6396C50.9275 38.6829 50.8296 38.747 50.747 38.8282C50.6644 38.9095 50.5987 39.0063 50.5536 39.113C50.5085 39.2198 50.485 39.3344 50.4844 39.4503C50.4838 39.5662 50.5061 39.681 50.55 39.7882C50.594 39.8954 50.6587 39.9929 50.7405 40.075C50.8222 40.1571 50.9194 40.2223 51.0265 40.2667C51.1335 40.3111 51.2482 40.3339 51.3641 40.3338C51.48 40.3337 51.5947 40.3106 51.7017 40.266L59.5262 37.0586C59.7083 36.984 59.86 36.8504 59.9572 36.6793C60.0543 36.5082 60.0912 36.3094 60.062 36.1148ZM20.7142 15.0493L17.9036 4.31123L35.025 2.50281L20.7142 15.0493ZM8.59286 19.8007L14.7658 23.9568L3.77228 22.2671L8.59286 19.8007ZM2.00147 23.7734L17.7488 26.1939L18.8198 33.0162C18.8561 33.2464 18.9822 33.4528 19.1706 33.5901C19.3589 33.7274 19.5941 33.7842 19.8244 33.7481C20.0546 33.712 20.2611 33.5858 20.3984 33.3974C20.5356 33.2091 20.5924 32.9739 20.5563 32.7436L19.4098 25.441L21.0294 17.1106L37.651 2.53843L47.0246 11.804L38.4147 24.9412C38.3683 25.0133 38.3329 25.0919 38.3095 25.1744L38.307 25.1737L32.0837 46.2088H22.6709L21.1926 36.7959C21.1537 36.5682 21.0266 36.3649 20.8389 36.2302C20.6513 36.0954 20.4181 36.0399 20.1898 36.0758C19.9616 36.1116 19.7566 36.2359 19.6193 36.4217C19.482 36.6075 19.4233 36.8399 19.456 37.0686L20.775 45.4664L3.92638 36.3197L2.00147 23.7734ZM48.491 12.7731L54.0688 15.0664L42.0791 22.5565L48.491 12.7731Z" fill="black"/>
<path d="M53.5248 19.4958C53.2917 19.4958 53.0681 19.5884 52.9033 19.7532C52.7385 19.918 52.6459 20.1416 52.6459 20.3747V20.3864C52.6459 20.8718 53.0393 21.2594 53.5248 21.2594C54.0103 21.2594 54.4037 20.86 54.4037 20.3747C54.4037 19.8893 54.0103 19.4958 53.5248 19.4958ZM53.7929 23.2422V23.2539C53.7929 23.7393 54.1863 24.1328 54.6718 24.1328C55.1573 24.1328 55.5507 23.7393 55.5507 23.2539V23.2422C55.5507 22.7568 55.1573 22.3633 54.6718 22.3633C54.1863 22.3633 53.7929 22.7568 53.7929 23.2422ZM51.1899 22.8892V22.901C51.1899 23.3864 51.5833 23.7799 52.0689 23.7799C52.5544 23.7799 52.9478 23.3864 52.9478 22.901V22.8892C52.9478 22.4039 52.5544 22.0103 52.0689 22.0103C51.5833 22.0103 51.1899 22.4039 51.1899 22.8892ZM24.3251 18.2204C24.5582 18.2204 24.7818 18.1278 24.9466 17.963C25.1114 17.7982 25.204 17.5746 25.204 17.3415V17.3298C25.204 17.0967 25.1114 16.8731 24.9466 16.7083C24.7818 16.5435 24.5582 16.4509 24.3251 16.4509C24.092 16.4509 23.8685 16.5435 23.7037 16.7083C23.5388 16.8731 23.4462 17.0967 23.4462 17.3298V17.3415C23.4462 17.5746 23.5388 17.7982 23.7037 17.963C23.8685 18.1278 24.092 18.2204 24.3251 18.2204ZM26.3486 15.9594C26.5817 15.9594 26.8053 15.8668 26.9701 15.702C27.1349 15.5372 27.2275 15.3136 27.2275 15.0805V15.0688C27.2275 14.8357 27.1349 14.6121 26.9701 14.4473C26.8053 14.2825 26.5817 14.1899 26.3486 14.1899C26.1155 14.1899 25.892 14.2825 25.7271 14.4473C25.5623 14.6121 25.4697 14.8357 25.4697 15.0688V15.0805C25.4697 15.3136 25.5623 15.5372 25.7271 15.702C25.892 15.8668 26.1155 15.9594 26.3486 15.9594ZM26.3611 17.8923V17.904C26.3611 18.1371 26.4537 18.3607 26.6186 18.5255C26.7834 18.6903 27.0069 18.7829 27.24 18.7829C27.4731 18.7829 27.6967 18.6903 27.8615 18.5255C28.0263 18.3607 28.1189 18.1371 28.1189 17.904V17.8923C28.1189 17.6592 28.0263 17.4356 27.8615 17.2708C27.6967 17.106 27.4731 17.0134 27.24 17.0134C27.0069 17.0134 26.7834 17.106 26.6186 17.2708C26.4537 17.4356 26.3611 17.6592 26.3611 17.8923ZM6.05468 33.8221C5.82158 33.8221 5.59803 33.9147 5.4332 34.0795C5.26838 34.2443 5.17578 34.4679 5.17578 34.701V34.7127C5.17578 34.9458 5.26838 35.1693 5.4332 35.3342C5.59803 35.499 5.82158 35.5916 6.05468 35.5916C6.28778 35.5916 6.51133 35.499 6.67616 35.3342C6.84098 35.1693 6.93358 34.9458 6.93358 34.7127V34.701C6.93358 34.4679 6.84098 34.2443 6.67616 34.0795C6.51133 33.9147 6.28778 33.8221 6.05468 33.8221ZM8.59529 35.37C8.36219 35.37 8.13864 35.4626 7.97381 35.6274C7.80899 35.7922 7.71639 36.0158 7.71639 36.2489V36.2606C7.71639 36.746 8.1099 37.1336 8.59529 37.1336C9.08068 37.1336 9.47419 36.7343 9.47419 36.2489C9.47419 35.7635 9.08068 35.37 8.59529 35.37ZM8.6533 32.6427C8.4202 32.6427 8.19665 32.7353 8.03182 32.9001C7.86699 33.0649 7.7744 33.2885 7.7744 33.5216V33.5333C7.7744 34.0187 8.16791 34.4064 8.6533 34.4064C9.13868 34.4064 9.5322 34.007 9.5322 33.5216C9.5322 33.0362 9.13868 32.6427 8.6533 32.6427ZM20.0051 4.92969C19.772 4.92969 19.5484 5.02229 19.3836 5.18711C19.2188 5.35194 19.1262 5.57549 19.1262 5.80859V5.82031C19.1262 6.30569 19.5197 6.69335 20.0051 6.69335C20.4904 6.69335 20.884 6.29397 20.884 5.80859C20.884 5.3232 20.4904 4.92969 20.0051 4.92969ZM11.8285 17.8864V17.8982C11.8285 18.1312 11.9211 18.3548 12.0859 18.5196C12.2507 18.6845 12.4743 18.7771 12.7074 18.7771C12.9405 18.7771 13.164 18.6845 13.3288 18.5196C13.4937 18.3548 13.5863 18.1312 13.5863 17.8982V17.8864C13.5863 17.6533 13.4937 17.4298 13.3288 17.265C13.164 17.1001 12.9405 17.0075 12.7074 17.0075C12.4743 17.0075 12.2507 17.1001 12.0859 17.265C11.9211 17.4298 11.8285 17.6533 11.8285 17.8864ZM14.6762 15.5548C14.6762 15.3217 14.5836 15.0981 14.4188 14.9333C14.254 14.7685 14.0304 14.6759 13.7973 14.6759C13.5642 14.6759 13.3407 14.7685 13.1758 14.9333C13.011 15.0981 12.9184 15.3217 12.9184 15.5548V15.5665C12.9184 16.0519 13.3119 16.4395 13.7973 16.4395C14.2827 16.4395 14.6762 16.0402 14.6762 15.5548Z" fill="black"/>
</svg>
