<svg width="21" height="20" viewBox="0 0 21 20" fill="none" xmlns="http://www.w3.org/2000/svg">
<path d="M18.5271 9.49219H2.46909C2.0432 9.49219 1.63476 9.66137 1.33361 9.96252C1.03246 10.2637 0.863281 10.6721 0.863281 11.098V18.1635C0.863281 18.5894 1.03246 18.9979 1.33361 19.299C1.63476 19.6002 2.0432 19.7693 2.46909 19.7693H18.5271C18.953 19.7693 19.3615 19.6002 19.6626 19.299C19.9638 18.9979 20.1329 18.5894 20.1329 18.1635V11.098C20.1329 10.6721 19.9638 10.2637 19.6626 9.96252C19.3615 9.66137 18.953 9.49219 18.5271 9.49219ZM19.4906 18.1635C19.4899 18.4188 19.3881 18.6635 19.2076 18.844C19.0271 19.0245 18.7824 19.1263 18.5271 19.127H2.46909C2.21379 19.1263 1.96917 19.0245 1.78864 18.844C1.60812 18.6635 1.50637 18.4188 1.5056 18.1635V11.098C1.50637 10.8427 1.60812 10.5981 1.78864 10.4175C1.96917 10.237 2.21379 10.1353 2.46909 10.1345H18.5271C18.7824 10.1353 19.0271 10.237 19.2076 10.4175C19.3881 10.5981 19.4899 10.8427 19.4906 11.098V18.1635Z" fill="black"/>
<path d="M8.88891 10.7773H3.42918C3.08847 10.7773 2.76171 10.9127 2.52079 11.1536C2.27988 11.3945 2.14453 11.7213 2.14453 12.062V17.2006C2.14453 17.5413 2.27988 17.868 2.52079 18.1089C2.76171 18.3499 3.08847 18.4852 3.42918 18.4852H11.137C11.4778 18.4852 11.8045 18.3499 12.0454 18.1089C12.2863 17.868 12.4217 17.5413 12.4217 17.2006V16.8794C12.4217 16.7942 12.3879 16.7125 12.3276 16.6523C12.2674 16.5921 12.1857 16.5582 12.1005 16.5582C12.0153 16.5582 11.9337 16.5921 11.8734 16.6523C11.8132 16.7125 11.7794 16.7942 11.7794 16.8794V17.2006C11.7794 17.3709 11.7117 17.5343 11.5912 17.6548C11.4708 17.7752 11.3074 17.8429 11.137 17.8429H3.42918C3.25882 17.8429 3.09544 17.7752 2.97499 17.6548C2.85453 17.5343 2.78685 17.3709 2.78685 17.2006V12.062C2.78685 11.8916 2.85453 11.7283 2.97499 11.6078C3.09544 11.4873 3.25882 11.4197 3.42918 11.4197H8.88891C9.65522 11.4206 10.3899 11.7254 10.9317 12.2673C11.4736 12.8092 11.7784 13.5438 11.7794 14.3101V14.6313C11.7794 14.7165 11.8132 14.7981 11.8734 14.8584C11.9337 14.9186 12.0153 14.9524 12.1005 14.9524C12.1857 14.9524 12.2674 14.9186 12.3276 14.8584C12.3879 14.7981 12.4217 14.7165 12.4217 14.6313V14.3101C12.4206 13.3735 12.048 12.4756 11.3857 11.8133C10.7235 11.151 9.82553 10.7784 8.88891 10.7773Z" fill="black"/>
<path d="M6.32031 13.6666C6.32031 13.8572 6.37682 14.0434 6.48269 14.2019C6.58856 14.3603 6.73903 14.4838 6.91509 14.5568C7.09114 14.6297 7.28486 14.6488 7.47176 14.6116C7.65866 14.5744 7.83034 14.4826 7.96508 14.3479C8.09983 14.2131 8.19159 14.0415 8.22877 13.8546C8.26594 13.6677 8.24686 13.474 8.17394 13.2979C8.10101 13.1218 7.97752 12.9714 7.81908 12.8655C7.66063 12.7596 7.47435 12.7031 7.2838 12.7031C7.02826 12.7031 6.7832 12.8046 6.60251 12.9853C6.42182 13.166 6.32031 13.4111 6.32031 13.6666ZM7.60496 13.6666C7.60496 13.7301 7.58612 13.7922 7.55083 13.845C7.51554 13.8979 7.46538 13.939 7.4067 13.9633C7.34801 13.9876 7.28344 13.994 7.22114 13.9816C7.15884 13.9692 7.10162 13.9386 7.0567 13.8937C7.01179 13.8488 6.9812 13.7916 6.96881 13.7293C6.95641 13.667 6.96277 13.6024 6.98708 13.5437C7.01139 13.485 7.05255 13.4349 7.10537 13.3996C7.15818 13.3643 7.22028 13.3454 7.2838 13.3454C7.36897 13.3454 7.45066 13.3793 7.51089 13.4395C7.57112 13.4997 7.60496 13.5814 7.60496 13.6666ZM14.9917 13.6666C14.9917 13.8572 15.0482 14.0434 15.154 14.2019C15.2599 14.3603 15.4104 14.4838 15.5864 14.5568C15.7625 14.6297 15.9562 14.6488 16.1431 14.6116C16.33 14.5744 16.5017 14.4826 16.6364 14.3479C16.7712 14.2131 16.8629 14.0415 16.9001 13.8546C16.9373 13.6677 16.9182 13.474 16.8453 13.2979C16.7724 13.1218 16.6489 12.9714 16.4904 12.8655C16.332 12.7596 16.1457 12.7031 15.9551 12.7031C15.6996 12.7031 15.4545 12.8046 15.2739 12.9853C15.0932 13.166 14.9917 13.4111 14.9917 13.6666ZM16.2763 13.6666C16.2763 13.7301 16.2575 13.7922 16.2222 13.845C16.1869 13.8979 16.1367 13.939 16.078 13.9633C16.0194 13.9876 15.9548 13.994 15.8925 13.9816C15.8302 13.9692 15.773 13.9386 15.7281 13.8937C15.6831 13.8488 15.6525 13.7916 15.6402 13.7293C15.6278 13.667 15.6341 13.6024 15.6584 13.5437C15.6827 13.485 15.7239 13.4349 15.7767 13.3996C15.8295 13.3643 15.8916 13.3454 15.9551 13.3454C16.0403 13.3454 16.122 13.3793 16.1822 13.4395C16.2425 13.4997 16.2763 13.5814 16.2763 13.6666Z" fill="black"/>
<path d="M17.5661 10.7765H14.3544C14.0137 10.7765 13.687 10.9118 13.4461 11.1527C13.2051 11.3937 13.0698 11.7204 13.0698 12.0611V17.1997C13.0698 17.5404 13.2051 17.8672 13.4461 18.1081C13.687 18.349 14.0137 18.4843 14.3544 18.4843H17.5661C17.9068 18.4843 18.2335 18.349 18.4744 18.1081C18.7154 17.8672 18.8507 17.5404 18.8507 17.1997V16.8785C18.8507 16.7934 18.8169 16.7117 18.7566 16.6514C18.6964 16.5912 18.6147 16.5574 18.5295 16.5574C18.4444 16.5574 18.3627 16.5912 18.3024 16.6514C18.2422 16.7117 18.2084 16.7934 18.2084 16.8785V17.1997C18.2084 17.3701 18.1407 17.5334 18.0202 17.6539C17.8998 17.7744 17.7364 17.842 17.5661 17.842H14.3544C14.1841 17.842 14.0207 17.7744 13.9003 17.6539C13.7798 17.5334 13.7121 17.3701 13.7121 17.1997V12.0611C13.7121 11.8908 13.7798 11.7274 13.9003 11.6069C14.0207 11.4865 14.1841 11.4188 14.3544 11.4188H17.5661C17.7364 11.4188 17.8998 11.4865 18.0202 11.6069C18.1407 11.7274 18.2084 11.8908 18.2084 12.0611V14.6304C18.2084 14.7156 18.2422 14.7973 18.3024 14.8575C18.3627 14.9177 18.4444 14.9516 18.5295 14.9516C18.6147 14.9516 18.6964 14.9177 18.7566 14.8575C18.8169 14.7973 18.8507 14.7156 18.8507 14.6304V12.0611C18.8507 11.7204 18.7154 11.3937 18.4744 11.1527C18.2335 10.9118 17.9068 10.7765 17.5661 10.7765ZM19.493 3.71094H13.0698C12.7291 3.71094 12.4023 3.84628 12.1614 4.0872C11.9205 4.32812 11.7852 4.65487 11.7852 4.99558V5.31674C11.7852 5.40192 11.819 5.48361 11.8792 5.54384C11.9395 5.60407 12.0211 5.6379 12.1063 5.6379C12.1915 5.6379 12.2732 5.60407 12.3334 5.54384C12.3936 5.48361 12.4275 5.40192 12.4275 5.31674V4.99558C12.4275 4.82523 12.4952 4.66185 12.6156 4.54139C12.7361 4.42093 12.8994 4.35326 13.0698 4.35326H19.493V6.92255H18.2084V5.6379C18.2084 5.46755 18.1407 5.30417 18.0202 5.18371C17.8998 5.06326 17.7364 4.99558 17.5661 4.99558H14.049C13.9638 4.99558 13.8822 5.02942 13.8219 5.08965C13.7617 5.14988 13.7279 5.23157 13.7279 5.31674C13.7279 5.40192 13.7617 5.48361 13.8219 5.54384C13.8822 5.60407 13.9638 5.6379 14.049 5.6379H17.5661V7.24371C17.5661 7.32889 17.5999 7.41058 17.6601 7.47081C17.7204 7.53103 17.802 7.56487 17.8872 7.56487H19.8142C19.8994 7.56487 19.9811 7.53103 20.0413 7.47081C20.1015 7.41058 20.1353 7.32889 20.1353 7.24371V4.35326C20.1353 4.18291 20.0677 4.01953 19.9472 3.89907C19.8268 3.77861 19.6634 3.71094 19.493 3.71094Z" fill="black"/>
<path d="M12.1206 8.32156C12.2201 8.48381 12.3596 8.61769 12.5259 8.71029C12.6921 8.80288 12.8794 8.85107 13.0697 8.85019C13.2595 8.84999 13.4462 8.80129 13.612 8.7087C13.7777 8.61611 13.9171 8.4827 14.0168 8.32114C14.1166 8.15957 14.1734 7.9752 14.1818 7.78552C14.1903 7.59584 14.1502 7.40714 14.0653 7.23732L13.5893 6.2809H13.712C13.7972 6.2809 13.8789 6.24706 13.9391 6.18683C13.9993 6.12661 14.0332 6.04492 14.0332 5.95974C14.0332 5.87456 13.9993 5.79287 13.9391 5.73264C13.8789 5.67241 13.7972 5.63858 13.712 5.63858H12.4274C12.3422 5.63858 12.2605 5.67241 12.2003 5.73264C12.14 5.79287 12.1062 5.87456 12.1062 5.95974C12.1062 6.04492 12.14 6.12661 12.2003 6.18683C12.2605 6.24706 12.3422 6.2809 12.4274 6.2809H12.55L12.0718 7.23764C11.9862 7.40729 11.9457 7.59614 11.9542 7.78599C11.9628 7.97584 12.0201 8.16029 12.1206 8.32156ZM13.4724 7.98305C13.4308 8.05243 13.3717 8.10968 13.301 8.14912C13.2303 8.18856 13.1506 8.20882 13.0697 8.20787C12.9892 8.20795 12.91 8.18745 12.8397 8.14829C12.7693 8.10914 12.7102 8.05264 12.6679 7.98417C12.6255 7.91571 12.6014 7.83755 12.5978 7.75714C12.5943 7.67672 12.6113 7.59672 12.6474 7.52476L13.0697 6.67786L13.493 7.52444C13.5297 7.59608 13.5471 7.67605 13.5435 7.75647C13.5399 7.83689 13.5154 7.91498 13.4724 7.98305ZM19.8141 8.20787H17.8871C17.8019 8.20787 17.7202 8.2417 17.66 8.30193C17.5998 8.36216 17.5659 8.44385 17.5659 8.52903C17.5659 8.61421 17.5998 8.69589 17.66 8.75612C17.7202 8.81635 17.8019 8.85019 17.8871 8.85019H19.8141C19.8992 8.85019 19.9809 8.81635 20.0412 8.75612C20.1014 8.69589 20.1352 8.61421 20.1352 8.52903C20.1352 8.44385 20.1014 8.36216 20.0412 8.30193C19.9809 8.2417 19.8992 8.20787 19.8141 8.20787ZM19.8141 0.5H13.3908C13.3057 0.5 13.224 0.533837 13.1637 0.594066C13.1035 0.654295 13.0697 0.735984 13.0697 0.821161V1.78464C13.0695 1.86601 13.1002 1.94443 13.1555 2.00404C13.2109 2.06366 13.2869 2.10003 13.368 2.10581L17.5659 2.40481V2.74813C17.5659 2.83331 17.5998 2.91499 17.66 2.97522C17.7202 3.03545 17.8019 3.06929 17.8871 3.06929H19.8141C19.8992 3.06929 19.9809 3.03545 20.0412 2.97522C20.1014 2.91499 20.1352 2.83331 20.1352 2.74813V0.821161C20.1352 0.735984 20.1014 0.654295 20.0412 0.594066C19.9809 0.533837 19.8992 0.5 19.8141 0.5ZM19.4929 2.42697H18.2083V2.10581C18.2085 2.02444 18.1778 1.94602 18.1224 1.88641C18.067 1.82679 17.9911 1.79042 17.9099 1.78464L13.712 1.48564V1.14232H19.4929V2.42697Z" fill="black"/>
</svg>
