<svg width="19" height="18" viewBox="0 0 19 18" fill="none" xmlns="http://www.w3.org/2000/svg">
<path d="M14.8034 11.1542C14.4348 10.7703 13.9901 10.5651 13.5189 10.5651C13.0514 10.5651 12.603 10.7665 12.2192 11.1504L11.0183 12.3475C10.9195 12.2943 10.8207 12.2449 10.7256 12.1955C10.5888 12.1271 10.4596 12.0625 10.3494 11.994C9.22451 11.2796 8.20223 10.3485 7.22174 9.14381C6.7467 8.54335 6.42747 8.03791 6.19565 7.52487C6.50728 7.23984 6.79611 6.94342 7.07733 6.65839C7.18374 6.55198 7.29015 6.44177 7.39656 6.33536C8.19463 5.5373 8.19463 4.50361 7.39656 3.70554L6.35907 2.66805C6.24126 2.55024 6.11965 2.42863 6.00564 2.30702C5.77762 2.0714 5.5382 1.82818 5.29118 1.60016C4.92255 1.23533 4.48171 1.04151 4.01807 1.04151C3.55443 1.04151 3.10599 1.23533 2.72596 1.60016L2.71836 1.60776L1.42625 2.91127C0.939804 3.39771 0.66238 3.99056 0.601575 4.67842C0.510367 5.78812 0.837195 6.82181 1.08802 7.49826C1.70367 9.15901 2.62335 10.6981 3.99527 12.3475C5.65981 14.3351 7.66258 15.9046 9.95038 17.0105C10.8245 17.4247 11.9912 17.915 13.2947 17.9986C13.3745 18.0024 13.4581 18.0062 13.5341 18.0062C14.412 18.0062 15.1492 17.6907 15.7269 17.0637C15.7307 17.0561 15.7383 17.0523 15.7421 17.0447C15.9397 16.8053 16.1677 16.5886 16.4071 16.3568C16.5705 16.201 16.7378 16.0376 16.9012 15.8666C17.2774 15.4751 17.475 15.0191 17.475 14.5517C17.475 14.0804 17.2736 13.6282 16.8898 13.2482L14.8034 11.1542ZM16.1639 15.1559C16.1601 15.1559 16.1601 15.1597 16.1639 15.1559C16.0157 15.3155 15.8637 15.4599 15.7003 15.6196C15.4532 15.8552 15.2024 16.1022 14.9668 16.3796C14.583 16.7901 14.1307 16.9839 13.5379 16.9839C13.4809 16.9839 13.4201 16.9839 13.3631 16.9801C12.2344 16.9079 11.1855 16.467 10.3988 16.0908C8.24783 15.0495 6.35907 13.5712 4.78953 11.6976C3.49362 10.1357 2.62715 8.69157 2.0533 7.14103C1.69987 6.19475 1.57066 5.45749 1.62766 4.76203C1.66567 4.31739 1.83668 3.94876 2.15211 3.63333L3.44802 2.33742C3.63424 2.16261 3.83185 2.0676 4.02567 2.0676C4.26509 2.0676 4.45891 2.21201 4.58052 2.33362L4.59192 2.34502C4.82374 2.56164 5.04416 2.78586 5.27598 3.02528C5.39379 3.14689 5.5154 3.2685 5.63701 3.39391L6.6745 4.4314C7.07733 4.83424 7.07733 5.20667 6.6745 5.6095C6.56429 5.71971 6.45788 5.82992 6.34767 5.93633C6.02844 6.26316 5.72441 6.56718 5.39379 6.86361C5.38619 6.87121 5.37858 6.87501 5.37478 6.88261C5.04796 7.20944 5.10876 7.52867 5.17717 7.74529L5.18857 7.77949C5.45839 8.43314 5.83842 9.0488 6.41607 9.78226L6.41987 9.78606C7.46876 11.0782 8.57466 12.0853 9.79456 12.8567C9.95038 12.9555 10.11 13.0353 10.262 13.1113C10.3988 13.1798 10.528 13.2444 10.6382 13.3128C10.6534 13.3204 10.6686 13.3318 10.6838 13.3394C10.8131 13.404 10.9347 13.4344 11.0601 13.4344C11.3755 13.4344 11.5731 13.2368 11.6377 13.1721L12.9374 11.8724C13.0666 11.7432 13.2719 11.5874 13.5113 11.5874C13.7469 11.5874 13.9407 11.7356 14.0585 11.8648L14.0661 11.8724L16.1601 13.9664C16.5515 14.3541 16.5515 14.7531 16.1639 15.1559ZM10.3038 4.28319C11.2995 4.4504 12.204 4.92164 12.926 5.6437C13.6481 6.36577 14.1155 7.27024 14.2865 8.26593C14.3284 8.51675 14.545 8.69157 14.792 8.69157C14.8224 8.69157 14.849 8.68777 14.8794 8.68397C15.1606 8.63836 15.3468 8.37234 15.3012 8.09111C15.096 6.88641 14.526 5.78812 13.6557 4.91784C12.7854 4.04757 11.6871 3.47752 10.4824 3.2723C10.2012 3.2267 9.93898 3.41291 9.88957 3.69034C9.84017 3.96776 10.0226 4.23758 10.3038 4.28319ZM18.5581 7.9429C18.2199 5.95913 17.285 4.15398 15.8485 2.71745C14.412 1.28093 12.6068 0.346051 10.623 0.00782163C10.3456 -0.0415826 10.0834 0.148434 10.034 0.425857C9.98838 0.707082 10.1746 0.969304 10.4558 1.01871C12.2268 1.31893 13.8419 2.15881 15.1264 3.43952C16.4109 4.72403 17.247 6.33916 17.5472 8.11012C17.589 8.36094 17.8057 8.53575 18.0527 8.53575C18.0831 8.53575 18.1097 8.53195 18.1401 8.52815C18.4175 8.48635 18.6075 8.22033 18.5581 7.9429Z" fill="black"/>
</svg>
