<svg width="19" height="21" viewBox="0 0 19 21" fill="none" xmlns="http://www.w3.org/2000/svg">
<path d="M16.8615 8.23015L4.29726 1.14164C3.88695 0.907153 3.42184 0.785529 2.94926 0.789141C2.47668 0.792752 2.01349 0.921469 1.6068 1.1622C1.21059 1.3888 0.881414 1.71624 0.652714 2.11125C0.424015 2.50626 0.303941 2.95476 0.304691 3.4112V17.5882C0.303941 18.0447 0.424015 18.4932 0.652714 18.8882C0.881414 19.2832 1.21059 19.6106 1.6068 19.8372C2.01353 20.0778 2.47671 20.2065 2.94926 20.2101C3.42182 20.2137 3.88691 20.0922 4.29726 19.8578L16.8615 12.7693C17.2667 12.5448 17.6044 12.2159 17.8396 11.8168C18.0748 11.4177 18.1988 10.9629 18.1988 10.4997C18.1988 10.0365 18.0748 9.58169 17.8396 9.18259C17.6044 8.78349 17.2667 8.45462 16.8615 8.23015Z" fill="#007185"/>
</svg>
