<svg width="23" height="22" viewBox="0 0 23 22" fill="none" xmlns="http://www.w3.org/2000/svg">
<path fill-rule="evenodd" clip-rule="evenodd" d="M10.0797 8.67645H2.10306C1.72547 8.67645 1.41797 8.36939 1.41797 7.99136V2.07962C1.41797 1.70203 1.72547 1.39453 2.10306 1.39453H10.0797C10.4573 1.39453 10.7644 1.70203 10.7644 2.07962V7.99136C10.7644 8.36939 10.4573 8.67645 10.0797 8.67645ZM2.10306 1.92018C2.01676 1.92018 1.94361 1.99333 1.94361 2.07962V7.9918C1.94361 8.07809 2.01676 8.15125 2.10306 8.15125H10.0797C10.166 8.15125 10.2392 8.07809 10.2392 7.9918V2.07962C10.2392 1.99333 10.166 1.92018 10.0797 1.92018H2.10306Z" fill="black"/>
<path fill-rule="evenodd" clip-rule="evenodd" d="M11.8616 7.15418H10.5007C10.4662 7.15418 10.432 7.14738 10.4002 7.13417C10.3683 7.12096 10.3393 7.10159 10.315 7.07718C10.2906 7.05277 10.2713 7.02379 10.2581 6.99191C10.245 6.96002 10.2382 6.92586 10.2383 6.89136V3.1847C10.2383 3.03971 10.3557 2.92188 10.5007 2.92188H11.8616C12.2392 2.92188 12.5463 3.22938 12.5463 3.60696V6.4691C12.5463 6.84712 12.2392 7.15418 11.8616 7.15418ZM10.7635 6.62898H11.8616C11.9479 6.62898 12.0211 6.55583 12.0211 6.4691V3.60696C12.0211 3.52067 11.9479 3.44752 11.8616 3.44752H10.7635V6.62898Z" fill="black"/>
<path fill-rule="evenodd" clip-rule="evenodd" d="M16.5554 8.11289C16.5059 8.11289 16.4559 8.09888 16.4113 8.06953L12.1417 5.25427C12.1053 5.23038 12.0755 5.19781 12.0548 5.1595C12.0342 5.12118 12.0234 5.07833 12.0234 5.03481C12.0234 4.99136 12.0343 4.94859 12.0549 4.91036C12.0755 4.87212 12.1054 4.83963 12.1417 4.81579L16.4113 2.00053C16.44 1.98151 16.4723 1.96836 16.5062 1.96181C16.54 1.95526 16.5749 1.95545 16.6087 1.96236C16.6425 1.96928 16.6746 1.98278 16.7032 2.00211C16.7318 2.02144 16.7563 2.0462 16.7753 2.075C16.855 2.19633 16.8217 2.35928 16.7004 2.439L12.7633 5.03481L16.7004 7.63105C16.7292 7.64999 16.754 7.67442 16.7733 7.70295C16.7927 7.73148 16.8062 7.76354 16.8132 7.79731C16.8201 7.83108 16.8204 7.86589 16.8139 7.89974C16.8074 7.9336 16.7942 7.96584 16.7753 7.99462C16.7513 8.03099 16.7186 8.06083 16.6802 8.08148C16.6418 8.10212 16.5989 8.11291 16.5554 8.11289Z" fill="black"/>
<path fill-rule="evenodd" clip-rule="evenodd" d="M16.5564 5.29937H12.2869C12.1419 5.29937 12.0241 5.18197 12.0241 5.03655C12.0241 4.89156 12.1419 4.77416 12.2869 4.77416H16.5564C16.7014 4.77416 16.8192 4.89156 16.8192 5.03655C16.8192 5.18197 16.7014 5.29937 16.5564 5.29937ZM8.09925 6.28451H4.08771C3.80693 6.28451 3.57871 6.05629 3.57871 5.77551V4.29758C3.57871 4.0168 3.80693 3.78858 4.08771 3.78858H8.09925C8.38003 3.78858 8.60825 4.01723 8.60825 4.29758V5.77551C8.60825 6.05629 8.38003 6.28451 8.09925 6.28451ZM4.10392 5.75931H8.08304V4.31422H4.10392V5.75931ZM6.56262 1.92123H3.93528C3.78985 1.92123 3.67245 1.8034 3.67245 1.65841V0.379778C3.67245 0.170396 3.84285 0 4.05223 0H6.44522C6.65504 0 6.82544 0.170396 6.82544 0.379778V1.65841C6.82544 1.8034 6.70761 1.92123 6.56262 1.92123ZM4.19766 1.39558H6.2998V0.525206H4.19766V1.39558ZM8.97883 10.7306H3.20813C3.06271 10.7306 2.94531 10.6132 2.94531 10.4678V8.41468C2.94531 8.38019 2.95211 8.34604 2.96533 8.31417C2.97854 8.28231 2.99791 8.25337 3.02232 8.229C3.04673 8.20463 3.07571 8.18531 3.10759 8.17215C3.13947 8.15899 3.17364 8.15224 3.20813 8.1523H8.97883C9.12382 8.1523 9.24165 8.26969 9.24165 8.41468V10.4678C9.24165 10.6132 9.12382 10.7306 8.97883 10.7306ZM3.47052 10.2054H8.71601V8.67751H3.47052V10.2054Z" fill="black"/>
<path fill-rule="evenodd" clip-rule="evenodd" d="M6.03542 21.6324H6.02885C5.98402 21.6313 5.94022 21.6187 5.90164 21.5959C5.86306 21.573 5.83099 21.5406 5.80851 21.5018L4.76204 19.6998C4.73883 19.6599 4.72656 19.6143 4.72656 19.5679V10.4659C4.72656 10.3205 4.84396 10.2031 4.98895 10.2031H7.20585C7.35128 10.2031 7.46867 10.3205 7.46867 10.4659V19.5679C7.46867 19.6187 7.45378 19.6687 7.42618 19.7111L6.25575 21.5128C6.20713 21.5877 6.12434 21.6324 6.03542 21.6324ZM5.25177 19.4969L6.04812 20.868L6.94347 19.4899V10.7283H5.25177V19.4969Z" fill="black"/>
<path fill-rule="evenodd" clip-rule="evenodd" d="M7.20092 14.9872H4.98402C4.83903 14.9872 4.72164 14.8699 4.72164 14.7249C4.72164 14.5794 4.83903 14.462 4.98402 14.462H7.20092C7.34635 14.462 7.46375 14.5794 7.46375 14.7249C7.46375 14.7594 7.45695 14.7935 7.44373 14.8254C7.43052 14.8572 7.41115 14.8862 7.38674 14.9105C7.36233 14.9349 7.33335 14.9542 7.30147 14.9674C7.26958 14.9806 7.23542 14.9873 7.20092 14.9872ZM0.555471 21.6336C0.512441 21.6336 0.470067 21.623 0.432081 21.6028C0.394096 21.5826 0.361665 21.5533 0.337647 21.5176C0.313629 21.4819 0.29876 21.4409 0.29435 21.3981C0.289941 21.3553 0.296126 21.312 0.312361 21.2722L4.74091 10.3681C4.79523 10.2337 4.94854 10.1688 5.08302 10.2236C5.21749 10.2784 5.28232 10.4312 5.22757 10.5657L0.79902 21.4697C0.77932 21.5182 0.745625 21.5596 0.702241 21.5888C0.658857 21.618 0.607757 21.6336 0.555471 21.6336ZM11.6299 21.6336C11.5261 21.6336 11.4275 21.5718 11.3864 21.4697L6.95781 10.5657C6.94479 10.5338 6.9382 10.4995 6.93843 10.465C6.93865 10.4306 6.94567 10.3964 6.9591 10.3647C6.97253 10.3329 6.99209 10.3041 7.01668 10.2799C7.04126 10.2556 7.07038 10.2365 7.10237 10.2236C7.13432 10.2106 7.16852 10.204 7.20301 10.2042C7.23751 10.2045 7.27162 10.2115 7.30339 10.2249C7.33517 10.2384 7.36399 10.2579 7.38819 10.2825C7.4124 10.3071 7.43153 10.3362 7.44447 10.3681L11.873 21.2722C11.8893 21.312 11.8954 21.3553 11.891 21.3981C11.8866 21.4409 11.8718 21.4819 11.8477 21.5176C11.8237 21.5533 11.7913 21.5826 11.7533 21.6028C11.7153 21.623 11.6729 21.6336 11.6299 21.6336ZM22.4485 21.6336H18.8361C18.6911 21.6336 18.5732 21.5162 18.5732 21.3708V1.65735C18.5732 1.51236 18.6911 1.39453 18.8361 1.39453H22.4485C22.5935 1.39453 22.7114 1.51236 22.7114 1.65735V21.3708C22.7114 21.5162 22.5935 21.6336 22.4485 21.6336ZM19.0989 21.1084H22.1857V1.92018H19.0989V21.1084Z" fill="black"/>
<path fill-rule="evenodd" clip-rule="evenodd" d="M21.2284 3.42408H20.0558C19.9104 3.42408 19.793 3.30625 19.793 3.16126C19.793 3.01627 19.9104 2.89844 20.0558 2.89844H21.2284C21.3734 2.89844 21.4912 3.01627 21.4912 3.16126C21.4912 3.30625 21.3734 3.42408 21.2284 3.42408ZM21.2284 5.51176H20.0558C19.9104 5.51176 19.793 5.39437 19.793 5.24938C19.793 5.10395 19.9104 4.98656 20.0558 4.98656H21.2284C21.3734 4.98656 21.4912 5.10395 21.4912 5.24938C21.4912 5.39437 21.3734 5.51176 21.2284 5.51176ZM21.2284 7.59988H20.0558C19.9104 7.59988 19.793 7.48205 19.793 7.33706C19.793 7.19207 19.9104 7.07424 20.0558 7.07424H21.2284C21.3734 7.07424 21.4912 7.19207 21.4912 7.33706C21.4912 7.48205 21.3734 7.59988 21.2284 7.59988ZM21.2284 9.68757H20.0558C19.9104 9.68757 19.793 9.57017 19.793 9.42518C19.793 9.28019 19.9104 9.16236 20.0558 9.16236H21.2284C21.3734 9.16236 21.4912 9.28019 21.4912 9.42518C21.4912 9.57017 21.3734 9.68757 21.2284 9.68757ZM21.2284 11.7757H20.0558C19.9104 11.7757 19.793 11.6579 19.793 11.5129C19.793 11.3679 19.9104 11.25 20.0558 11.25H21.2284C21.3734 11.25 21.4912 11.3679 21.4912 11.5129C21.4912 11.6579 21.3734 11.7757 21.2284 11.7757ZM21.2284 13.8638H20.0558C19.9104 13.8638 19.793 13.746 19.793 13.601C19.793 13.456 19.9104 13.3382 20.0558 13.3382H21.2284C21.3734 13.3382 21.4912 13.456 21.4912 13.601C21.4912 13.746 21.3734 13.8638 21.2284 13.8638ZM21.2284 15.9515H20.0558C19.9104 15.9515 19.793 15.8341 19.793 15.6887C19.793 15.6542 19.7998 15.62 19.813 15.5882C19.8262 15.5563 19.8456 15.5274 19.87 15.503C19.8944 15.4786 19.9234 15.4593 19.9552 15.4461C19.9871 15.433 20.0213 15.4262 20.0558 15.4263H21.2284C21.3734 15.4263 21.4912 15.5437 21.4912 15.6887C21.4912 15.8341 21.3734 15.9515 21.2284 15.9515ZM21.2284 18.0396H20.0558C19.9104 18.0396 19.793 17.9218 19.793 17.7768C19.793 17.6318 19.9104 17.514 20.0558 17.514H21.2284C21.3734 17.514 21.4912 17.6318 21.4912 17.7768C21.4912 17.9218 21.3734 18.0396 21.2284 18.0396ZM21.2284 20.1273H20.0558C19.9104 20.1273 19.793 20.0099 19.793 19.8645C19.793 19.83 19.7998 19.7958 19.813 19.764C19.8262 19.7321 19.8456 19.7032 19.87 19.6788C19.8944 19.6544 19.9234 19.6351 19.9552 19.6219C19.9871 19.6088 20.0213 19.602 20.0558 19.6021H21.2284C21.3734 19.6021 21.4912 19.7195 21.4912 19.8645C21.4912 20.0099 21.3734 20.1273 21.2284 20.1273Z" fill="black"/>
</svg>
