<svg width="52" height="52" viewBox="0 0 52 52" fill="none" xmlns="http://www.w3.org/2000/svg">
<path d="M48.9036 43.9315H45.8383C45.614 43.9315 45.3989 44.0206 45.2404 44.1792C45.0818 44.3377 44.9927 44.5528 44.9927 44.7771C44.9927 45.0014 45.0818 45.2165 45.2404 45.375C45.3989 45.5336 45.614 45.6227 45.8383 45.6227H48.9036C49.3699 45.6227 49.7492 46.0021 49.7492 46.4683V48.5823C49.7492 49.0486 49.3699 49.4279 48.9036 49.4279H3.24092C2.77467 49.4279 2.39531 49.0486 2.39531 48.5823V46.4683C2.39531 46.0021 2.77467 45.6227 3.24092 45.6227H40.4039C40.5459 45.6228 40.6857 45.5871 40.8102 45.5189C40.9348 45.4506 41.0402 45.3521 41.1165 45.2324C41.1569 45.1696 42.7143 42.6608 45.1735 38.6999C45.2878 38.5095 45.3225 38.2818 45.2703 38.066C45.218 37.8502 45.083 37.6636 44.8944 37.5465C44.7057 37.4293 44.4786 37.3911 44.262 37.44C44.0454 37.4889 43.8568 37.621 43.7368 37.8078L39.9344 43.9315H24.6754L39.3366 24.7832L48.2069 26.8952L34.8839 39.6744C34.722 39.8297 34.6285 40.0429 34.6238 40.2671C34.6192 40.4913 34.7038 40.7082 34.8591 40.8701C35.0143 41.0319 35.2275 41.1255 35.4518 41.1301C35.676 41.1348 35.8929 41.0502 36.0547 40.8949C51.4714 26.1085 50.5855 27.0011 50.6866 26.7704C50.7428 26.6385 50.7656 26.4949 50.753 26.3521C50.7446 26.2634 50.9267 27.0226 47.8751 14.5388C47.8325 14.3641 47.7352 14.2076 47.5975 14.0919C47.4598 13.9763 47.2888 13.9076 47.1093 13.8958L35.2871 13.1163C35.137 13.1063 34.987 13.1365 34.8525 13.2039C34.718 13.2714 34.604 13.3735 34.5222 13.4997L29.3828 21.4211L30.6172 7.66971C30.6326 7.49777 30.595 7.32524 30.5095 7.17527C30.424 7.0253 30.2947 6.90509 30.1389 6.83077L20.1113 2.05045C19.9546 1.97577 19.7787 1.95111 19.6076 1.97982C19.4364 2.00852 19.2782 2.0892 19.1545 2.21091C11.1952 10.042 11.7153 9.52011 11.6552 9.60023C11.5757 9.70633 11.5222 9.82968 11.4992 9.96028C11.4762 10.0909 11.4843 10.2251 11.5228 10.352C11.547 10.4322 12.3263 12.8749 13.9152 17.8586C14.0571 18.3036 14.533 18.5495 14.9777 18.4073C15.1914 18.3392 15.3692 18.189 15.4722 17.9897C15.5751 17.7905 15.5946 17.5585 15.5265 17.3448L13.671 11.5253L20.9355 14.3052L21.7209 21.5307C21.7434 21.7377 21.8415 21.9292 21.9964 22.0684C22.1513 22.2076 22.3522 22.2848 22.5605 22.2851C23.0641 22.2851 23.4566 21.8488 23.4022 21.348L22.6127 14.0847L25.7824 11.6819C25.8715 11.615 25.9465 11.5312 26.0031 11.4353C26.0597 11.3394 26.0968 11.2332 26.1123 11.1229C26.1277 11.0126 26.1212 10.9003 26.0931 10.7925C26.0651 10.6847 26.016 10.5835 25.9487 10.4947C25.8814 10.406 25.7972 10.3314 25.701 10.2752C25.6048 10.2191 25.4985 10.1825 25.3881 10.1676C25.2777 10.1527 25.1654 10.1597 25.0578 10.1883C24.9501 10.2169 24.8492 10.2665 24.7607 10.3342L21.5838 12.7425L13.8623 9.78764L19.9181 3.83204L28.8801 8.10435L27.4121 24.4584L21.6762 33.2993C20.9587 24.0901 21.0129 24.6208 20.9599 24.4675C20.9216 24.3533 20.8585 24.249 20.7752 24.162C20.5997 23.9764 21.2793 24.3142 9.44639 19.0597C9.27032 18.9816 9.07285 18.9659 8.88665 19.0152C8.70044 19.0646 8.53665 19.176 8.42237 19.331L1.55214 28.6586C1.45862 28.7856 1.40246 28.9361 1.39002 29.0933C1.37759 29.2505 1.40935 29.4081 1.48174 29.5482L8.91313 43.9315H3.24092C1.84218 43.9315 0.704102 45.0696 0.704102 46.4683V48.5823C0.704102 49.9811 1.84218 51.1191 3.24092 51.1191H48.9036C50.3024 51.1191 51.4404 49.9811 51.4404 48.5823V46.4683C51.4404 45.0696 50.3024 43.9315 48.9036 43.9315ZM35.6707 14.8363L46.3793 15.5425L48.7617 25.2889L39.6294 23.1145L38.2622 19.5313C38.2229 19.4272 38.1634 19.3319 38.0872 19.2508C38.011 19.1697 37.9195 19.1044 37.818 19.0588C37.7165 19.0131 37.607 18.9879 37.4957 18.9847C37.3845 18.9815 37.2737 19.0002 37.1697 19.0399C37.0657 19.0796 36.9705 19.1394 36.8897 19.2159C36.8089 19.2924 36.744 19.3841 36.6987 19.4858C36.6534 19.5874 36.6286 19.6971 36.6257 19.8083C36.6229 19.9196 36.642 20.0303 36.6821 20.1341L38.0404 23.6943L22.5454 43.9315H16.663L13.0804 30.3175L19.4282 26.2221L20.3727 38.3419C20.3812 38.4527 20.4115 38.5606 20.4618 38.6597C20.5121 38.7587 20.5815 38.8468 20.6659 38.919C20.7503 38.9912 20.8481 39.046 20.9537 39.0804C21.0593 39.1148 21.1707 39.128 21.2814 39.1193C21.505 39.1018 21.7125 38.9963 21.8582 38.8259C22.004 38.6555 22.0761 38.4341 22.0587 38.2106L21.8922 36.0734L35.6707 14.8363ZM3.22538 29.2386L9.38097 20.8813L18.3878 24.8806L11.8882 29.074L7.64864 28.7392C7.18376 28.7038 6.77587 29.05 6.73919 29.5157C6.73045 29.6264 6.7436 29.7378 6.77789 29.8434C6.81218 29.949 6.86694 30.0469 6.93904 30.1313C7.01115 30.2158 7.09918 30.2852 7.19812 30.3356C7.29705 30.3861 7.40496 30.4165 7.51567 30.4253L11.4416 30.7352L14.9142 43.9315H10.8167L3.22538 29.2386ZM33.8941 3.65953H34.634V4.39944C34.634 4.62371 34.7231 4.83879 34.8817 4.99737C35.0403 5.15595 35.2554 5.24504 35.4796 5.24504C35.7039 5.24504 35.919 5.15595 36.0776 4.99737C36.2361 4.83879 36.3252 4.62371 36.3252 4.39944V3.65953H37.0651C37.2894 3.65953 37.5045 3.57044 37.6631 3.41186C37.8217 3.25328 37.9107 3.0382 37.9107 2.81393C37.9107 2.58966 37.8217 2.37458 37.6631 2.21599C37.5045 2.05741 37.2894 1.96832 37.0651 1.96832H36.3252V1.22842C36.3252 1.00415 36.2361 0.789066 36.0776 0.630485C35.919 0.471903 35.7039 0.382813 35.4796 0.382812C35.2554 0.382813 35.0403 0.471903 34.8817 0.630485C34.7231 0.789066 34.634 1.00415 34.634 1.22842V1.96832H33.8941C33.6698 1.96832 33.4548 2.05741 33.2962 2.21599C33.1376 2.37458 33.0485 2.58966 33.0485 2.81393C33.0485 3.0382 33.1376 3.25328 33.2962 3.41186C33.4548 3.57044 33.6698 3.65953 33.8941 3.65953ZM47.713 9.71238C47.8716 9.87092 48.0867 9.95998 48.311 9.95998C48.5352 9.95998 48.7503 9.87092 48.9089 9.71238L49.4321 9.18916L49.9552 9.71227C50.1138 9.87086 50.3289 9.95995 50.5532 9.95995C50.7775 9.95995 50.9925 9.87086 51.1511 9.71227C51.3097 9.55369 51.3988 9.3386 51.3988 9.11432C51.3988 8.89005 51.3097 8.67496 51.1511 8.51637L50.628 7.99326L51.1511 7.47015C51.3097 7.31156 51.3988 7.09647 51.3988 6.8722C51.3988 6.64793 51.3097 6.43284 51.1511 6.27425C50.9925 6.11567 50.7775 6.02657 50.5532 6.02657C50.3289 6.02657 50.1138 6.11567 49.9552 6.27425L49.4321 6.79736L48.909 6.27425C48.7504 6.11567 48.5353 6.02657 48.3111 6.02657C48.0868 6.02657 47.8717 6.11567 47.7131 6.27425C47.5545 6.43284 47.4654 6.64793 47.4654 6.8722C47.4654 7.09647 47.5545 7.31156 47.7131 7.47015L48.2362 7.99326L47.7131 8.51637C47.5545 8.67496 47.4654 8.89006 47.4654 9.11435C47.4653 9.33865 47.5544 9.55376 47.713 9.71238ZM2.47321 12.3549C2.63179 12.5135 2.84686 12.6025 3.07111 12.6025C3.29536 12.6025 3.51043 12.5135 3.66901 12.3549L4.19222 11.8317L4.71544 12.3549C4.87436 12.5119 5.08893 12.5996 5.31231 12.5989C5.53569 12.5982 5.74972 12.5092 5.90767 12.3512C6.06561 12.1933 6.15464 11.9792 6.15531 11.7558C6.15598 11.5325 6.06823 11.3179 5.91123 11.159L5.38812 10.6358L5.91123 10.1127C5.98977 10.0342 6.05208 9.94093 6.09458 9.83834C6.13709 9.73574 6.15897 9.62577 6.15897 9.51472C6.15897 9.40366 6.13709 9.2937 6.09458 9.1911C6.05208 9.0885 5.98977 8.99528 5.91123 8.91677C5.75264 8.75824 5.53758 8.66918 5.31334 8.66918C5.0891 8.66918 4.87404 8.75824 4.71544 8.91677L4.19222 9.43988L3.66901 8.91666C3.51041 8.75813 3.29535 8.66907 3.07111 8.66907C2.84687 8.66907 2.63181 8.75813 2.47321 8.91666C2.39468 8.99518 2.33237 9.0884 2.28987 9.19099C2.24736 9.29359 2.22548 9.40356 2.22548 9.51461C2.22548 9.62567 2.24736 9.73563 2.28987 9.83823C2.33237 9.94083 2.39468 10.034 2.47321 10.1126L2.99633 10.6358L2.47321 11.1589C2.39467 11.2374 2.33237 11.3306 2.28986 11.4332C2.24735 11.5359 2.22547 11.6458 2.22547 11.7569C2.22547 11.868 2.24735 11.9779 2.28986 12.0805C2.33237 12.1831 2.39467 12.2764 2.47321 12.3549Z" fill="black"/>
</svg>
