<svg width="53" height="64" viewBox="0 0 53 64" fill="none" xmlns="http://www.w3.org/2000/svg">
<path d="M19.6463 63.7464C19.4843 63.7465 19.3252 63.7038 19.1849 63.6228L6.43261 56.2603C6.29234 56.1793 6.17586 56.0628 6.09487 55.9226C6.01388 55.7823 5.97125 55.6232 5.97124 55.4612V50.8379C5.97124 50.3283 6.38426 49.9151 6.89398 49.9151C7.40371 49.9151 7.81673 50.3283 7.81673 50.8379V54.9285L12.1448 57.4273V45.5121L7.81673 43.0133V47.147C7.81673 47.6566 7.40371 48.0698 6.89398 48.0698C6.38426 48.0698 5.97124 47.6566 5.97124 47.147V38.0807C5.97123 37.836 6.06841 37.6013 6.24142 37.4282L15.3026 28.367C15.3883 28.2813 15.49 28.2134 15.602 28.167C15.714 28.1206 15.8339 28.0967 15.9551 28.0967C16.0763 28.0967 16.1963 28.1206 16.3083 28.167C16.4202 28.2134 16.5219 28.2813 16.6076 28.367L25.6688 37.4282C25.8418 37.6013 25.939 37.836 25.939 38.0807V51.6169L27.7845 50.5513V45.9283C27.7845 45.4187 28.1975 45.0055 28.7072 45.0055C29.217 45.0055 29.63 45.4187 29.63 45.9283V50.5513L34.4645 53.3426V29.3518L29.63 26.5858V42.2373C29.63 42.7469 29.217 43.1601 28.7072 43.1601C28.1975 43.1601 27.7845 42.7469 27.7845 42.2373V21.8378L20.6262 17.7424L16.8777 19.9066V25.3282C16.8777 25.8378 16.4647 26.251 15.9549 26.251C15.4452 26.251 15.0322 25.8378 15.0322 25.3282V19.9066L11.5074 17.8715V29.5912C11.5074 30.1008 11.0944 30.5139 10.5847 30.5139C10.075 30.5139 9.66197 30.1008 9.66197 29.5912V11.7161C9.66195 11.4714 9.75914 11.2367 9.93215 11.0636L19.9717 1.0242C20.0574 0.938504 20.1591 0.870529 20.2711 0.824152C20.383 0.777776 20.503 0.753906 20.6242 0.753906C20.7454 0.753906 20.8654 0.777776 20.9773 0.824152C21.0893 0.870529 21.191 0.938504 21.2767 1.0242L32.7795 12.5271C32.9525 12.7001 33.0497 12.9348 33.0497 13.1795C33.0497 13.4243 32.9525 13.6589 32.7795 13.832C32.6064 14.005 32.3717 14.1022 32.127 14.1022C31.8823 14.1022 31.6476 14.005 31.4745 13.832L21.547 3.90438V16.1431L28.5538 20.1519L37.8991 10.8066C37.9848 10.7209 38.0865 10.653 38.1985 10.6066C38.3104 10.5602 38.4304 10.5363 38.5516 10.5363C38.6728 10.5363 38.7928 10.5602 38.9047 10.6066C39.0167 10.653 39.1184 10.7209 39.2041 10.8066L47.6249 19.2274C47.7979 19.4005 47.8951 19.6352 47.8951 19.8799V34.9411C47.8951 35.0853 47.8614 35.2274 47.7966 35.3561L44.2041 42.4916V50.3833C44.2041 50.5453 44.1615 50.7044 44.0805 50.8446C43.9995 50.9849 43.883 51.1014 43.7428 51.1824L35.8485 55.74C35.7083 55.821 35.5491 55.8636 35.3872 55.8636C35.2252 55.8636 35.0661 55.821 34.9258 55.74L28.7071 52.1497L25.9389 53.748V59.7234C25.9389 59.8854 25.8963 60.0445 25.8153 60.1848C25.7343 60.325 25.6178 60.4415 25.4775 60.5225L20.1073 63.623C19.9671 63.7039 19.8081 63.7465 19.6463 63.7464ZM13.9902 58.4927L19.6463 61.7582L24.0938 59.1904V53.2326C24.0935 53.2215 24.0935 53.2104 24.0938 53.1992V39.6789L13.9902 45.5121V58.4927ZM36.3103 29.3493V53.3425L42.359 49.8503V42.2723C42.359 42.1282 42.3927 41.9861 42.4576 41.8573L46.05 34.7218V28.1221L42.2429 25.9241L36.3103 29.3493ZM7.81673 40.8822L13.0675 43.9137L23.5137 37.8826L15.9552 30.3241L7.81673 38.4626V40.8822ZM29.6302 24.4595L35.3854 27.7522L41.32 24.3259V15.532L38.5518 12.7638L29.6301 21.6855V24.4595H29.6302ZM43.1656 24.3259L46.05 25.9911V20.2619L43.1656 17.3775V24.3259ZM11.5077 15.7407L15.9552 18.3085L19.7016 16.1455V3.90438L11.5076 12.0983L11.5077 15.7407ZM41.0126 60.0097C40.4699 60.0097 40.0283 59.5681 40.0283 59.0254C40.0283 58.4827 40.4699 58.0412 41.0126 58.0412C41.5553 58.0412 41.9968 58.4827 41.9968 59.0254C41.9968 59.5681 41.5553 60.0097 41.0126 60.0097ZM45.1273 58.4417C43.6009 58.4417 42.359 57.1999 42.359 55.6734C42.359 54.147 43.6009 52.9052 45.1273 52.9052C46.6536 52.9052 47.8955 54.147 47.8955 55.6734C47.8955 57.1999 46.6536 58.4417 45.1273 58.4417ZM45.1273 54.7507C44.6184 54.7507 44.2045 55.1647 44.2045 55.6734C44.2045 56.1823 44.6184 56.5962 45.1273 56.5962C45.6361 56.5962 46.05 56.1823 46.05 55.6734C46.05 55.1647 45.6361 54.7507 45.1273 54.7507ZM5.29456 35.3179C4.75187 35.3179 4.31031 34.8763 4.31031 34.3336C4.31031 33.7909 4.75187 33.3493 5.29456 33.3493C5.83726 33.3493 6.27882 33.7909 6.27882 34.3336C6.27882 34.8763 5.83726 35.3179 5.29456 35.3179ZM3.10926 31.9289C2.86454 31.9289 2.62983 31.8317 2.45679 31.6587C2.28374 31.4856 2.18652 31.2509 2.18652 31.0062V29.1607H0.923719C0.413996 29.1607 0.000976562 28.7476 0.000976562 28.238C0.000976562 27.7284 0.413996 27.3152 0.923719 27.3152H2.18652V25.4697C2.18652 24.9601 2.59954 24.547 3.10926 24.547C3.61899 24.547 4.03201 24.9601 4.03201 25.4697V27.3152H5.29469C5.80441 27.3152 6.21743 27.7284 6.21743 28.238C6.21743 28.7476 5.80441 29.1607 5.29469 29.1607H4.03201V31.0062C4.03201 31.2509 3.93479 31.4856 3.76174 31.6587C3.58869 31.8317 3.35399 31.9289 3.10926 31.9289ZM5.0485 21.4791C3.52216 21.4791 2.28027 20.2373 2.28027 18.7108C2.28027 17.1844 3.52216 15.9426 5.0485 15.9426C6.57484 15.9426 7.81673 17.1844 7.81673 18.7108C7.81673 20.2373 6.57496 21.4791 5.0485 21.4791ZM5.0485 17.7881C4.53964 17.7881 4.12576 18.202 4.12576 18.7108C4.12576 19.2197 4.53964 19.6336 5.0485 19.6336C5.55736 19.6336 5.97124 19.2197 5.97124 18.7108C5.97124 18.202 5.55736 17.7881 5.0485 17.7881ZM51.7913 17.2577C51.2486 17.2577 50.807 16.8161 50.807 16.2734C50.807 15.7307 51.2486 15.2892 51.7913 15.2892C52.334 15.2892 52.7756 15.7307 52.7756 16.2734C52.7756 16.8161 52.334 17.2577 51.7913 17.2577ZM46.9727 15.5804C46.0472 15.5804 45.7576 14.5292 45.6184 14.024C45.4651 13.4678 45.3272 12.7615 45.1938 12.0785C45.0824 11.5077 44.9212 10.6827 44.8054 10.3284C44.5465 10.2247 44.017 10.0796 43.6464 9.97799C42.1371 9.56436 40.9449 9.23759 40.9449 8.1912C40.9449 7.14481 42.1371 6.81803 43.6464 6.40452C44.0169 6.30302 44.5464 6.15784 44.8054 6.05413C44.9212 5.69992 45.0824 4.87486 45.1938 4.30399C45.3272 3.62104 45.4651 2.91471 45.6184 2.35848C45.7576 1.85331 46.047 0.802122 46.9727 0.802122C47.8984 0.802122 48.1879 1.85331 48.3271 2.35848C48.4804 2.91471 48.6183 3.62104 48.7517 4.30399C48.8631 4.87486 49.0243 5.69979 49.1401 6.05413C49.3989 6.15784 49.9286 6.3029 50.299 6.40452C51.8085 6.81816 53.0006 7.14481 53.0006 8.1912C53.0006 9.23759 51.8084 9.56436 50.299 9.97799C49.9285 10.0795 49.3991 10.2247 49.1401 10.3284C49.0243 10.6826 48.8631 11.5077 48.7517 12.0785C48.6183 12.7615 48.4804 13.4678 48.3271 14.024C48.1879 14.5292 47.8984 15.5804 46.9727 15.5804ZM44.109 8.1912L44.1343 8.19821C45.2208 8.49595 45.8041 8.6677 46.1552 9.01859C46.5099 9.37341 46.6614 9.9748 46.9729 11.5595C47.2843 9.9748 47.4358 9.37329 47.7904 9.01871C48.1415 8.66758 48.7248 8.49582 49.8115 8.19809L49.8367 8.1912L49.8116 8.18431C48.7248 7.88657 48.1415 7.71482 47.7904 7.3638C47.4358 7.0091 47.2844 6.40772 46.9729 4.82294C46.6615 6.4076 46.5099 7.0091 46.1553 7.36368C45.8042 7.71482 45.2208 7.88657 44.1341 8.18418L44.109 8.1912ZM44.9207 10.3824C44.9208 10.3824 44.9208 10.3824 44.9207 10.3824V10.3824Z" fill="black"/>
</svg>
