<svg width="16" height="16" viewBox="0 0 16 16" fill="none" xmlns="http://www.w3.org/2000/svg">
<path d="M8.24989 15.6248C8.39723 15.6248 8.53853 15.5662 8.64272 15.4621C8.7469 15.3579 8.80543 15.2166 8.80543 15.0692C8.80543 14.9219 8.7469 14.7806 8.64272 14.6764C8.53853 14.5722 8.39723 14.5137 8.24989 14.5137C6.97615 14.5142 5.73134 14.1339 4.67544 13.4215C3.61954 12.7091 2.8008 11.6973 2.32444 10.516C1.84807 9.33465 1.73586 8.03788 2.0022 6.7923C2.26855 5.54672 2.9013 4.40925 3.81912 3.52607V5.44632C3.81912 5.59366 3.87765 5.73496 3.98184 5.83915C4.08602 5.94333 4.22733 6.00186 4.37467 6.00186C4.52201 6.00186 4.66331 5.94333 4.7675 5.83915C4.87168 5.73496 4.93021 5.59366 4.93021 5.44632V2.37775C4.93021 2.23041 4.87168 2.08911 4.7675 1.98492C4.66331 1.88074 4.52201 1.8222 4.37467 1.8222H1.30555C1.15821 1.8222 1.0169 1.88074 0.912716 1.98492C0.808531 2.08911 0.75 2.23041 0.75 2.37775C0.75 2.52509 0.808531 2.6664 0.912716 2.77058C1.0169 2.87477 1.15821 2.9333 1.30555 2.9333H2.84163C1.82285 3.99341 1.13829 5.32969 0.873119 6.77587C0.607948 8.22205 0.773879 9.71427 1.35027 11.0669C1.92665 12.4195 2.88805 13.5727 4.11482 14.3831C5.3416 15.1935 6.7796 15.6253 8.24989 15.6248ZM8.24989 0.625001C8.10255 0.625001 7.96124 0.683531 7.85705 0.787717C7.75287 0.891902 7.69434 1.03321 7.69434 1.18055C7.69434 1.32789 7.75287 1.46919 7.85705 1.57338C7.96124 1.67756 8.10255 1.73609 8.24989 1.73609C9.52372 1.73581 10.7686 2.11641 11.8244 2.829C12.8803 3.54159 13.699 4.55362 14.1753 5.73505C14.6517 6.91648 14.7639 8.21334 14.4975 9.45903C14.2312 10.7047 13.5985 11.8423 12.6807 12.7256V10.8498C12.6807 10.7025 12.6221 10.5612 12.5179 10.457C12.4137 10.3528 12.2724 10.2943 12.1251 10.2943C11.9778 10.2943 11.8365 10.3528 11.7323 10.457C11.6281 10.5612 11.5696 10.7025 11.5696 10.8498V13.9187C11.5696 14.066 11.6281 14.2073 11.7323 14.3115C11.8365 14.4157 11.9778 14.4742 12.1251 14.4742H15.1942C15.3416 14.4742 15.4829 14.4157 15.5871 14.3115C15.6912 14.2073 15.7498 14.066 15.7498 13.9187C15.7498 13.7713 15.6912 13.63 15.5871 13.5259C15.4829 13.4217 15.3416 13.3631 15.1942 13.3631H13.6137C14.6454 12.3078 15.3427 10.9715 15.6182 9.52163C15.8937 8.07174 15.7352 6.57279 15.1624 5.21263C14.5897 3.85246 13.6282 2.6916 12.3986 1.87551C11.1689 1.05942 9.72572 0.624409 8.24989 0.625001Z" fill="#303030"/>
</svg>
