<svg width="14" height="14" viewBox="0 0 14 14" fill="none" xmlns="http://www.w3.org/2000/svg">
<path d="M13.0001 12.6251L10.1048 9.7298M10.1048 9.7298C10.6001 9.23455 10.9929 8.64659 11.261 7.9995C11.529 7.35242 11.6669 6.65887 11.6669 5.95847C11.6669 5.25807 11.529 4.56453 11.261 3.91744C10.9929 3.27035 10.6001 2.6824 10.1048 2.18714C9.60955 1.69188 9.02159 1.29902 8.3745 1.03099C7.72742 0.762954 7.03387 0.625 6.33347 0.625C5.63307 0.625 4.93953 0.762954 4.29244 1.03099C3.64535 1.29902 3.0574 1.69188 2.56214 2.18714C1.56192 3.18736 1 4.54395 1 5.95847C1 7.373 1.56192 8.72958 2.56214 9.7298C3.56236 10.73 4.91895 11.2919 6.33347 11.2919C7.748 11.2919 9.10458 10.73 10.1048 9.7298Z" stroke="white" stroke-linecap="round" stroke-linejoin="round"/>
</svg>
