<svg width="13" height="14" viewBox="0 0 13 14" fill="none" xmlns="http://www.w3.org/2000/svg">
<path d="M12.4999 12.8749L9.60456 9.97956M9.60456 9.97956C10.0998 9.4843 10.4927 8.89634 10.7607 8.24926C11.0287 7.60217 11.1667 6.90863 11.1667 6.20823C11.1667 5.50783 11.0287 4.81428 10.7607 4.1672C10.4927 3.52011 10.0998 2.93215 9.60456 2.43689C9.1093 1.94163 8.52134 1.54877 7.87426 1.28074C7.22717 1.01271 6.53363 0.874756 5.83323 0.874756C5.13283 0.874756 4.43928 1.01271 3.7922 1.28074C3.14511 1.54877 2.55715 1.94163 2.06189 2.43689C1.06167 3.43711 0.499756 4.7937 0.499756 6.20823C0.499756 7.62275 1.06167 8.97934 2.06189 9.97956C3.06211 10.9798 4.4187 11.5417 5.83323 11.5417C7.24775 11.5417 8.60434 10.9798 9.60456 9.97956Z" stroke="white" stroke-linecap="round" stroke-linejoin="round"/>
</svg>
