<svg width="11" height="14" viewBox="0 0 11 14" fill="none" xmlns="http://www.w3.org/2000/svg">
<path d="M5.5 13.5188C5.37148 13.5199 5.24423 13.4932 5.12702 13.4405C3.72857 12.8791 2.51854 11.9317 1.63803 10.7088C0.75753 9.48585 0.242846 8.0378 0.154004 6.5335L0.00205061 3.93187C-0.0117759 3.70051 0.044561 3.47036 0.163689 3.27154C0.282818 3.07271 0.459189 2.91448 0.669725 2.81755L5.12702 0.763877L5.19609 0.736249C5.39553 0.685573 5.60447 0.685573 5.80391 0.736249L5.87298 0.763877L10.3303 2.81755C10.5408 2.91448 10.7172 3.07271 10.8363 3.27154C10.9554 3.47036 11.0118 3.70051 10.998 3.93187L10.8414 6.54731C10.7518 8.05266 10.2357 9.50144 9.35351 10.7245C8.4713 11.9475 7.25934 12.8943 5.85916 13.4543C5.74572 13.5022 5.62302 13.5242 5.5 13.5188ZM5.46777 1.62034L1.05651 3.6556C1.01153 3.67592 0.974265 3.71016 0.950222 3.75327C0.926179 3.79639 0.916628 3.84608 0.92298 3.89504L1.07493 6.51048C1.16167 7.83853 1.62354 9.1147 2.40687 10.1906C3.19019 11.2666 4.26279 12.0981 5.5 12.5886C6.74063 12.0952 7.81538 11.2592 8.59888 10.1781C9.38238 9.09701 9.84233 7.81543 9.92507 6.48285L10.077 3.89504C10.0794 3.84907 10.068 3.80344 10.0442 3.76404C10.0204 3.72464 9.98529 3.69329 9.94349 3.67401L5.53223 1.62034H5.46777Z" fill="white"/>
<path d="M5.11582 8.96064C5.00011 8.96149 4.88832 8.91875 4.8027 8.84092L3.1128 7.28455C3.02304 7.20151 2.96994 7.08621 2.96519 6.96402C2.96044 6.84183 3.00443 6.72275 3.08747 6.63299C3.17051 6.54323 3.28581 6.49014 3.408 6.48539C3.5302 6.48064 3.64927 6.52462 3.73903 6.60767L5.08359 7.84632L7.22475 5.43348C7.30694 5.34791 7.41899 5.29737 7.53753 5.2924C7.65607 5.28742 7.77196 5.3284 7.86103 5.40678C7.9501 5.48516 8.00548 5.5949 8.01562 5.71312C8.02575 5.83133 7.98987 5.94889 7.91544 6.0413L5.45656 8.80408C5.41656 8.84986 5.36789 8.88726 5.31336 8.91414C5.25883 8.94101 5.19951 8.95681 5.13884 8.96064H5.11582Z" fill="white"/>
</svg>
