<svg width="11" height="7" viewBox="0 0 11 7" fill="none" xmlns="http://www.w3.org/2000/svg">
<path d="M5.50002 6.59377C5.43436 6.59384 5.36932 6.58093 5.30866 6.55579C5.24799 6.53065 5.19289 6.49377 5.14652 6.44727L0.146531 1.44728C-0.0488437 1.25191 -0.0488437 0.935531 0.146531 0.740281C0.341906 0.545031 0.65828 0.544906 0.85353 0.740281L5.50002 5.38677L10.1465 0.740281C10.3419 0.544906 10.6583 0.544906 10.8535 0.740281C11.0488 0.935656 11.0489 1.25203 10.8535 1.44728L5.85352 6.44727C5.80715 6.49377 5.75205 6.53065 5.69139 6.55579C5.63072 6.58093 5.56569 6.59384 5.50002 6.59377Z" fill="black"/>
</svg>
