<svg width="16" height="15" viewBox="0 0 16 15" fill="none" xmlns="http://www.w3.org/2000/svg">
<path d="M15.0938 1.76953C15.4492 1.76953 15.75 2.07031 15.75 2.42578V3.95703C15.75 4.94141 15.1211 5.95312 14.0547 6.71875C13.1797 7.34766 12.1406 7.73047 11.0469 7.86719C10.1719 9.28906 9.1875 9.86328 9.1875 9.86328V11.832H10.5C11.457 11.832 12.25 12.4062 12.25 13.3633V13.6914C12.25 13.8828 12.0859 14.0195 11.9219 14.0195H3.82812C3.63672 14.0195 3.5 13.8828 3.5 13.6914V13.3633C3.5 12.4062 4.26562 11.832 5.25 11.832H6.5625V9.86328C6.5625 9.86328 5.55078 9.28906 4.67578 7.86719C3.58203 7.73047 2.54297 7.34766 1.66797 6.71875C0.601562 5.95312 0 4.94141 0 3.95703V2.42578C0 2.07031 0.273438 1.76953 0.65625 1.76953H3.5V0.675781C3.5 0.320312 3.77344 0.0195312 4.15625 0.0195312H11.5938C11.9492 0.0195312 12.25 0.320312 12.25 0.675781V1.76953H15.0938ZM2.70703 5.29688C3.03516 5.54297 3.41797 5.73438 3.85547 5.89844C3.66406 5.21484 3.52734 4.42188 3.5 3.51953H1.75V3.95703C1.75 4.28516 2.02344 4.83203 2.70703 5.29688ZM14 3.95703V3.51953H12.2227C12.1953 4.42188 12.0586 5.21484 11.8672 5.89844C12.3047 5.73438 12.6875 5.54297 13.0156 5.29688C13.5078 4.96875 14 4.42188 14 3.95703Z" fill="#FCAC12"/>
</svg>
