<svg width="44" height="44" viewBox="0 0 44 44" fill="none" xmlns="http://www.w3.org/2000/svg">
<path d="M35.5492 17.9833C35.6068 18.0488 35.6776 18.1013 35.7571 18.1373C35.8365 18.1733 35.9227 18.1919 36.0099 18.1919C36.0972 18.1919 36.1834 18.1733 36.2628 18.1373C36.3423 18.1013 36.4131 18.0488 36.4707 17.9833L40.9212 12.9165C40.9989 12.8279 41.0495 12.7188 41.0668 12.6022C41.0842 12.4856 41.0675 12.3665 41.0189 12.2591C40.9703 12.1517 40.8918 12.0606 40.7927 11.9967C40.6937 11.9328 40.5783 11.8988 40.4604 11.8987H38.4908V5.52886C38.4908 5.36623 38.4262 5.21026 38.3112 5.09527C38.1962 4.98027 38.0402 4.91567 37.8776 4.91567H34.1427C33.98 4.91567 33.8241 4.98027 33.7091 5.09527C33.5941 5.21026 33.5295 5.36623 33.5295 5.52886V11.8987H31.5597C31.4419 11.8987 31.3265 11.9327 31.2274 11.9966C31.1283 12.0605 31.0497 12.1516 31.0011 12.259C30.9525 12.3664 30.9359 12.4856 30.9532 12.6022C30.9706 12.7188 31.0212 12.8279 31.099 12.9165L35.5492 17.9833ZM34.1426 13.1251C34.3052 13.1251 34.4612 13.0605 34.5762 12.9455C34.6912 12.8305 34.7558 12.6745 34.7558 12.5119V6.14204H37.2643V12.5119C37.2643 12.6745 37.3289 12.8305 37.4439 12.9455C37.5589 13.0605 37.7149 13.1251 37.8775 13.1251H39.1056L36.01 16.6494L32.9144 13.1251H34.1426ZM7.52933 17.9833C7.58684 18.0489 7.65768 18.1014 7.73713 18.1374C7.81657 18.1734 7.90279 18.192 7.99001 18.192C8.07722 18.192 8.16344 18.1734 8.24288 18.1374C8.32233 18.1014 8.39317 18.0489 8.45068 17.9833L12.9012 12.9165C12.9789 12.8279 13.0295 12.7188 13.0469 12.6022C13.0642 12.4856 13.0476 12.3665 12.9989 12.2591C12.9503 12.1517 12.8718 12.0606 12.7727 11.9967C12.6737 11.9328 12.5583 11.8988 12.4404 11.8987H10.4707V5.52886C10.4707 5.36623 10.4061 5.21026 10.2911 5.09527C10.1761 4.98027 10.0201 4.91567 9.85751 4.91567H6.1225C5.95988 4.91567 5.80391 4.98027 5.68891 5.09527C5.57392 5.21026 5.50932 5.36623 5.50932 5.52886V11.8987H3.53959C3.42169 11.8987 3.30629 11.9327 3.20721 11.9966C3.10813 12.0605 3.02958 12.1516 2.98095 12.259C2.93233 12.3664 2.9157 12.4856 2.93306 12.6022C2.95042 12.7188 3.00102 12.8279 3.07882 12.9165L7.52933 17.9833ZM6.1225 13.1251C6.28513 13.1251 6.4411 13.0605 6.55609 12.9455C6.67109 12.8305 6.73569 12.6745 6.73569 12.5119V6.14204H9.24423V12.5119C9.24423 12.6745 9.30884 12.8305 9.42383 12.9455C9.53883 13.0605 9.69479 13.1251 9.85742 13.1251H11.0856L7.99001 16.6494L4.89438 13.1251H6.1225ZM12.5552 18.9548C12.4276 18.9548 12.3032 18.9946 12.1993 19.0687C12.0954 19.1427 12.0172 19.2473 11.9755 19.3679L9.34751 26.9815C9.31567 27.0739 9.30636 27.1725 9.32034 27.2692C9.33433 27.3659 9.37121 27.4579 9.42791 27.5374C9.48461 27.617 9.5595 27.6819 9.64633 27.7267C9.73317 27.7714 9.82945 27.7948 9.92715 27.7949H34.0728C34.1705 27.7949 34.2668 27.7715 34.3537 27.7268C34.4405 27.682 34.5154 27.6171 34.5722 27.5376C34.6289 27.458 34.6657 27.366 34.6797 27.2693C34.6937 27.1726 34.6843 27.0739 34.6524 26.9815L32.0244 19.3679C31.9827 19.2474 31.9045 19.1428 31.8006 19.0687C31.6967 18.9947 31.5723 18.9549 31.4447 18.9548H26.3215V0.726468C26.3215 0.56384 26.2569 0.407874 26.1419 0.292879C26.0269 0.177885 25.8709 0.113281 25.7083 0.113281H18.2917C18.1291 0.113281 17.9731 0.177885 17.8581 0.292879C17.7431 0.407874 17.6785 0.56384 17.6785 0.726468V18.9548H12.5552ZM33.2125 26.5684H10.7874L12.9922 20.1812H31.0077L33.2125 26.5684ZM18.9049 1.33965H25.0951V18.9548H18.9049V1.33965ZM43.0235 24.5862H40.0786C39.9813 24.5862 39.8854 24.6093 39.7989 24.6538C39.7124 24.6982 39.6377 24.7627 39.5811 24.8418L39.5807 24.8414L36.4322 29.2214C36.3573 29.3257 36.317 29.4509 36.3169 29.5793V42.1603H7.68315V29.5793C7.68313 29.4509 7.64281 29.3257 7.56787 29.2214L4.41942 24.8414L4.41898 24.8418C4.36235 24.7627 4.28768 24.6982 4.20117 24.6538C4.11465 24.6093 4.01878 24.5862 3.92151 24.5862H0.976468C0.81384 24.5862 0.657874 24.6508 0.542879 24.7658C0.427885 24.8808 0.363281 25.0367 0.363281 25.1993C0.363281 25.362 0.427885 25.5179 0.542879 25.6329C0.657874 25.7479 0.81384 25.8125 0.976468 25.8125H3.30824V42.7735C3.30824 42.9362 3.37284 43.0921 3.48784 43.2071C3.60283 43.3221 3.7588 43.3867 3.92143 43.3867H40.0786C40.2412 43.3867 40.3972 43.3221 40.5122 43.2071C40.6272 43.0921 40.6918 42.9362 40.6918 42.7735V25.8125H43.0235C43.1862 25.8125 43.3421 25.7479 43.4571 25.6329C43.5721 25.5179 43.6367 25.362 43.6367 25.1993C43.6367 25.0367 43.5721 24.8808 43.4571 24.7658C43.3421 24.6508 43.1862 24.5862 43.0235 24.5862ZM4.53461 27.1029L6.45669 29.7769V42.1603H4.53461V27.1029ZM37.5432 42.1603V29.7769L39.4653 27.1029V42.1603H37.5432ZM16.4738 30.4134C15.3744 30.4134 14.48 31.3079 14.48 32.4073C14.48 33.5066 15.3744 34.4011 16.4738 34.4011C17.5731 34.4011 18.4676 33.5066 18.4676 32.4073C18.4676 31.3079 17.5731 30.4134 16.4738 30.4134ZM16.4738 33.1747C16.0506 33.1747 15.7063 32.8305 15.7063 32.4073C15.7063 31.9841 16.0506 31.6398 16.4738 31.6398C16.897 31.6398 17.2412 31.9841 17.2412 32.4073C17.2412 32.8305 16.897 33.1747 16.4738 33.1747ZM33.0523 30.4134C31.953 30.4134 31.0585 31.3079 31.0585 32.4073C31.0585 33.5066 31.953 34.4011 33.0523 34.4011C34.1517 34.4011 35.0462 33.5066 35.0462 32.4073C35.0462 31.3079 34.1517 30.4134 33.0523 30.4134ZM33.0523 33.1747C32.6291 33.1747 32.2849 32.8305 32.2849 32.4073C32.2849 31.9841 32.6291 31.6398 33.0523 31.6398C33.4755 31.6398 33.8198 31.9841 33.8198 32.4073C33.8198 32.8305 33.4755 33.1747 33.0523 33.1747ZM10.9477 30.4134C9.84831 30.4134 8.95385 31.3079 8.95385 32.4073C8.95385 33.5066 9.84831 34.4011 10.9477 34.4011C12.047 34.4011 12.9415 33.5066 12.9415 32.4073C12.9415 31.3079 12.047 30.4134 10.9477 30.4134ZM10.9477 33.1747C10.5245 33.1747 10.1802 32.8305 10.1802 32.4073C10.1802 31.9841 10.5245 31.6398 10.9477 31.6398C11.3709 31.6398 11.7151 31.9841 11.7151 32.4073C11.7151 32.8305 11.3709 33.1747 10.9477 33.1747ZM27.5261 30.4134C26.4268 30.4134 25.5323 31.3079 25.5323 32.4073C25.5323 33.5066 26.4268 34.4011 27.5261 34.4011C28.6255 34.4011 29.5199 33.5066 29.5199 32.4073C29.5199 31.3079 28.6255 30.4134 27.5261 30.4134ZM27.5261 33.1747C27.1029 33.1747 26.7587 32.8305 26.7587 32.4073C26.7587 31.9841 27.1029 31.6398 27.5261 31.6398C27.9493 31.6398 28.2936 31.9841 28.2936 32.4073C28.2936 32.8305 27.9493 33.1747 27.5261 33.1747ZM21.9999 30.4134C20.9006 30.4134 20.0062 31.3079 20.0062 32.4073C20.0062 33.5066 20.9006 34.4011 21.9999 34.4011C23.0993 34.4011 23.9937 33.5066 23.9937 32.4073C23.9937 31.3079 23.0993 30.4134 21.9999 30.4134ZM21.9999 33.1747C21.5768 33.1747 21.2326 32.8305 21.2326 32.4073C21.2326 31.9841 21.5768 31.6398 21.9999 31.6398C22.4231 31.6398 22.7674 31.9841 22.7674 32.4073C22.7674 32.8305 22.4231 33.1747 21.9999 33.1747ZM16.4738 36.4652C15.3744 36.4652 14.48 37.3596 14.48 38.459C14.48 39.5583 15.3744 40.4528 16.4738 40.4528C17.5731 40.4528 18.4676 39.5583 18.4676 38.459C18.4676 37.3596 17.5731 36.4652 16.4738 36.4652ZM16.4738 39.2264C16.0506 39.2264 15.7063 38.8822 15.7063 38.459C15.7063 38.0358 16.0506 37.6915 16.4738 37.6915C16.897 37.6915 17.2412 38.0358 17.2412 38.459C17.2412 38.8822 16.897 39.2264 16.4738 39.2264ZM33.0523 36.4652C31.953 36.4652 31.0585 37.3596 31.0585 38.459C31.0585 39.5583 31.953 40.4528 33.0523 40.4528C34.1517 40.4528 35.0462 39.5583 35.0462 38.459C35.0462 37.3596 34.1517 36.4652 33.0523 36.4652ZM33.0523 39.2264C32.6291 39.2264 32.2849 38.8822 32.2849 38.459C32.2849 38.0358 32.6291 37.6915 33.0523 37.6915C33.4755 37.6915 33.8198 38.0358 33.8198 38.459C33.8198 38.8822 33.4755 39.2264 33.0523 39.2264ZM21.9999 36.4652C20.9006 36.4652 20.0062 37.3596 20.0062 38.459C20.0062 39.5583 20.9006 40.4528 21.9999 40.4528C23.0993 40.4528 23.9937 39.5583 23.9937 38.459C23.9937 37.3596 23.0993 36.4652 21.9999 36.4652ZM21.9999 39.2264C21.5768 39.2264 21.2326 38.8822 21.2326 38.459C21.2326 38.0358 21.5768 37.6915 21.9999 37.6915C22.4231 37.6915 22.7674 38.0358 22.7674 38.459C22.7674 38.8822 22.4231 39.2264 21.9999 39.2264ZM10.9477 36.4652C9.84831 36.4652 8.95385 37.3596 8.95385 38.459C8.95385 39.5583 9.84831 40.4528 10.9477 40.4528C12.047 40.4528 12.9415 39.5583 12.9415 38.459C12.9415 37.3596 12.047 36.4652 10.9477 36.4652ZM10.9477 39.2264C10.5245 39.2264 10.1802 38.8822 10.1802 38.459C10.1802 38.0358 10.5245 37.6915 10.9477 37.6915C11.3709 37.6915 11.7151 38.0358 11.7151 38.459C11.7151 38.8822 11.3709 39.2264 10.9477 39.2264ZM27.5261 36.4652C26.4268 36.4652 25.5323 37.3596 25.5323 38.459C25.5323 39.5583 26.4268 40.4528 27.5261 40.4528C28.6255 40.4528 29.5199 39.5583 29.5199 38.459C29.5199 37.3596 28.6255 36.4652 27.5261 36.4652ZM27.5261 39.2264C27.1029 39.2264 26.7587 38.8822 26.7587 38.459C26.7587 38.0358 27.1029 37.6915 27.5261 37.6915C27.9493 37.6915 28.2936 38.0358 28.2936 38.459C28.2936 38.8822 27.9493 39.2264 27.5261 39.2264Z" fill="black"/>
</svg>
