<svg width="19" height="21" viewBox="0 0 19 21" fill="none" xmlns="http://www.w3.org/2000/svg">
<path d="M12.1012 0.704044C10.8574 0.556871 9.60554 0.489186 8.35314 0.501401C3.87502 0.501401 0.367188 2.25532 0.367188 4.49438V9.81834C0.367188 11.6095 2.62422 13.1182 5.94904 13.6266C4.9747 14.3292 3.99237 15.0206 3.00222 15.7007C2.91661 15.7594 2.84599 15.8375 2.79604 15.9285C2.74608 16.0195 2.71819 16.121 2.7146 16.2247C2.711 16.3285 2.73181 16.4317 2.77535 16.5259C2.81889 16.6202 2.88395 16.7029 2.96528 16.7675L7.40547 20.3202C7.52001 20.4116 7.66136 20.4628 7.80784 20.4661C7.95432 20.4694 8.09784 20.4246 8.21638 20.3385C8.95789 19.7972 9.68348 19.2344 10.3922 18.6508C11.0745 18.0897 11.7402 17.5088 12.3887 16.9089C12.392 16.9052 12.3967 16.9042 12.3997 16.9006L12.402 16.8966C13.0233 16.3228 13.6274 15.7307 14.2135 15.121C14.2205 15.1144 14.2298 15.1117 14.2361 15.104C14.2424 15.0964 14.2414 15.0931 14.2451 15.0881C14.6647 14.6528 15.0739 14.2078 15.4726 13.7534C16.5813 12.4817 17.9609 10.8994 18.2238 8.95054C18.492 6.9627 18.1216 4.01688 16.196 2.25665C14.9931 1.15325 13.4515 0.876741 12.1012 0.704044ZM8.35314 1.1669C12.3212 1.1669 15.6736 2.69088 15.6736 4.49438C15.6736 6.65092 11.3811 7.82186 8.35314 7.82186C4.38512 7.82186 1.03268 6.29787 1.03268 4.49438C1.03268 2.69088 4.38512 1.1669 8.35314 1.1669ZM1.03268 9.81834V6.11619C2.25387 7.52471 5.03664 8.48735 8.35314 8.48735C10.1025 8.51567 11.8411 8.20785 13.4745 7.58061C11.4324 9.46426 9.27763 11.222 7.02215 12.844V11.1493C7.02215 11.0611 6.98709 10.9764 6.92469 10.914C6.86229 10.8516 6.77765 10.8166 6.6894 10.8166C6.60115 10.8166 6.51651 10.8516 6.45411 10.914C6.39171 10.9764 6.35665 11.0611 6.35665 11.1493V13.0127C5.79537 12.9394 5.23957 12.8289 4.69291 12.682V10.8166C4.69291 10.7283 4.65785 10.6437 4.59545 10.5813C4.53305 10.5189 4.44841 10.4838 4.36016 10.4838C4.27191 10.4838 4.18728 10.5189 4.12488 10.5813C4.06247 10.6437 4.02742 10.7283 4.02742 10.8166V12.4803C3.56716 12.3262 3.1217 12.131 2.69642 11.897V9.81834C2.69642 9.73009 2.66137 9.64546 2.59896 9.58306C2.53656 9.52065 2.45193 9.4856 2.36368 9.4856C2.27543 9.4856 2.19079 9.52065 2.12839 9.58306C2.06598 9.64546 2.03093 9.73009 2.03093 9.81834V11.4591C1.39871 10.966 1.03268 10.4023 1.03268 9.81834ZM7.82074 19.8008L3.37889 16.2494C3.91908 15.8781 4.45714 15.5038 4.99305 15.1263C5.28571 15.3139 5.63665 15.3886 5.98031 15.3363C6.08673 15.3136 6.19674 15.3133 6.30324 15.3357C6.40974 15.358 6.51039 15.4024 6.59869 15.466C6.68699 15.5296 6.761 15.611 6.81593 15.705C6.87087 15.7989 6.90553 15.9033 6.91767 16.0115C6.98202 16.3828 7.18905 16.7142 7.49453 16.935C7.8 17.1557 8.17969 17.2482 8.55246 17.1927C8.65904 17.1709 8.76898 17.1715 8.87533 17.1944C8.98168 17.2173 9.08211 17.2621 9.17026 17.3258C9.25841 17.3896 9.33236 17.4709 9.38742 17.5647C9.44249 17.6586 9.47746 17.7628 9.49014 17.8708C9.52741 18.0472 9.59063 18.2169 9.67781 18.375C9.07063 18.8655 8.45142 19.3409 7.82074 19.8008ZM17.5673 8.86003C17.4903 9.38613 17.3315 9.89696 17.0968 10.374L16.6236 9.70854C16.5724 9.63661 16.4947 9.58797 16.4077 9.5733C16.3206 9.55864 16.2313 9.57916 16.1594 9.63034C16.0875 9.68153 16.0388 9.75919 16.0242 9.84624C16.0095 9.93329 16.03 10.0226 16.0812 10.0945L16.7437 11.0262C16.423 11.5421 16.0654 12.0341 15.6736 12.4983L14.7476 11.4395C14.7189 11.4063 14.6839 11.3792 14.6447 11.3595C14.6055 11.3399 14.5628 11.3283 14.5191 11.3252C14.4753 11.3221 14.4314 11.3278 14.3899 11.3417C14.3483 11.3557 14.3099 11.3777 14.2769 11.4066C14.2439 11.4354 14.2169 11.4705 14.1975 11.5098C14.1781 11.5491 14.1666 11.5919 14.1638 11.6356C14.161 11.6794 14.1668 11.7233 14.181 11.7648C14.1952 11.8063 14.2174 11.8445 14.2464 11.8774L15.237 13.0127C14.8235 13.4946 14.3978 13.9658 13.9603 14.4259L12.5627 13.228C12.5299 13.1976 12.4912 13.1742 12.4491 13.1591C12.4069 13.1441 12.3622 13.1376 12.3175 13.1402C12.2728 13.1428 12.2292 13.1544 12.1891 13.1743C12.149 13.1942 12.1133 13.222 12.0842 13.256C12.0551 13.29 12.0331 13.3295 12.0196 13.3722C12.0062 13.4148 12.0014 13.4598 12.0057 13.5043C12.01 13.5489 12.0232 13.5921 12.0446 13.6314C12.066 13.6707 12.0951 13.7053 12.1302 13.7331L13.5001 14.9087C13.0562 15.3615 12.6021 15.8042 12.1381 16.2364L10.5659 14.8894C10.5327 14.861 10.4942 14.8394 10.4527 14.8259C10.4111 14.8124 10.3673 14.8072 10.3237 14.8106C10.2802 14.814 10.2377 14.8259 10.1988 14.8457C10.1598 14.8655 10.1251 14.8928 10.0967 14.926C10.0683 14.9592 10.0468 14.9977 10.0332 15.0393C10.0197 15.0808 10.0145 15.1246 10.0179 15.1682C10.0213 15.2118 10.0332 15.2542 10.053 15.2932C10.0728 15.3321 10.1001 15.3668 10.1333 15.3952L11.6473 16.6909C11.1815 17.1145 10.6967 17.5294 10.2052 17.9387C10.1773 17.8633 10.154 17.7861 10.1357 17.7078C10.0715 17.337 9.86473 17.0061 9.55963 16.7858C9.25454 16.5655 8.87535 16.4734 8.50321 16.5292C8.39626 16.5509 8.28598 16.5502 8.17933 16.527C8.07268 16.5039 7.97198 16.459 7.88361 16.3949C7.79523 16.3309 7.7211 16.2493 7.66589 16.1551C7.61068 16.061 7.5756 15.9565 7.56286 15.8481C7.49959 15.477 7.29292 15.1458 6.98748 14.9258C6.68205 14.7059 6.30236 14.6149 5.9304 14.6725C5.83058 14.6831 5.73075 14.6838 5.63093 14.6741C9.4176 11.9789 13.9406 8.49833 15.6466 6.14647C16.0625 5.70749 16.308 5.13452 16.3391 4.53065C16.3564 3.48449 15.6217 2.65461 14.7456 2.07264C15.1111 2.2485 15.4498 2.47549 15.7515 2.74678C17.3746 4.23151 17.8331 6.88684 17.5673 8.86003Z" fill="black"/>
<path d="M8.34275 6.49084C9.70403 6.49084 11.976 6.10019 12.5613 4.86703C12.9586 4.02983 12.2688 3.17001 11.4915 2.64494C10.758 2.18022 9.95029 1.84462 9.10341 1.65268C8.97547 1.62023 8.84196 1.61626 8.71231 1.64104C8.58266 1.66582 8.46003 1.71875 8.35307 1.7961C8.22054 1.89157 8.1159 2.02068 8.04993 2.1701C5.739 2.24564 4.02734 3.15271 4.02734 4.32798C4.02734 5.89688 6.64807 6.49084 8.34275 6.49084ZM10.7861 5.42604L10.9052 3.06154C10.9794 3.10579 11.051 3.15138 11.1199 3.19763C12.3697 4.04015 12.3434 4.84207 10.7861 5.42604ZM8.6379 2.52548V2.51916C8.64071 2.48293 8.6514 2.44775 8.66921 2.41608C8.68703 2.38442 8.71155 2.35702 8.74105 2.33581C8.76901 2.315 8.80128 2.30073 8.83549 2.29405C8.8697 2.28737 8.90497 2.28845 8.9387 2.29721C9.38791 2.40868 9.82847 2.55476 10.2554 2.73411L10.1096 5.63102C9.54929 5.76097 8.97587 5.82617 8.40065 5.82534L8.6379 2.52548ZM7.94845 2.84026L7.73582 5.80172C5.90205 5.66928 4.69284 4.9572 4.69284 4.32798C4.69284 3.67013 6.01219 2.93376 7.94845 2.84026Z" fill="black"/>
<path d="M9.35245 3.82812C9.2642 3.82812 9.17956 3.86318 9.11716 3.92558C9.05476 3.98799 9.0197 4.07262 9.0197 4.16087V4.49362C9.0197 4.58187 9.05476 4.66651 9.11716 4.72891C9.17956 4.79131 9.2642 4.82637 9.35245 4.82637C9.4407 4.82637 9.52534 4.79131 9.58774 4.72891C9.65014 4.66651 9.6852 4.58187 9.6852 4.49362V4.16087C9.6852 4.07262 9.65014 3.98799 9.58774 3.92558C9.52534 3.86318 9.4407 3.82812 9.35245 3.82812ZM5.90019 16.5454C5.83127 16.4903 5.74325 16.4647 5.65552 16.4745C5.56778 16.4842 5.4875 16.5284 5.43235 16.5973C5.37719 16.6663 5.35167 16.7543 5.36141 16.842C5.37114 16.9297 5.41533 17.01 5.48425 17.0652L7.14799 18.3962C7.21692 18.4513 7.30493 18.4768 7.39267 18.4671C7.4804 18.4574 7.56068 18.4132 7.61584 18.3443C7.67099 18.2753 7.69651 18.1873 7.68678 18.0996C7.67704 18.0118 7.63285 17.9316 7.56393 17.8764L5.90019 16.5454Z" fill="black"/>
</svg>
