<svg width="18" height="20" viewBox="0 0 18 20" fill="none" xmlns="http://www.w3.org/2000/svg">
<circle cx="9" cy="11" r="9" fill="#209B90" fill-opacity="0.3"/>
<path d="M2.76705 7.76383C2.43246 7.76479 2.10496 7.86291 1.82246 8.04684C1.53996 8.23077 1.314 8.49298 1.17071 8.80315C1.02742 9.11333 0.972667 9.45878 1.01278 9.79954C1.0529 10.1403 1.18624 10.4624 1.39739 10.7287L5.89856 16.385C6.05905 16.5894 6.26477 16.7516 6.49863 16.8581C6.7325 16.9646 6.98775 17.0123 7.2432 16.9973C7.78955 16.9672 8.2828 16.6674 8.59728 16.1744L17.9474 0.72731C17.9489 0.724729 17.9505 0.722179 17.9521 0.719661C18.0399 0.581479 18.0114 0.30764 17.8303 0.135611C17.7806 0.0883697 17.7219 0.0520753 17.658 0.0289628C17.5941 0.00585041 17.5262 -0.00359069 17.4586 0.0012212C17.3909 0.0060331 17.325 0.0249961 17.2648 0.0569421C17.2046 0.0888882 17.1514 0.133141 17.1084 0.186975C17.1051 0.191208 17.1016 0.195376 17.0981 0.199481L7.66841 11.1287C7.63253 11.1703 7.58895 11.2042 7.54021 11.2283C7.49146 11.2525 7.43852 11.2665 7.38446 11.2695C7.3304 11.2725 7.2763 11.2644 7.22529 11.2458C7.17429 11.2272 7.1274 11.1983 7.08736 11.161L3.95783 8.23953C3.6328 7.93388 3.20798 7.76417 2.76705 7.76383Z" fill="black"/>
</svg>
