<svg width="23" height="43" viewBox="0 0 23 43" fill="none" xmlns="http://www.w3.org/2000/svg">
<path d="M20.8611 42.2432C21.2258 42.5955 21.807 42.5854 22.1593 42.2207C22.5029 41.8649 22.5029 41.3008 22.1593 40.9451L2.61083 21.3948L22.1612 1.84624C22.5258 1.49395 22.5359 0.912777 22.1837 0.548C21.8314 0.183308 21.2502 0.173237 20.8855 0.525448C20.8778 0.532852 20.8703 0.54034 20.8629 0.548L0.664373 20.7465C0.305965 21.105 0.305965 21.6862 0.664373 22.0448L20.8611 42.2432Z" fill="#D1CECE"/>
<path d="M21.508 0.281201C21.6898 0.280884 21.8676 0.33456 22.0189 0.435425C22.1702 0.53629 22.2881 0.6798 22.3578 0.847766C22.4274 1.01573 22.4456 1.20059 22.41 1.3789C22.3744 1.55722 22.2867 1.72096 22.158 1.84937L2.60769 21.3979L22.158 40.9463C22.517 41.3053 22.517 41.8874 22.158 42.2464C21.799 42.6054 21.217 42.6054 20.858 42.2464L0.659429 22.0478C0.30102 21.6893 0.30102 21.1082 0.659429 20.7496L20.858 0.551125C20.9432 0.465575 21.0445 0.397696 21.1561 0.351377C21.2676 0.305057 21.3872 0.281209 21.508 0.281201Z" fill="black"/>
</svg>
