<svg width="23" height="43" viewBox="0 0 23 43" fill="none" xmlns="http://www.w3.org/2000/svg">
<path d="M1.88264 0.0155754C1.70081 0.0152588 1.52299 0.0689354 1.3717 0.1698C1.22042 0.270664 1.10249 0.414177 1.03287 0.582142C0.963246 0.750107 0.945061 0.934967 0.980621 1.11328C1.01618 1.29159 1.10388 1.45533 1.23261 1.58374L20.7829 21.1323L1.23261 40.6807C0.8736 41.0397 0.8736 41.6217 1.23261 41.9807C1.59162 42.3398 2.17365 42.3398 2.53266 41.9807L22.7312 21.7822C23.0896 21.4237 23.0896 20.8425 22.7312 20.484L2.53266 0.2855C2.4474 0.199951 2.3461 0.132072 2.23455 0.0857506C2.12301 0.0394325 2.00342 0.015583 1.88264 0.0155754Z" fill="black"/>
</svg>
