<svg width="14" height="10" viewBox="0 0 14 10" fill="none" xmlns="http://www.w3.org/2000/svg">
<path d="M13.6793 0.289386C13.5867 0.197689 13.4765 0.124907 13.3551 0.0752394C13.2337 0.0255714 13.1035 0 12.972 0C12.8405 0 12.7103 0.0255714 12.5889 0.0752394C12.4675 0.124907 12.3574 0.197689 12.2647 0.289386L4.84329 7.58766L1.72529 4.51573C1.62913 4.42451 1.51563 4.35279 1.39125 4.30465C1.26688 4.25652 1.13406 4.23291 1.0004 4.23518C0.86673 4.23745 0.734828 4.26555 0.612221 4.31789C0.489614 4.37022 0.378704 4.44576 0.285823 4.54019C0.192942 4.63462 0.119909 4.74609 0.0708932 4.86824C0.0218778 4.99039 -0.00216024 5.12082 0.000152332 5.25209C0.0024649 5.38336 0.0310826 5.5129 0.0843711 5.63331C0.13766 5.75372 0.214575 5.86265 0.310727 5.95386L4.13601 9.71062C4.22862 9.80231 4.3388 9.87509 4.46019 9.92476C4.58158 9.97443 4.71179 10 4.84329 10C4.9748 10 5.105 9.97443 5.22639 9.92476C5.34779 9.87509 5.45796 9.80231 5.55057 9.71062L13.6793 1.72752C13.7804 1.63591 13.8611 1.52472 13.9163 1.40096C13.9715 1.2772 14 1.14356 14 1.00845C14 0.873344 13.9715 0.7397 13.9163 0.615943C13.8611 0.492186 13.7804 0.380998 13.6793 0.289386Z" fill="#209B90"/>
</svg>
