<svg width="13" height="15" viewBox="0 0 13 15" fill="none" xmlns="http://www.w3.org/2000/svg">
<path d="M0.469159 14.0472H0.437637C0.232748 14.0314 0.0909022 13.8581 0.106663 13.6689C0.311552 10.6587 3.14848 8.31031 6.55279 8.31031C9.9571 8.31031 12.794 10.6587 12.9989 13.6532C13.0147 13.8581 12.8571 14.0157 12.6679 14.0314C12.463 14.0472 12.3054 13.8896 12.2897 13.7005C12.1006 11.0684 9.57884 9.01954 6.55279 9.01954C3.51097 9.01954 0.989262 11.0842 0.815894 13.7162C0.800133 13.9054 0.642526 14.0472 0.469159 14.0472ZM6.55279 7.58531C4.56694 7.58531 2.95935 5.97772 2.95935 3.99188C2.95935 2.00603 4.56694 0.398438 6.55279 0.398438C8.53863 0.398438 10.1462 2.00603 10.1462 3.99188C10.1462 5.97772 8.53863 7.58531 6.55279 7.58531ZM6.55279 1.12343C4.97672 1.12343 3.68434 2.41581 3.68434 3.99188C3.68434 5.56795 4.97672 6.86032 6.55279 6.86032C8.12886 6.86032 9.42123 5.56795 9.42123 3.99188C9.42123 2.41581 8.12886 1.12343 6.55279 1.12343Z" fill="black"/>
</svg>
