<svg width="17" height="19" viewBox="0 0 17 19" fill="none" xmlns="http://www.w3.org/2000/svg">
<path d="M0.475692 18.5025H0.434125C0.163938 18.4818 -0.0231152 18.2531 -0.00233153 18.0037C0.267856 14.0341 4.00891 10.9373 8.49818 10.9373C12.9874 10.9373 16.7285 14.0341 16.9987 17.983C17.0195 18.2531 16.8116 18.461 16.5622 18.4818C16.292 18.5025 16.0842 18.2947 16.0634 18.0453C15.814 14.5744 12.4886 11.8726 8.49818 11.8726C4.48694 11.8726 1.16155 14.5952 0.932933 18.0661C0.912149 18.3155 0.704312 18.5025 0.475692 18.5025ZM8.49818 9.98125C5.87944 9.98125 3.75951 7.86132 3.75951 5.24258C3.75951 2.62384 5.87944 0.503906 8.49818 0.503906C11.1169 0.503906 13.2369 2.62384 13.2369 5.24258C13.2369 7.86132 11.1169 9.98125 8.49818 9.98125ZM8.49818 1.45995C6.41982 1.45995 4.71556 3.16421 4.71556 5.24258C4.71556 7.32094 6.41982 9.0252 8.49818 9.0252C10.5765 9.0252 12.2808 7.32094 12.2808 5.24258C12.2808 3.16421 10.5765 1.45995 8.49818 1.45995Z" fill="black"/>
</svg>
